<svg id="Capa_1" enable-background="new 0 0 497 497" height="512" viewBox="0 0 497 497" width="512" xmlns="http://www.w3.org/2000/svg"><g><circle cx="248.5" cy="248.5" fill="#b7c5c8" r="248.5"/><path d="m248.5 30v437c120.674 0 218.5-97.826 218.5-218.5s-97.826-218.5-218.5-218.5z" fill="#ff0037"/><path d="m437 248.5c0-120.674-84.394-218.5-188.5-218.5-120.674 0-218.5 97.826-218.5 218.5s97.826 218.5 218.5 218.5c104.106 0 188.5-97.826 188.5-218.5z" fill="#ff4437"/><path d="m248.503 90 114.48 230.556 3.1 3.1c7.21 7.21 19.387 5.296 23.984-3.806 10.831-21.444 16.933-45.683 16.933-71.348.001-87.237-71.26-158.5-158.497-158.502z" fill="#d9f9ff"/><path d="m248.503 90c-25.669 0-49.909 6.102-71.354 16.933-9.102 4.597-11.016 16.774-3.806 23.984l189.64 189.64c8.961-21.619 14.017-46.109 14.017-72.057 0-87.536-57.53-158.498-128.497-158.5z" fill="#fff"/><path d="m327.664 373.355-79.162 33.645c25.667 0 49.906-6.103 71.35-16.933 6.445-3.255 9.264-10.309 7.812-16.712z" fill="#d9f9ff"/><path d="m130.917 173.343c-7.21-7.21-19.387-5.296-23.984 3.806-10.831 21.445-16.933 45.684-16.933 71.35 0 87.239 71.263 158.502 158.502 158.501 29.862 0 57.343-12.567 79.162-33.645-.598-2.638-1.903-5.168-4.007-7.272z" fill="#fff"/></g></svg>