<?xml version="1.0" encoding="utf-8"?>
<!-- Generator: Adobe Illustrator 16.0.0, SVG Export Plug-In . SVG Version: 6.00 Build 0)  -->
<!DOCTYPE svg PUBLIC "-//W3C//DTD SVG 1.1//EN" "http://www.w3.org/Graphics/SVG/1.1/DTD/svg11.dtd">
<svg version="1.1" id="Capa_1" xmlns="http://www.w3.org/2000/svg" xmlns:xlink="http://www.w3.org/1999/xlink" x="0px" y="0px"
	 width="100px" height="100px" viewBox="0 0 100 100" enable-background="new 0 0 100 100" xml:space="preserve">
<rect fill="#A0A0A0" width="100" height="100"/>
<g transform="translate(128 128) scale(0.72 0.72)">
	<g transform="translate(-175.05 -175.05) scale(3.89 3.89)">
		<path fill="#FFFFFF" d="M17.151,18.527l9.321-5.767v-1.33c0-0.33-0.268-0.598-0.598-0.598H8.428c-0.33,0-0.598,0.268-0.598,0.598
			v1.33L17.151,18.527z"/>
		<path fill="#FFFFFF" d="M17.314,19.157c-0.002,0.001-0.005,0.001-0.007,0.003c-0.017,0.01-0.035,0.016-0.053,0.023
			c-0.008,0.003-0.016,0.007-0.025,0.009c-0.024,0.007-0.048,0.009-0.073,0.01c-0.002,0-0.004,0.001-0.006,0.001h0h0
			c-0.002,0-0.004-0.001-0.006-0.001c-0.025,0-0.049-0.004-0.073-0.01c-0.009-0.002-0.016-0.007-0.025-0.009
			c-0.018-0.007-0.036-0.013-0.053-0.023c-0.002-0.001-0.005-0.002-0.007-0.003L7.83,13.491v9.381c0,0.33,0.268,0.598,0.598,0.598
			h17.446c0.33,0,0.598-0.268,0.598-0.598v-9.381L17.314,19.157z"/>
	</g>
</g>
</svg>
