<?xml version="1.0" encoding="utf-8"?>
<!-- Generator: Adobe Illustrator 16.0.0, SVG Export Plug-In . SVG Version: 6.00 Build 0)  -->
<!DOCTYPE svg PUBLIC "-//W3C//DTD SVG 1.1//EN" "http://www.w3.org/Graphics/SVG/1.1/DTD/svg11.dtd">
<svg version="1.1" id="Flat" xmlns="http://www.w3.org/2000/svg" xmlns:xlink="http://www.w3.org/1999/xlink" x="0px" y="0px"
	 width="448.027px" height="449.278px" viewBox="32 32 448.027 449.278" enable-background="new 32 32 448.027 449.278"
	 xml:space="preserve">
<circle fill="#FDB66A" cx="336" cy="176" r="144"/>
<path fill="#F4AA51" d="M335.2,319.96c-7.722-75.637-67.523-135.439-143.16-143.16C192.473,255.685,256.315,319.527,335.2,319.96z"
	/>
<path fill="#FCC07E" d="M352,48c-79.467-0.064-143.94,64.305-144.004,143.772c-0.027,34.347,12.232,67.572,34.564,93.667
	c60.366,51.683,151.198,44.643,202.88-15.723c46.115-53.863,46.115-133.293,0-187.157C419.429,60.236,386.277,47.975,352,48z"/>
<path fill="#F4A864" d="M208.64,179.368c-0.368,4.168-0.64,8.368-0.64,12.632c-0.025,34.277,12.236,67.429,34.56,93.439
	c25.806,22.135,58.642,34.37,92.64,34.521C328.1,250.55,276.924,193.701,208.64,179.368L208.64,179.368z"/>
<g>
	<circle fill="#9D6F50" cx="336" cy="104" r="32"/>
	<circle fill="#9D6F50" cx="416" cy="200" r="24"/>
	<circle fill="#9D6F50" cx="248" cy="160" r="16"/>
	<circle fill="#9D6F50" cx="344" cy="280" r="8"/>
	<circle fill="#9D6F50" cx="328" cy="208" r="16"/>
</g>
<path fill="#AB8469" d="M49.776,296.168c5.212-5.244,7.702-12.605,6.744-19.936c20.188,8.818,43.702-0.398,52.52-20.586
	c4.447-10.18,4.447-21.754,0-31.935c12.989,1.737,24.927-7.385,26.664-20.374c0.246-1.836,0.275-3.695,0.088-5.539
	c76.64-22.591,157.083,21.224,179.674,97.864c22.591,76.64-21.224,157.082-97.864,179.674
	c-76.64,22.591-157.083-21.225-179.673-97.864C30.775,353.208,30.11,327.49,36,302.889
	C41.208,302.229,46.051,299.867,49.776,296.168z"/>
<path fill="#9D6F50" d="M82.56,445.44c60.366,51.682,151.198,44.642,202.879-15.724c46.116-53.863,46.116-133.293,0-187.157
	c-36.802-31.605-87.103-42.43-133.647-28.76c1.322,13.038-8.176,24.679-21.214,26c-1.843,0.187-3.702,0.157-5.538-0.088
	c8.818,20.188-0.398,43.702-20.585,52.521c-10.18,4.447-21.754,4.447-31.935,0c1.757,12.945-7.314,24.865-20.26,26.621
	c-0.086,0.012-0.173,0.023-0.26,0.035C41.226,363.531,52.6,410.633,82.56,445.44z"/>
<circle fill="#F4E8DF" cx="176" cy="264" r="32"/>
<circle fill="#F4E8DF" cx="96" cy="360" r="24"/>
<circle fill="#F4E8DF" cx="272" cy="344" r="16"/>
<circle fill="#F4E8DF" cx="192" cy="424" r="8"/>
<circle fill="#9D6F50" cx="40" cy="240" r="8"/>
<circle fill="#9D6F50" cx="72" cy="192" r="8"/>
<circle fill="#F4E8DF" cx="184" cy="360" r="16"/>
</svg>
