<?xml version="1.0" encoding="utf-8"?>
<!-- Generator: Adobe Illustrator 16.0.0, SVG Export Plug-In . SVG Version: 6.00 Build 0)  -->
<!DOCTYPE svg PUBLIC "-//W3C//DTD SVG 1.1//EN" "http://www.w3.org/Graphics/SVG/1.1/DTD/svg11.dtd">
<svg version="1.1" id="Layer_1" xmlns="http://www.w3.org/2000/svg" xmlns:xlink="http://www.w3.org/1999/xlink" x="0px" y="0px"
	 width="400px" height="400px" viewBox="0 0 400 400" enable-background="new 0 0 400 400" xml:space="preserve">
<path fill="#FFFFFF" d="M167.432,219.133c-12.47-12.41-24.59-24.459-36.694-36.523c-7.235-7.212-6.851-10.664,1.777-16.356
	c9.645-6.363,23.1-6.11,32.51,0.617c0.813,0.582,1.605,1.194,2.66,1.979c0.848-0.692,1.701-1.36,2.523-2.067
	c21.442-18.419,42.862-36.867,64.358-55.224c1.969-1.681,2.418-2.944,1.492-5.557c-2.877-8.116-1.414-15.638,4.42-22.117
	c3.074-3.416,6.684-3.61,9.937-0.361c21.909,21.871,43.776,43.779,65.617,65.72c3.311,3.327,3.093,7.025-0.511,10.167
	c-6.654,5.807-14.207,7.068-22.498,4.133c-0.823-0.291-1.627-0.643-2.592-1.028c-19.891,23.209-39.722,46.343-59.641,69.587
	c4.012,4.805,6.475,10.094,7.109,16.158c0.984,9.383-1.987,17.398-8.559,24.053c-2.96,2.998-6.339,2.685-9.677-0.651
	c-11.388-11.375-22.758-22.759-34.101-34.174c-0.854-0.861-1.437-1.992-2.147-3.003c-0.521-0.112-1.041-0.226-1.562-0.34
	c-0.697,1.155-1.185,2.526-2.12,3.437c-20.25,19.715-40.376,39.567-60.93,58.965c-8.187,7.726-17.339,14.433-26.069,21.583
	c-2.515,2.059-7.381,2.225-9.248,0.383c-2.324-2.297-2.185-5.945,0.29-9.097c18.241-23.229,37.849-45.231,59.041-65.817
	C150.996,235.657,158.988,227.535,167.432,219.133z"/>
</svg>
