<?xml version="1.0" encoding="utf-8"?>
<!-- Generator: Adobe Illustrator 16.0.0, SVG Export Plug-In . SVG Version: 6.00 Build 0)  -->
<!DOCTYPE svg PUBLIC "-//W3C//DTD SVG 1.1//EN" "http://www.w3.org/Graphics/SVG/1.1/DTD/svg11.dtd">
<svg version="1.1" id="Layer_1" xmlns="http://www.w3.org/2000/svg" xmlns:xlink="http://www.w3.org/1999/xlink" x="0px" y="0px"
	 width="275.504px" height="346.873px" viewBox="120.832 85.376 275.504 346.873"
	 enable-background="new 120.832 85.376 275.504 346.873" xml:space="preserve">
<polygon fill="#C6CACC" points="159.536,91 154.928,91 142.384,91 142.384,127.48 126,127.48 126,227.192 142.384,243.448 
	142.384,432.249 154.928,432.249 159.536,432.249 345.648,432.249 396.336,381.688 396.336,91 "/>
<g id="Layer_x0020_1_1_">
	<g>
		<g id="_395326176_1_">
			<path fill="#D1D8DE" d="M154.368,426.625h-17.152V85.376h17.152V426.625L154.368,426.625z"/>
			<path fill="#EFF2F4" d="M340.48,426.625H149.76V85.376h241.408v290.688L340.48,426.625z"/>
		</g>
		<path fill="#736654" d="M120.832,221.567v-99.711l16.384,16.128v99.84L120.832,221.567z"/>
		<path fill="#CFD8DF" d="M340.48,376.063h50.688l-50.688,50.562V376.063z"/>
		<path fill="#BF0013" d="M120.832,221.567v-99.711h179.84v99.711H120.832z"/>
	</g>
</g>
<g enable-background="new    ">
	<path fill="#FFFFFF" d="M154.27,146.38h28.151v9.188h-17.697v11.319h16.536v9.114h-16.536v19.919H154.27V146.38z"/>
	<path fill="#FFFFFF" d="M200.734,146.38v49.54H190.28v-49.54H200.734z"/>
	<path fill="#FFFFFF" d="M209.754,146.38h10.455v40.132h18.313v9.408h-28.768V146.38z"/>
	<path fill="#FFFFFF" d="M272.072,174.972h-16.946v11.761h18.927v9.188h-29.381v-49.54h28.425v9.188h-17.971v10.291h16.946V174.972z
		"/>
</g>
<g id="Solid">
	<path fill="#545454" d="M261.589,338.306c2.345,2.344,6.144,2.344,8.486,0l0,0l22.627-22.627c2.343-2.343,2.343-6.142,0-8.486
		c-2.343-2.342-6.144-2.342-8.485,0l-12.386,12.387v-65.516c0-3.313-2.687-6-5.999-6s-6,2.688-6,6v65.516l-12.385-12.387
		c-2.344-2.342-6.143-2.342-8.485,0c-2.343,2.346-2.343,6.145,0,8.486L261.589,338.306z"/>
	<path fill="#545454" d="M317.833,300.063c-3.314,0-6.001,2.687-6.001,6v46h-92v-46c0-3.313-2.688-6-6-6s-6,2.687-6,6v48
		c0,5.521,4.479,10,10,10h96c5.521,0,10-4.479,10-10v-48C323.832,302.75,321.146,300.063,317.833,300.063z"/>
</g>
</svg>
