<?xml version="1.0" encoding="utf-8"?>
<!-- Generator: Adobe Illustrator 16.0.0, SVG Export Plug-In . SVG Version: 6.00 Build 0)  -->
<!DOCTYPE svg PUBLIC "-//W3C//DTD SVG 1.1//EN" "http://www.w3.org/Graphics/SVG/1.1/DTD/svg11.dtd">
<svg version="1.1" id="Capa_1" xmlns="http://www.w3.org/2000/svg" xmlns:xlink="http://www.w3.org/1999/xlink" x="0px" y="0px"
	 width="512px" height="512px" viewBox="0 0 512 512" enable-background="new 0 0 512 512" xml:space="preserve">
<g>
	<circle fill="#D605AF" cx="256" cy="256" r="256"/>
</g>
<g>
	<path fill="#FFFFFF" d="M322.328,108.261c8.568-5.733,19.189-4.38,24.506,0.244c2.303,2.007,4.554,5.426,2.181,10.326
		c-4.983,10.339-15.598,17.016-27.027,17.016h-32.722c1.539,3.977,2.392,8.292,2.392,12.808c0,4.021-0.679,7.889-1.91,11.5h76.957
		c5.131-9.749,5.503-20.94,0.929-31.195l-9.376-21.05c-1.097-2.437-2.777-4.708-5.061-6.696c-7.966-6.914-23.358-9.607-36.249-0.988
		l-35.34,23.66c2.245,2.322,4.182,4.938,5.734,7.792L322.328,108.261z"/>
	<path fill="#FFFFFF" d="M222.263,160.147c-1.231-3.61-1.911-7.478-1.911-11.5c0-4.515,0.853-8.832,2.392-12.808h-32.703
		c-11.429,0-22.044-6.683-27.053-17.021c-2.373-4.894-0.122-8.313,2.187-10.313c2.86-2.489,7.254-4.028,12.039-4.028
		c4.111,0,8.504,1.135,12.461,3.784l34.979,23.417c1.552-2.86,3.496-5.478,5.734-7.792l-35.339-23.66
		c-12.891-8.62-28.284-5.926-36.23,0.988c-2.546,2.213-4.355,4.771-5.419,7.529l-9.024,20.209
		c-4.58,10.255-4.208,21.447,0.93,31.196H222.263z"/>
	<path fill="#FFFFFF" d="M232.698,160.147h46.595c1.719-3.47,2.693-7.375,2.693-11.5c0-14.322-11.673-25.994-25.994-25.994
		c-14.322,0-25.995,11.672-25.995,25.994C230.004,152.778,230.979,156.678,232.698,160.147L232.698,160.147z"/>
	<path fill="#FFFFFF" d="M102.2,190.15v31.779c0,9.55,6.619,17.58,15.501,19.754h120.377v-71.877H122.538
		C111.327,169.807,102.2,178.933,102.2,190.15z"/>
	<path fill="#FFFFFF" d="M117.708,396.194c0,14.886,12.109,26.994,26.995,26.994h93.382V251.336H117.708V396.194z"/>
	<path fill="#FFFFFF" d="M389.459,169.807H273.931v71.871h120.357c8.89-2.174,15.502-10.204,15.502-19.754v-31.779
		C409.796,178.933,400.67,169.807,389.459,169.807z"/>
	<path fill="#FFFFFF" d="M273.931,423.188h93.363c14.886,0,26.994-12.108,26.994-26.994V251.336H273.931V423.188z"/>
</g>
</svg>
