<?xml version="1.0" encoding="utf-8"?>
<!-- Generator: Adobe Illustrator 16.0.0, SVG Export Plug-In . SVG Version: 6.00 Build 0)  -->
<!DOCTYPE svg PUBLIC "-//W3C//DTD SVG 1.1//EN" "http://www.w3.org/Graphics/SVG/1.1/DTD/svg11.dtd">
<svg version="1.1" id="Capa_1" xmlns="http://www.w3.org/2000/svg" xmlns:xlink="http://www.w3.org/1999/xlink" x="0px" y="0px"
	 width="512px" height="512px" viewBox="0 0 512 512" enable-background="new 0 0 512 512" xml:space="preserve">
<g>
	<circle fill="#FABE2C" cx="256" cy="256" r="256"/>
</g>
<path fill="#FFFFFF" stroke="#C69528" stroke-width="18" stroke-miterlimit="10" d="M272.918,116.365
	c-3.087-6.408-9.612-10.486-16.777-10.486c-7.166,0-13.632,4.078-16.777,10.486l-37.458,77.072l-83.656,12.351
	c-6.991,1.049-12.816,5.942-14.972,12.641c-2.155,6.7-0.408,14.099,4.603,19.05l60.703,60.062l-14.332,84.879
	c-1.165,6.99,1.748,14.097,7.516,18.233c5.767,4.137,13.398,4.66,19.69,1.339l74.743-39.904l74.742,39.904
	c6.292,3.321,13.923,2.855,19.69-1.339s8.681-11.243,7.516-18.233l-14.39-84.879l60.702-60.062c5.01-4.952,6.816-12.351,4.603-19.05
	c-2.214-6.699-7.981-11.592-14.972-12.641l-83.714-12.351L272.918,116.365z"/>
</svg>
