<?xml version="1.0" encoding="utf-8"?>
<!-- Generator: Adobe Illustrator 16.0.0, SVG Export Plug-In . SVG Version: 6.00 Build 0)  -->
<!DOCTYPE svg PUBLIC "-//W3C//DTD SVG 1.1//EN" "http://www.w3.org/Graphics/SVG/1.1/DTD/svg11.dtd">
<svg version="1.1" id="Capa_1" xmlns="http://www.w3.org/2000/svg" xmlns:xlink="http://www.w3.org/1999/xlink" x="0px" y="0px"
	 width="512px" height="512px" viewBox="0 0 512 512" enable-background="new 0 0 512 512" xml:space="preserve">
<g>
	<circle fill="#74B20E" cx="256" cy="256" r="256"/>
</g>
<path fill="#FFFFFF" d="M180.183,384.188h-60.439c-4.76,0-8.64-3.88-8.64-8.638V236.77c0-4.758,3.88-8.64,8.64-8.64h60.439
	c4.76,0,8.639,3.882,8.639,8.64v138.779C188.821,380.307,184.942,384.188,180.183,384.188z M209.942,351.57v-99.425
	c0-24.269,6.92-48.651,19.805-69.259c7.871-12.592,25.516-32.765,35.398-43.199c2.198-2.342,10.177-9.223,10.177-12.994
	c0-4.833,0.551-12.628,0.732-27.161c0.112-9.225,7.612-16.803,16.838-16.73h0.406c16.141,0.366,21.339,15.265,21.339,15.265
	s13.801,27.239,0.918,60.551c-10.872,28.149-13.068,30.42-13.068,30.42s-3.517,5.088,7.615,4.869c0,0,67.941-0.294,70.283-0.294
	c5.017,0,21.011,4.575,20.093,24.969c-0.656,15.082-10.026,20.354-14.819,22.073c-0.951,0.328-1.063,1.646-0.182,2.16
	c4.902,2.852,14.932,10.066,14.713,21.122c-0.294,13.4-5.673,18.341-16.879,21.414c-1.023,0.294-1.206,1.647-0.29,2.163
	c4.249,2.414,11.531,8.307,11.096,20.242c-0.439,12.152-9.227,16.435-14.024,17.902c-0.95,0.292-1.131,1.535-0.29,2.122
	c3.039,2.085,7.538,6.809,7.322,16.508c-0.112,5.126-1.832,8.86-3.994,11.53c-3.403,4.214-8.748,6.41-14.165,6.443l-150.75,0.293
	C218.143,362.553,209.942,362.553,209.942,351.57L209.942,351.57z"/>
</svg>
