<svg id="Layer_1" enable-background="new 0 0 512 512" height="512" viewBox="0 0 512 512" width="512" xmlns="http://www.w3.org/2000/svg"><g clip-rule="evenodd" fill-rule="evenodd"><path d="m6.717 370.157c-11.86 11.873-8.013 26.196 11.539 27.158l55.686 7.059c19.291 2.421 15.444 3.238 17.746 21.587l5.886 50.758c.991 19.603 15.298 23.424 27.129 11.552l39.572-39.585 40.504-40.577c-3.526-1.313-7.139-3.296-10.403-6.097l-28.732-72.548-87.74-30.571z" fill="#7cade0"/><path d="m130.939 423.919-35.376 35.414 2.011 17.386c.991 19.603 15.298 23.424 27.129 11.552l39.572-39.585 40.504-40.577c-3.526-1.313-7.139-3.296-10.403-6.097l-22.904-18.669z" fill="#5e9ad8"/><path d="m307.206 408.108 40.533 40.577 39.543 39.585c11.86 11.873 26.168 8.051 27.158-11.552l5.857-50.758c2.302-18.349-1.544-19.165 17.775-21.587l55.657-7.059c19.582-.963 23.399-15.286 11.568-27.158l-71.655-71.732-95.753 9.714z" fill="#7cade0"/><path d="m406.31 330.98 68.624 68.727 18.795-2.392c19.582-.963 23.399-15.286 11.568-27.158l-71.655-71.732-54.346 5.513z" fill="#5e9ad8"/><path d="m271.072 20.688 26.663 12.602 37.765 2.421c5.362.35 17.047 4.288 24.303 14.469l17.775 23.599 32.287 19.749c4.604 2.8 13.142 11.727 14.832 24.154l4.808 29.171 19.465 32.555c2.768 4.638 6.178 16.511 1.923 28.267l-9.266 28.121 2.156 37.864c.321 5.397-2.156 17.503-11.365 25.962l-21.214 20.536-15.648 34.568c-2.215 4.901-10.024 14.498-22.088 17.648l-28.324 8.314-29.839 23.308c-4.254 3.325-15.59 8.168-27.77 5.338l-28.907-5.834-37.211 6.709c-5.303.963-17.6-.029-27.042-8.197l-22.904-18.669-36.075-11.406c-5.129-1.604-15.532-8.226-20.136-19.865l-11.627-27.187-26.663-26.925c-3.788-3.851-9.966-14.556-8.625-27.012l2.302-29.492-11.131-36.26c-1.603-5.163-2.098-17.532 4.837-27.946l15.706-25.029 6.935-37.31c.991-5.309 6.294-16.482 17.251-22.462l25.497-14.877 23.428-29.784c3.322-4.23 13.2-11.668 25.672-11.843l29.46-1.284 34.56-15.461c4.899-2.188 17.079-4.171 28.21 1.488z" fill="#e6e2e6"/><path d="m255.716 365.84c83.893 0 151.906-68.085 151.906-152.098 0-83.983-68.012-152.069-151.906-152.069-83.923 0-151.935 68.085-151.935 152.069 0 84.012 68.012 152.098 151.935 152.098z" fill="#ab9faa"/><path d="m407.621 213.742c0-68.727-45.545-126.806-108.079-145.622 29.373 42.035 47.498 99.707 47.498 163.387 0 34.48-5.303 67.21-14.861 96.644-2.36 7.322-5.012 14.44-7.897 21.353 22.263-11.289 41.378-27.917 55.657-48.191 17.425-24.737 27.682-54.958 27.682-87.571z" fill="#9c8f9a"/><path d="m450.894 207.674c4.254-11.756.845-23.629-1.923-28.267l-19.465-32.555-4.808-29.171c-1.69-12.427-10.228-21.353-14.832-24.154l-32.287-19.749-17.776-23.598c-7.256-10.181-18.941-14.119-24.303-14.469l-37.765-2.421-26.663-12.602c-8.451-4.288-17.513-4.201-23.516-2.917 19.582 11.989 37.211 29.171 51.985 50.349 62.534 18.815 108.079 76.895 108.079 145.622 0 32.613-10.257 62.834-27.683 87.571-14.278 20.274-33.394 36.901-55.657 48.191-3.934 9.393-8.305 18.407-13.113 26.896-6.819 12.077-14.453 23.162-22.816 33.109 5.77 1.196 11.335.671 15.969-.525 4.925-1.284 8.858-3.325 10.986-4.988l29.839-23.308 28.324-8.314c12.064-3.15 19.873-12.748 22.088-17.648l15.648-34.568 20.514-19.895.699-.642c9.208-8.46 11.685-20.566 11.365-25.962l-2.156-37.864z" fill="#cac0c9"/><path d="m314.258 166.981c0-14.352-5.274-26.429-15.823-36.172-10.578-9.772-23.924-14.644-40.038-14.644s-30.072 5.397-41.816 16.219c-11.772 10.793-17.659 23.454-17.659 37.981 0 13.069 5.974 19.603 17.892 19.603 7.401 0 12.734-4.171 15.969-12.573l3.38-8.956c4.021-10.822 10.782-16.219 20.31-16.219 4.837 0 8.888 1.663 12.21 4.959 3.293 3.296 4.954 7.234 4.954 11.756 0 6.272-3.555 14.352-10.636 24.183-4.342 5.834-13.783 17.211-28.295 34.13l-29.985 34.859c-4.837 5.834-7.256 10.589-7.256 14.294 0 5.163 1.807 9.364 5.449 12.573 3.613 3.238 8.247 4.842 13.9 4.842h84.389c4.983 0 9.179-1.692 12.559-5.076 3.409-3.88 5.099-8.139 5.099-12.835 0-4.522-1.778-8.547-5.333-12.106-3.876-3.384-8.13-5.076-12.822-5.076h-44.001c13.696-15.315 22.962-26.05 27.799-32.176l15.24-19.37c9.676-13.884 14.514-27.274 14.514-40.196z" fill="#e6e2e6"/><path d="m299.746 207.178c9.674-13.885 14.512-27.275 14.512-40.198 0-14.352-5.274-26.429-15.823-36.172s-23.807-14.615-39.863-14.644c1.778 11.96 2.943 24.27 3.38 36.872 2.506.788 4.75 2.159 6.731 4.142 3.293 3.296 4.954 7.234 4.954 11.756 0 6.272-3.555 14.352-10.636 24.183-.67.904-1.457 1.954-2.389 3.092-3.468 35.764-12.676 68.96-26.313 97.606h66.905c4.983 0 9.179-1.692 12.559-5.076 3.409-3.88 5.099-8.139 5.099-12.835 0-4.522-1.778-8.547-5.333-12.106-3.876-3.384-8.13-5.076-12.822-5.076h-44.001c13.696-15.315 22.962-26.05 27.799-32.176z" fill="#cac0c9"/></g></svg>