<?xml version="1.0" encoding="utf-8"?>
<!-- Generator: Adobe Illustrator 16.0.0, SVG Export Plug-In . SVG Version: 6.00 Build 0)  -->
<!DOCTYPE svg PUBLIC "-//W3C//DTD SVG 1.1//EN" "http://www.w3.org/Graphics/SVG/1.1/DTD/svg11.dtd">
<svg version="1.1" id="Layer_1" xmlns="http://www.w3.org/2000/svg" xmlns:xlink="http://www.w3.org/1999/xlink" x="0px" y="0px"
	 width="512px" height="512px" viewBox="0 0 512 512" enable-background="new 0 0 512 512" xml:space="preserve">
<path fill="#97DA7B" d="M6.717,370.1c-11.86,11.873-8.013,26.196,11.539,27.158l55.686,7.06
	c19.291,2.421,15.444,3.237,17.746,21.587l5.886,50.758c0.991,19.603,15.298,23.424,27.129,11.552l39.572-39.585l40.504-40.577
	c-3.526-1.313-7.139-3.296-10.403-6.097l-28.732-72.548l-87.74-30.571L6.717,370.1z"/>
<path fill="#68CA44" d="M130.939,423.862l-35.376,35.414l2.011,17.386c0.991,19.603,15.298,23.424,27.129,11.552l39.572-39.585
	l40.504-40.577c-3.526-1.313-7.139-3.296-10.403-6.097l-22.904-18.669L130.939,423.862z"/>
<path fill="#68CA44" d="M111.065,495.059c-1.44,0-2.834-0.247-4.15-0.753c-5.552-2.132-9-8.561-9.458-17.639l-2.017-17.435
	l0.04-0.04l75.984-76.066l0.083,0.067l22.904,18.67c3.029,2.599,6.517,4.643,10.37,6.078l0.172,0.063l-0.129,0.129l-40.505,40.577
	l-39.572,39.586C120.399,492.7,115.513,495.059,111.065,495.059L111.065,495.059z M95.688,459.318l2.004,17.329
	c0.454,8.987,3.847,15.342,9.308,17.438c5.293,2.033,11.88-0.195,17.62-5.956l39.572-39.586l40.376-40.447
	c-3.811-1.44-7.265-3.477-10.267-6.054l-22.819-18.602l-40.458,40.503l-0.083-0.083l0.083,0.083L95.688,459.318z"/>
<g>
	<path fill="#97DA7B" d="M307.206,408.051l40.533,40.577l39.543,39.585c11.859,11.873,26.168,8.051,27.158-11.552l5.856-50.758
		c2.302-18.35-1.544-19.165,17.775-21.587l55.656-7.06c19.582-0.963,23.399-15.286,11.568-27.157l-71.655-71.732l-95.753,9.714
		L307.206,408.051z"/>
	<path fill="#68CA44" d="M406.31,330.923l68.624,68.728l18.795-2.393c19.582-0.963,23.399-15.285,11.568-27.158l-71.655-71.731
		l-54.346,5.513L406.31,330.923z"/>
	<path fill="#FFD2B3" d="M271.072,20.631l26.662,12.602l37.766,2.421c5.362,0.35,17.047,4.288,24.303,14.469l17.775,23.599
		l32.287,19.749c4.604,2.8,13.142,11.727,14.832,24.154l4.808,29.171l19.465,32.555c2.769,4.638,6.179,16.511,1.923,28.267
		l-9.266,28.092l2.156,37.894c0.321,5.396-2.156,17.502-11.365,25.961L411.206,320.1l-15.648,34.568
		c-2.215,4.9-10.023,14.498-22.088,17.648l-28.323,8.313l-29.84,23.309c-4.254,3.324-15.59,8.168-27.77,5.338l-28.907-5.834
		l-37.211,6.709c-5.303,0.963-17.6-0.029-27.042-8.197l-22.904-18.669l-36.075-11.406c-5.129-1.604-15.532-8.227-20.136-19.865
		l-11.627-27.217L76.972,297.9c-3.788-3.851-9.966-14.555-8.625-27.012l2.302-29.492l-11.131-36.26
		c-1.603-5.163-2.098-17.532,4.837-27.946l15.706-25.029l6.935-37.31c0.991-5.309,6.294-16.482,17.251-22.462l25.497-14.877
		l23.428-29.784c3.322-4.23,13.2-11.668,25.672-11.843l29.46-1.284l34.56-15.461C247.761,16.955,259.941,14.971,271.072,20.631
		L271.072,20.631z"/>
	<path fill="#D39163" d="M255.716,365.782c83.894,0,151.906-68.085,151.906-152.098c0-83.983-68.012-152.069-151.906-152.069
		c-83.923,0-151.935,68.085-151.935,152.069C103.781,297.697,171.793,365.782,255.716,365.782z"/>
	<path fill="#B57A52" d="M407.621,213.685c0-68.727-45.545-126.806-108.079-145.622c29.373,42.035,47.498,99.707,47.498,163.387
		c0,34.479-5.303,67.21-14.861,96.644c-2.359,7.322-5.012,14.44-7.896,21.354c22.263-11.289,41.378-27.918,55.657-48.191
		C397.364,276.52,407.621,246.298,407.621,213.685z"/>
	<path fill="#E8AD85" d="M450.894,207.617c4.255-11.756,0.846-23.629-1.923-28.267l-19.465-32.555l-4.808-29.171
		c-1.69-12.427-10.229-21.353-14.832-24.154l-32.287-19.749l-17.775-23.599c-7.256-10.181-18.94-14.119-24.303-14.469l-37.765-2.421
		L271.073,20.63c-8.451-4.288-17.513-4.201-23.516-2.917c19.582,11.989,37.21,29.171,51.985,50.349
		c62.534,18.815,108.079,76.895,108.079,145.622c0,32.613-10.257,62.833-27.683,87.571c-14.278,20.274-33.395,36.901-55.657,48.19
		c-3.935,9.394-8.306,18.408-13.113,26.896c-6.818,12.077-14.453,23.162-22.816,33.109c5.771,1.196,11.336,0.671,15.969-0.525
		c4.926-1.284,8.858-3.325,10.986-4.987l29.839-23.309l28.324-8.313c12.064-3.15,19.873-12.748,22.088-17.648l15.648-34.568
		l20.514-19.895l0.699-0.643c9.208-8.459,11.685-20.565,11.365-25.961l-2.156-37.894L450.894,207.617z"/>
	<path fill="#FFD2B3" d="M314.199,247.406c0-15.812-5.857-27.829-17.631-36.026c-2.477-1.867-5.74-3.792-9.762-5.805
		c7.432-6.213,12.473-12.573,15.094-19.078c1.078-2.771,1.865-5.455,2.332-7.993c0.466-2.567,0.699-5.076,0.699-7.555
		c0-12.719-4.779-23.278-14.279-31.738c-9.529-8.43-21.418-12.66-35.638-12.66c-13.463,0-25.585,4.055-36.337,12.193
		c-10.753,8.139-16.143,17.094-16.143,26.837c0,4.813,1.486,8.926,4.429,12.339c3.235,3.238,7.11,4.872,11.598,4.872
		c5.274,0,10.141-2.946,14.628-8.839c6.644-8.664,13.463-13.01,20.427-13.01c4.633,0,8.362,1.4,11.131,4.171
		c3.118,2.655,4.662,6.126,4.662,10.472c0,8.664-5.653,14.177-16.959,16.511c-8.188,1.838-13.229,4.638-15.094,8.343
		c-1.224,2.334-1.836,5.192-1.836,8.605c0,11.318,6.032,16.978,18.096,16.978c14.86,1.4,22.292,7.818,22.292,19.282
		c0,5.893-2.069,10.677-6.148,14.411c-4.109,3.705-9.092,5.572-14.978,5.572c-8.684,0-15.881-4.026-21.593-12.077l-3.701-5.338
		c-4.05-5.893-8.917-8.839-14.628-8.839c-4.808,0-8.946,1.75-12.443,5.222c-3.468,3.501-5.216,7.701-5.216,12.66
		c0,9.451,5.741,19.282,17.192,29.521c10.986,9.597,24.361,14.41,40.155,14.41c16.872,0,31.034-5.193,42.486-15.578
		C308.488,274.885,314.199,262.283,314.199,247.406L314.199,247.406z"/>
	<path fill="#E8AD85" d="M297.036,285.27c11.452-10.385,17.163-22.986,17.163-37.863c0-15.812-5.857-27.829-17.631-36.026
		c-2.477-1.867-5.74-3.792-9.762-5.805c7.432-6.213,12.473-12.573,15.094-19.078c1.078-2.771,1.865-5.455,2.332-7.993
		c0.466-2.567,0.699-5.076,0.699-7.555c0-12.719-4.779-23.278-14.279-31.738c-6.965-6.155-15.153-10.064-24.623-11.727
		c2.535,16.19,3.876,33.022,3.876,50.32c0,17.59-1.37,34.743-4.021,51.224c6.673,3.18,10.024,8.605,10.024,16.277
		c0,5.893-2.069,10.677-6.148,14.411c-3.351,3.034-7.314,4.843-11.859,5.397c-3.526,12.252-7.78,24.008-12.676,35.15
		c3.001,0.379,6.119,0.584,9.325,0.584C271.422,300.848,285.584,295.655,297.036,285.27L297.036,285.27z"/>
</g>
</svg>
