<?xml version="1.0" encoding="utf-8"?>
<!-- Generator: Adobe Illustrator 16.0.0, SVG Export Plug-In . SVG Version: 6.00 Build 0)  -->
<!DOCTYPE svg PUBLIC "-//W3C//DTD SVG 1.1//EN" "http://www.w3.org/Graphics/SVG/1.1/DTD/svg11.dtd">
<svg version="1.1" id="Layer_1" xmlns="http://www.w3.org/2000/svg" xmlns:xlink="http://www.w3.org/1999/xlink" x="0px" y="0px"
	 width="84.77px" height="92.482px" viewBox="0 0 84.77 92.482" enable-background="new 0 0 84.77 92.482" xml:space="preserve">
<g>
	<path fill="none" d="M30.315,47.791c0.017-4.004-3.107-7.241-7.074-7.33c-3.833-0.086-7.214,3.252-7.265,7.174
		c-0.053,4.078,3.029,7.424,6.925,7.517C26.909,55.245,30.298,51.88,30.315,47.791z"/>
	<path fill="none" d="M60.777,40.707c-3.688-0.103-7,2.961-7.17,6.632c-0.196,4.239,2.871,7.868,6.754,7.988
		c3.648,0.113,7.071-3.208,7.225-7.01C67.748,44.282,64.645,40.814,60.777,40.707z"/>
	<path opacity="0.5" fill="#B5B5B5" d="M84.539,42.684c-0.101-6.608-1.005-13.048-4.782-18.76c-1.282-1.939-2.415-2.284-4.578-0.948
		c-3.218,1.986-6.769,3.436-10.177,5.114c-0.218-0.319-0.436-0.638-0.654-0.957c0.619-0.72,1.186-1.493,1.861-2.153
		c6.154-6.02,7.779-15.846,3.746-22.796c-1.536-2.646-2.217-2.629-4.994-1.321c-4.434,2.089-8.869,4.753-13.578,5.541
		c-6.398,1.07-13.055,0.717-19.603,0.77C14.104,7.318,0.657,20.198,0.167,37.859C-0.079,46.695-0.03,55.545,0.16,64.384
		c0.323,15.048,12.835,27.591,27.949,27.983c8.649,0.224,17.31,0.049,25.964,0.052c17.472,0.007,29.02-14.864,30.447-31.486
		C85.018,55.153,84.632,48.767,84.539,42.684z M15.977,47.634c0.051-3.922,3.432-7.26,7.265-7.174
		c3.967,0.089,7.09,3.326,7.074,7.33c-0.017,4.09-3.407,7.454-7.414,7.36C19.005,55.058,15.923,51.712,15.977,47.634z
		 M58.883,77.002c-1.053,0.737-2.88,0.632-4.31,0.465c-0.806-0.095-1.5-1.089-2.26-1.657c-6.573-4.93-13.954-4.909-20.52,0.049
		c-3.463,2.615-4.75,2.781-6.263,0.807c-1.54-2.01-0.824-3.834,2.312-6.329c4.249-3.381,8.822-5.902,14.64-5.924
		c6.585,0.19,11.948,3.263,16.44,8.135C60.328,74.07,60.456,75.902,58.883,77.002z M60.361,55.327
		c-3.883-0.12-6.95-3.749-6.754-7.988c0.17-3.671,3.482-6.734,7.17-6.632c3.868,0.107,6.971,3.575,6.809,7.61
		C67.432,52.119,64.009,55.44,60.361,55.327z"/>
	<path fill="none" d="M42.483,64.413c-5.818,0.021-10.391,2.543-14.64,5.924c-3.136,2.495-3.852,4.319-2.312,6.329
		c1.513,1.975,2.8,1.809,6.263-0.807c6.566-4.958,13.947-4.979,20.52-0.049c0.76,0.568,1.454,1.563,2.26,1.657
		c1.43,0.167,3.257,0.272,4.31-0.465c1.572-1.101,1.444-2.933,0.04-4.455C54.431,67.675,49.068,64.603,42.483,64.413z"/>
</g>
</svg>
