<?xml version="1.0" encoding="utf-8"?>
<!-- Generator: Adobe Illustrator 16.0.0, SVG Export Plug-In . SVG Version: 6.00 Build 0)  -->
<!DOCTYPE svg PUBLIC "-//W3C//DTD SVG 1.1//EN" "http://www.w3.org/Graphics/SVG/1.1/DTD/svg11.dtd">
<svg version="1.1" id="Capa_1" xmlns="http://www.w3.org/2000/svg" xmlns:xlink="http://www.w3.org/1999/xlink" x="0px" y="0px"
	 width="435.334px" height="452.333px" viewBox="38.333 59.667 435.334 452.333"
	 enable-background="new 38.333 59.667 435.334 452.333" xml:space="preserve">
<g>
	<g>
		<path fill="#FD8C02" d="M408.667,59.667H256l-10.667,207L256,512h88.917l60.006-68.744l68.744-60.007V124.666
			C473.667,88.825,444.508,59.667,408.667,59.667z"/>
		<path fill="#FDAE02" d="M38.333,59.667V447c0,35.841,29.159,65,65,65H256V59.667H38.333z"/>
	</g>
	<path fill="#FDAE02" d="M473.667,383.25h-128.75V512L473.667,383.25z"/>
	<path fill="#FFFBF5" d="M128.333,354H256v30H128.333V354z"/>
	<g>
		<path fill="#EFE2DD" d="M383.667,244v-30H256l-10.001,15L256,244H383.667z"/>
		<path fill="#FFFBF5" d="M128.333,214H256v30H128.333V214z"/>
	</g>
	<g>
		<path fill="#EFE2DD" d="M383.667,314v-30H256l-10.001,15L256,314H383.667z"/>
		<path fill="#FFFBF5" d="M128.333,284H256v30H128.333V284z"/>
	</g>
</g>
</svg>
