<?xml version="1.0" encoding="utf-8"?>
<!-- Generator: Adobe Illustrator 16.0.0, SVG Export Plug-In . SVG Version: 6.00 Build 0)  -->
<!DOCTYPE svg PUBLIC "-//W3C//DTD SVG 1.1//EN" "http://www.w3.org/Graphics/SVG/1.1/DTD/svg11.dtd">
<svg version="1.1" id="Capa_1" xmlns="http://www.w3.org/2000/svg" xmlns:xlink="http://www.w3.org/1999/xlink" x="0px" y="0px"
	 width="512px" height="512px" viewBox="0 0 512 512" enable-background="new 0 0 512 512" xml:space="preserve">
<path fill="#FFFFFF" d="M238.117,257.977c0,31.541,0.037,63.082-0.014,94.623c-0.03,19.649-9.863,29.266-29.76,29.279
	c-9.819,0.007-19.638,0.014-29.458-0.002c-18.833-0.033-29.128-10.216-29.231-29.197c-0.118-21.425-0.03-42.849-0.031-64.273
	c0-41.657-0.022-83.315,0.01-124.974c0.017-21.188,9.977-31.167,30.969-31.176c8.926-0.004,17.853-0.003,26.779-0.001
	c21.304,0.007,30.721,9.519,30.732,31.098C238.129,194.893,238.118,226.434,238.117,257.977z"/>
<path fill="#FFFFFF" d="M363.119,257.414c0,31.838,0.045,63.679-0.017,95.516c-0.034,19.146-9.968,28.926-29.194,28.947
	c-10.713,0.014-21.426,0.075-32.137-0.016c-15.604-0.133-26.459-10.373-27.039-25.947c-0.39-10.398-0.104-20.826-0.104-31.241
	c-0.004-53.263,0.621-106.536-0.3-159.783c-0.385-22.105,13.873-34.611,32.517-32.796c9.434,0.918,19.026,0.124,28.548,0.168
	c17.115,0.08,27.642,10.535,27.695,27.851C363.192,192.546,363.119,224.98,363.119,257.414z"/>
</svg>
