<?xml version="1.0" encoding="utf-8"?>
<!-- Generator: Adobe Illustrator 16.0.0, SVG Export Plug-In . SVG Version: 6.00 Build 0)  -->
<!DOCTYPE svg PUBLIC "-//W3C//DTD SVG 1.1//EN" "http://www.w3.org/Graphics/SVG/1.1/DTD/svg11.dtd">
<svg version="1.1" id="Capa_1" xmlns="http://www.w3.org/2000/svg" xmlns:xlink="http://www.w3.org/1999/xlink" x="0px" y="0px"
	 width="512px" height="512px" viewBox="0 0 512 512" enable-background="new 0 0 512 512" xml:space="preserve">
<path fill="#FFFFFF" d="M163.141,258.549c-0.001-32.342,0.951-64.722-0.343-97.012c-0.839-20.934,19.028-31.544,36.62-21.526
	c58.598,33.371,118.059,65.23,177.252,97.553c7.232,3.95,13.54,8.34,14.806,17.233c1.674,11.732-2.097,18.428-14.57,25.271
	c-51.672,28.349-103.376,56.639-155.063,84.953c-8.233,4.512-16.411,9.123-24.691,13.545c-17.274,9.227-33.848-0.588-33.957-20.348
	C163.01,324.997,163.143,291.773,163.141,258.549z"/>
</svg>
