<?xml version="1.0" encoding="utf-8"?>
<!-- Generator: Adobe Illustrator 16.0.0, SVG Export Plug-In . SVG Version: 6.00 Build 0)  -->
<!DOCTYPE svg PUBLIC "-//W3C//DTD SVG 1.1//EN" "http://www.w3.org/Graphics/SVG/1.1/DTD/svg11.dtd">
<svg version="1.1" id="Layer_1" xmlns="http://www.w3.org/2000/svg" xmlns:xlink="http://www.w3.org/1999/xlink" x="0px" y="0px"
	 width="519.342px" height="512px" viewBox="0 0 519.342 512" enable-background="new 0 0 519.342 512" xml:space="preserve">
<polygon fill="#C23D8E" points="129.835,512 0,256 129.835,0 389.507,0 519.342,256 389.507,512 "/>
<polygon fill="#EA8DBB" points="192.767,387.918 125.862,256 192.767,124.083 326.575,124.083 393.479,256 326.575,387.918 "/>
<polygon fill="#DD539E" points="129.835,0 192.767,124.083 326.575,124.083 389.507,0 "/>
<polygon fill="#EB9AC2" points="0,256 125.862,256 192.767,124.083 129.835,0 "/>
<polygon fill="#B5347E" points="326.575,124.083 389.507,0 519.342,256 393.479,256 "/>
<polygon fill="#9A2B6F" points="326.575,387.918 393.479,256 519.342,256 389.507,512 "/>
<polygon fill="#CA3282" points="129.835,512 192.767,387.918 326.575,387.918 389.507,512 "/>
</svg>
