<?xml version="1.0" encoding="utf-8"?>
<!-- Generator: Adobe Illustrator 16.0.0, SVG Export Plug-In . SVG Version: 6.00 Build 0)  -->
<!DOCTYPE svg PUBLIC "-//W3C//DTD SVG 1.1//EN" "http://www.w3.org/Graphics/SVG/1.1/DTD/svg11.dtd">
<svg version="1.1" id="Layer_1" xmlns="http://www.w3.org/2000/svg" xmlns:xlink="http://www.w3.org/1999/xlink" x="0px" y="0px"
	 width="275.504px" height="346.873px" viewBox="120.832 85.376 275.504 346.873"
	 enable-background="new 120.832 85.376 275.504 346.873" xml:space="preserve">
<polygon fill="#C6CACC" points="159.536,91 154.928,91 142.384,91 142.384,127.48 126,127.48 126,227.192 142.384,243.448 
	142.384,432.249 154.928,432.249 159.536,432.249 345.648,432.249 396.336,381.688 396.336,91 "/>
<g id="Layer_x0020_1_1_">
	<g>
		<g id="_395326176_1_">
			<path fill="#D1D8DE" d="M154.368,426.625h-17.152V85.376h17.152V426.625L154.368,426.625z"/>
			<path fill="#EFF2F4" d="M340.48,426.625H149.76V85.376h241.408v290.688L340.48,426.625z"/>
		</g>
		<path fill="#736654" d="M120.832,221.567v-99.711l16.384,16.128v99.84L120.832,221.567z"/>
		<path fill="#CFD8DF" d="M340.48,376.063h50.688l-50.688,50.562V376.063z"/>
		<path fill="#D60505" d="M120.832,221.567v-99.711h179.84v99.711H120.832z"/>
	</g>
</g>
<g enable-background="new    ">
	<path fill="#FFFFFF" d="M199.984,195.327h-12.035v-31.933l-8.769,20.609h-8.25l-8.768-20.609v31.933h-11.389v-48.174h13.944
		l10.677,23.779l10.644-23.779h13.945V195.327z"/>
	<path fill="#FFFFFF" d="M244.045,162.359c0,2.243-0.356,4.379-1.068,6.405c-0.711,2.028-1.736,3.721-3.073,5.08
		c-0.82,0.841-1.721,1.617-2.702,2.329s-2.064,1.316-3.251,1.812c-1.187,0.497-2.476,0.885-3.866,1.165s-2.949,0.421-4.676,0.421
		h-6.341v15.756h-12.101v-48.174h18.701c2.782,0,5.182,0.253,7.198,0.76s3.845,1.311,5.483,2.41c1.813,1.208,3.215,2.82,4.207,4.837
		C243.548,157.178,244.045,159.576,244.045,162.359z M231.621,162.65c0-1.359-0.324-2.529-0.971-3.511
		c-0.647-0.981-1.424-1.655-2.33-2.021c-1.143-0.496-2.238-0.782-3.283-0.857c-1.047-0.076-2.465-0.113-4.255-0.113h-1.715v14.43
		h0.841c1.144,0,2.222-0.011,3.236-0.033c1.014-0.021,1.897-0.097,2.652-0.226c0.646-0.108,1.332-0.318,2.055-0.631
		s1.277-0.664,1.666-1.052c0.819-0.798,1.375-1.629,1.666-2.491S231.621,164.117,231.621,162.65z"/>
	<path fill="#FFFFFF" d="M283.381,184.101h-6.503v11.356h-11.68v-11.356h-21.191v-8.994l20.804-27.953h12.067v28.276h6.503V184.101z
		 M265.198,175.43v-16.403l-12.197,16.403H265.198z"/>
</g>
<g>
	<path fill="#545454" d="M307.808,305.16l-67.142-48.808c-2.464-1.786-5.736-2.056-8.436-0.669
		c-2.725,1.381-4.421,4.177-4.421,7.201v97.582c0,3.056,1.696,5.842,4.421,7.22c1.151,0.582,2.408,0.873,3.678,0.873
		c1.659,0,3.337-0.53,4.758-1.573l67.142-48.765c2.12-1.561,3.358-3.969,3.358-6.529
		C311.176,309.086,309.906,306.689,307.808,305.16z"/>
</g>
</svg>
