<?xml version="1.0" encoding="utf-8"?>
<!-- Generator: Adobe Illustrator 16.0.0, SVG Export Plug-In . SVG Version: 6.00 Build 0)  -->
<!DOCTYPE svg PUBLIC "-//W3C//DTD SVG 1.1//EN" "http://www.w3.org/Graphics/SVG/1.1/DTD/svg11.dtd">
<svg version="1.1" id="Layer_1" xmlns="http://www.w3.org/2000/svg" xmlns:xlink="http://www.w3.org/1999/xlink" x="0px" y="0px"
	 width="275.504px" height="346.873px" viewBox="120.832 85.376 275.504 346.873"
	 enable-background="new 120.832 85.376 275.504 346.873" xml:space="preserve">
<polygon fill="#C6CACC" points="159.536,91 154.928,91 142.384,91 142.384,127.48 126,127.48 126,227.192 142.384,243.448 
	142.384,432.249 154.928,432.249 159.536,432.249 345.648,432.249 396.336,381.688 396.336,91 "/>
<g id="Layer_x0020_1_1_">
	<g>
		<g id="_395326176_1_">
			<path fill="#D1D8DE" d="M154.368,426.625h-17.152V85.376h17.152V426.625L154.368,426.625z"/>
			<path fill="#EFF2F4" d="M340.48,426.625H149.76V85.376h241.408v290.688L340.48,426.625z"/>
		</g>
		<path fill="#736654" d="M120.832,221.567v-99.711l16.384,16.128v99.84L120.832,221.567z"/>
		<path fill="#CFD8DF" d="M340.48,376.063h50.688l-50.688,50.562V376.063z"/>
		<path fill="#03ADD8" d="M120.832,221.567v-99.711h179.84v99.711H120.832z"/>
	</g>
</g>
<g enable-background="new    ">
	<path fill="#FFFFFF" d="M197.984,195.327h-12.035v-31.933l-8.769,20.609h-8.25l-8.768-20.609v31.933h-11.389v-48.174h13.944
		l10.677,23.779l10.644-23.779h13.945V195.327z"/>
	<path fill="#FFFFFF" d="M242.045,162.359c0,2.243-0.356,4.379-1.068,6.405c-0.711,2.028-1.736,3.721-3.073,5.08
		c-0.82,0.841-1.721,1.617-2.702,2.329s-2.064,1.316-3.251,1.812c-1.187,0.497-2.476,0.885-3.866,1.165s-2.949,0.421-4.676,0.421
		h-6.341v15.756h-12.101v-48.174h18.701c2.782,0,5.182,0.253,7.198,0.76s3.845,1.311,5.483,2.41c1.813,1.208,3.215,2.82,4.207,4.837
		C241.548,157.178,242.045,159.576,242.045,162.359z M229.621,162.65c0-1.359-0.324-2.529-0.971-3.511
		c-0.647-0.981-1.424-1.655-2.33-2.021c-1.143-0.496-2.238-0.782-3.283-0.857c-1.047-0.076-2.465-0.113-4.255-0.113h-1.715v14.43
		h0.841c1.144,0,2.222-0.011,3.236-0.033c1.014-0.021,1.897-0.097,2.652-0.226c0.646-0.108,1.332-0.318,2.055-0.631
		s1.277-0.664,1.666-1.052c0.819-0.798,1.375-1.629,1.666-2.491S229.621,164.117,229.621,162.65z"/>
	<path fill="#FFFFFF" d="M279.634,180.735c0,2.352-0.437,4.497-1.311,6.438s-2.151,3.592-3.833,4.95
		c-1.705,1.359-3.705,2.399-6.002,3.122s-5.096,1.084-8.396,1.084c-3.752,0-6.972-0.313-9.657-0.938
		c-2.685-0.625-4.869-1.326-6.552-2.103v-10.45h1.165c1.769,1.122,3.845,2.092,6.228,2.912c2.384,0.819,4.557,1.229,6.52,1.229
		c1.165,0,2.432-0.102,3.802-0.307s2.519-0.652,3.446-1.343c0.732-0.539,1.32-1.202,1.763-1.99c0.442-0.787,0.663-1.903,0.663-3.349
		c0-1.423-0.313-2.518-0.938-3.283c-0.627-0.766-1.457-1.321-2.492-1.666c-1.035-0.367-2.275-0.571-3.721-0.615
		c-1.445-0.043-2.717-0.064-3.817-0.064h-2.071v-8.477h1.91c1.466,0,2.814-0.065,4.043-0.194c1.23-0.13,2.275-0.389,3.139-0.776
		c0.863-0.409,1.537-0.981,2.022-1.715s0.728-1.726,0.728-2.977c0-0.971-0.227-1.764-0.68-2.378
		c-0.452-0.615-1.014-1.095-1.682-1.439c-0.777-0.389-1.683-0.647-2.718-0.776c-1.035-0.13-1.92-0.194-2.653-0.194
		c-1.186,0-2.395,0.141-3.623,0.42c-1.229,0.281-2.427,0.637-3.592,1.068c-0.906,0.345-1.855,0.792-2.847,1.343
		c-0.993,0.55-1.726,0.965-2.2,1.245h-1.003v-10.32c1.661-0.712,3.898-1.396,6.714-2.055c2.814-0.658,5.688-0.987,8.621-0.987
		c2.869,0,5.355,0.249,7.458,0.744c2.103,0.497,3.898,1.22,5.387,2.168c1.64,1.015,2.868,2.303,3.688,3.866
		c0.819,1.564,1.229,3.327,1.229,5.29c0,2.739-0.793,5.139-2.378,7.198c-1.586,2.061-3.672,3.393-6.261,3.996v0.453
		c1.144,0.173,2.259,0.464,3.349,0.873c1.089,0.41,2.152,1.079,3.188,2.006c0.971,0.842,1.773,1.926,2.41,3.252
		C279.315,177.322,279.634,178.902,279.634,180.735z"/>
</g>
<g>
	<g>
		<path fill="#545454" d="M304.431,313.278c0-2.311-1.767-4.076-4.077-4.076c-2.31,0-4.077,1.766-4.077,4.076
			c0,15.901-12.911,28.813-28.813,28.813s-28.813-12.912-28.813-28.813c0-2.311-1.766-4.076-4.076-4.076s-4.078,1.766-4.078,4.076
			c0,18.892,14.135,34.793,32.891,36.832v10.872h-14.814c-2.311,0-4.077,1.768-4.077,4.078c0,2.31,1.767,4.077,4.077,4.077h37.783
			c2.311,0,4.077-1.768,4.077-4.077c0-2.311-1.767-4.078-4.077-4.078h-14.814V350.11
			C290.297,348.071,304.431,332.17,304.431,313.278z"/>
	</g>
</g>
<g>
	<g>
		<path fill="#545454" d="M267.464,253.614c-12.504,0-22.696,10.193-22.696,22.697v36.831c0,12.64,10.192,22.697,22.696,22.833
			c12.504,0,22.697-10.193,22.697-22.697v-36.967C290.161,263.808,279.968,253.614,267.464,253.614z"/>
	</g>
</g>
</svg>
