<?xml version="1.0" encoding="utf-8"?>
<!-- Generator: Adobe Illustrator 16.0.0, SVG Export Plug-In . SVG Version: 6.00 Build 0)  -->
<!DOCTYPE svg PUBLIC "-//W3C//DTD SVG 1.1//EN" "http://www.w3.org/Graphics/SVG/1.1/DTD/svg11.dtd">
<svg version="1.1" id="Capa_1" xmlns="http://www.w3.org/2000/svg" xmlns:xlink="http://www.w3.org/1999/xlink" x="0px" y="0px"
	 width="612px" height="554.755px" viewBox="0 118.623 612 554.755" enable-background="new 0 118.623 612 554.755"
	 xml:space="preserve">
<path fill="#353535" d="M386.013,164.877l213.646,370.048c7.836,13.57,12.341,29.304,12.341,46.099
	c0,51.004-41.349,92.354-92.354,92.354H306L232.117,396L306,118.623C340.21,118.623,370.053,137.237,386.013,164.877z"/>
<path fill="#494C4F" d="M225.987,164.877L12.339,534.925C4.505,548.495,0,564.229,0,581.023c0,51.004,41.348,92.354,92.354,92.354
	H306V118.623C271.79,118.623,241.947,137.237,225.987,164.877z"/>
<path fill="#F9A138" d="M567.67,553.396L354.024,183.352c-9.63-16.686-27.313-27.214-46.436-27.755L490.314,636.44h29.332
	c30.551,0,55.412-24.86,55.412-55.412C575.059,571.325,572.497,561.77,567.67,553.396z"/>
<path fill="#FCC332" d="M531.738,553.396c4.174,8.373,6.378,17.929,6.378,27.632c0,30.551-21.438,55.412-47.803,55.412H92.354
	c-30.551,0-55.412-24.861-55.412-55.412c0-9.703,2.562-19.259,7.388-27.632l213.646-370.045
	c9.901-17.141,28.298-27.792,48.024-27.792c0.529,0,1.059,0.012,1.589,0.037c16.414,0.641,31.572,11.144,39.835,27.755
	L531.738,553.396z"/>
<path fill="#353535" d="M306,513.297v61.569c17.006,0,30.785-13.779,30.785-30.785C336.785,527.077,323.006,513.297,306,513.297z"/>
<path fill="#494C4F" d="M306,513.297c3.398,0,6.157,13.78,6.157,30.785c0,17.006-2.759,30.786-6.157,30.786
	c-17.006,0-30.785-13.78-30.785-30.786C275.215,527.077,288.994,513.297,306,513.297z"/>
<path fill="#353535" d="M306,248.553v227.808c17.006,0,30.785-13.792,30.785-30.786V279.339
	C336.785,262.333,323.006,248.553,306,248.553z"/>
<path fill="#494C4F" d="M306,248.553c3.398,0,6.157,13.78,6.157,30.786v166.236c0,16.993-2.759,30.786-6.157,30.786
	c-17.006,0-30.785-13.792-30.785-30.786V279.339C275.215,262.333,288.994,248.553,306,248.553z"/>
</svg>
