<?xml version="1.0" encoding="utf-8"?>
<!-- Generator: Adobe Illustrator 16.0.0, SVG Export Plug-In . SVG Version: 6.00 Build 0)  -->
<!DOCTYPE svg PUBLIC "-//W3C//DTD SVG 1.1//EN" "http://www.w3.org/Graphics/SVG/1.1/DTD/svg11.dtd">
<svg version="1.1" id="Layer_1" xmlns="http://www.w3.org/2000/svg" xmlns:xlink="http://www.w3.org/1999/xlink" x="0px" y="0px"
	 width="176px" height="124px" viewBox="8 34 176 124" enable-background="new 8 34 176 124" xml:space="preserve">
<g>
	<path fill="#FF0000" d="M180.322,53.363c-2.024-7.622-7.987-13.624-15.561-15.661C151.037,34,96,34,96,34s-55.037,0-68.762,3.702
		c-7.573,2.037-13.537,8.039-15.561,15.661C8,67.177,8,96,8,96s0,28.822,3.677,42.639c2.024,7.62,7.988,13.622,15.561,15.66
		C40.963,158,96,158,96,158s55.037,0,68.762-3.701c7.573-2.038,13.536-8.04,15.562-15.66C184,124.822,184,96,184,96
		S184,67.177,180.322,53.363"/>
	<polygon fill="#FFFFFF" points="78,122.169 124,96.001 78,69.831 	"/>
</g>
</svg>
