<?xml version="1.0" encoding="utf-8"?>
<!-- Generator: Adobe Illustrator 16.0.0, SVG Export Plug-In . SVG Version: 6.00 Build 0)  -->
<!DOCTYPE svg PUBLIC "-//W3C//DTD SVG 1.1//EN" "http://www.w3.org/Graphics/SVG/1.1/DTD/svg11.dtd">
<svg version="1.1" id="Layer_1" xmlns="http://www.w3.org/2000/svg" xmlns:xlink="http://www.w3.org/1999/xlink" x="0px" y="0px"
	 width="400px" height="400px" viewBox="0 0 400 400" enable-background="new 0 0 400 400" xml:space="preserve">
<rect fill="#888888" width="400" height="400"/>
<path fill-rule="evenodd" clip-rule="evenodd" fill="#FFFFFF" d="M152.571,163.415c0.004-12.553-0.11-25.109,0.028-37.66
	c0.276-25.031,20.226-46.194,44.099-46.944c26.893-0.845,48.659,17.574,49.601,43.932c0.986,27.575,0.921,55.246-0.16,82.817
	c-0.775,19.783-12.512,33.298-30.832,39.934c-18.234,6.605-34.88,2.551-48.896-11.056c-9.505-9.227-13.919-20.617-13.856-33.831
	C152.614,188.208,152.567,175.811,152.571,163.415z"/>
<path fill="#FFFFFF" d="M198.145,245.419c25.084,0,45.419-20.335,45.419-45.419v-75.698c0-25.084-20.335-45.418-45.419-45.418
	c-25.084,0-45.418,20.334-45.418,45.418V200C152.726,225.084,173.06,245.419,198.145,245.419z M273.842,169.721h-7.569
	c-4.183,0-7.569,3.388-7.569,7.57V200c0,35.389-30.512,63.785-66.61,60.265c-31.462-3.07-54.507-31.353-54.507-62.961v-20.013
	c0-4.182-3.388-7.57-7.57-7.57h-7.57c-4.182,0-7.57,3.388-7.57,7.57v19c0,42.409,30.265,80.216,71.913,85.959v16.157h-26.494
	c-4.183,0-7.57,3.387-7.57,7.569v7.57c0,4.182,3.387,7.569,7.57,7.569h75.697c4.183,0,7.57-3.388,7.57-7.569v-7.57
	c0-4.183-3.388-7.569-7.57-7.569h-26.494V282.43c40.551-5.563,71.913-40.37,71.913-82.43v-22.709
	C281.412,173.108,278.024,169.721,273.842,169.721z"/>
</svg>
