<?xml version="1.0" encoding="utf-8"?>
<!-- Generator: Adobe Illustrator 16.0.0, SVG Export Plug-In . SVG Version: 6.00 Build 0)  -->
<!DOCTYPE svg PUBLIC "-//W3C//DTD SVG 1.1//EN" "http://www.w3.org/Graphics/SVG/1.1/DTD/svg11.dtd">
<svg version="1.1" id="Layer_1" focusable="false" xmlns="http://www.w3.org/2000/svg" xmlns:xlink="http://www.w3.org/1999/xlink"
	 x="0px" y="0px" width="760.656px" height="800px" viewBox="-74.328 -4 760.656 800"
	 enable-background="new -74.328 -4 760.656 800" xml:space="preserve">
<g>
	<path fill="#FFFFFF" d="M567.347,139.737c-26.37-24.859-67.865-23.59-92.688,2.778c-24.834,26.37-23.591,67.866,2.78,92.688
		c50.128,47.208,77.74,111.31,77.74,180.469c0,137.396-111.783,249.182-249.182,249.182C168.6,664.854,56.82,553.068,56.82,415.672
		c0-69.159,27.606-133.261,77.741-180.469c26.37-24.82,27.612-66.315,2.78-92.688c-24.82-26.383-66.336-27.638-92.688-2.778
		C-30.962,210.933-74.328,311.509-74.328,415.672C-74.328,625.38,96.286,796,306,796c209.708,0,380.328-170.62,380.328-380.328
		C686.328,311.509,642.963,210.933,567.347,139.737z"/>
	<path fill="#FFFFFF" d="M306,415.672c36.216,0,65.573-23.489,65.573-52.459V48.459C371.573,19.489,342.216-4,306-4
		s-65.573,23.489-65.573,52.459v314.754C240.427,392.183,269.784,415.672,306,415.672z"/>
</g>
</svg>
