<?xml version="1.0" encoding="utf-8"?>
<!-- Generator: Adobe Illustrator 16.0.0, SVG Export Plug-In . SVG Version: 6.00 Build 0)  -->
<!DOCTYPE svg PUBLIC "-//W3C//DTD SVG 1.1//EN" "http://www.w3.org/Graphics/SVG/1.1/DTD/svg11.dtd">
<svg version="1.1" id="Layer_1" focusable="false" xmlns="http://www.w3.org/2000/svg" xmlns:xlink="http://www.w3.org/1999/xlink"
	 x="0px" y="0px" width="607.565px" height="608.351px" viewBox="1.969 91.299 607.565 608.351"
	 enable-background="new 1.969 91.299 607.565 608.351" xml:space="preserve">
<path fill-rule="evenodd" clip-rule="evenodd" fill="#FFFFFF" d="M382.814,166.299c0-12.564-0.199-24.455,0.048-36.333
	c0.35-16.817,7.838-28.678,23.864-35.371c16.27-6.797,29.814-2.723,41.624,8.926c24.395,24.06,48.814,48.109,72.636,72.73
	c17.148,17.724,17.104,39.846-0.082,57.594c-23.835,24.611-48.289,48.623-72.626,72.742c-11.802,11.694-25.692,16.001-41.658,9.606
	c-15.931-6.384-23.308-18.896-23.73-35.638c-0.299-11.917-0.058-23.844-0.058-37.967c-22.461,0-42.562,0-62.664,0
	c-42.513,0.003-85.03-0.19-127.542,0.052c-61.103,0.342-107.646,41.896-114.971,102.294c-0.609,5.035-0.989,10.093-1.59,15.131
	c-2.711,22.733-17.8,36.073-39.384,34.876c-21.184-1.175-35.147-16.563-34.702-39.604c0.849-43.896,14.267-83.611,42.29-117.672
	c37.703-45.829,87.096-68.854,145.946-69.997c58.354-1.131,116.749-0.227,175.126-0.294
	C370.302,167.368,375.264,166.783,382.814,166.299z"/>
<path fill-rule="evenodd" clip-rule="evenodd" fill="#FFFFFF" d="M228.587,544.994c74.344,0,146.15,4.176,217.185-1.432
	c49.244-3.884,82.104-47.042,87.914-96.42c0.667-5.67,1.027-11.374,1.762-17.033c2.915-22.456,18.542-35.676,40.136-34.056
	c20.39,1.529,33.505,16.422,33.922,38.518c1.46,77.502-50.987,152.747-126.003,177.135c-21.905,7.117-45.741,10.756-68.813,11.341
	c-60.83,1.536-121.724,0.516-186.076,0.516c0,12.888,0.081,24.618-0.018,36.35c-0.149,17.609-7.646,29.953-24.629,36.739
	c-16.504,6.597-29.76,1.846-41.461-9.731c-24.357-24.104-48.834-48.103-72.597-72.779c-16.304-16.938-16.37-39.314-0.104-56.203
	c24.21-25.132,49.12-49.594,73.994-74.078c11.862-11.678,25.892-15.455,41.774-8.724c15.893,6.733,22.744,19.42,22.983,36.118
	C228.725,523.11,228.587,534.976,228.587,544.994z"/>
</svg>
