<?xml version="1.0" encoding="utf-8"?>
<!-- Generator: Adobe Illustrator 16.0.0, SVG Export Plug-In . SVG Version: 6.00 Build 0)  -->
<!DOCTYPE svg PUBLIC "-//W3C//DTD SVG 1.1//EN" "http://www.w3.org/Graphics/SVG/1.1/DTD/svg11.dtd">
<svg version="1.1" id="Layer_1" xmlns="http://www.w3.org/2000/svg" xmlns:xlink="http://www.w3.org/1999/xlink" x="0px" y="0px"
	 width="400px" height="400px" viewBox="0 0 400 400" enable-background="new 0 0 400 400" xml:space="preserve">
<rect fill="#74B20E" width="400" height="400"/>
<path fill="#FFFFFF" d="M180.127,143.362c-2.725-31.361-35.443-46.748-36.826-47.379c-1.296-0.607-2.747-0.802-4.155-0.554
	c-37.771,6.266-43.452,28.25-43.681,29.163c-0.311,1.272-0.261,2.606,0.143,3.854c45.051,139.781,138.683,165.683,169.457,174.207
	c2.371,0.662,4.328,1.186,5.806,1.674c1.7,0.551,3.541,0.443,5.159-0.301c0.941-0.433,23.183-10.907,28.617-45.082
	c0.238-1.491,0-3.024-0.683-4.362c-0.487-0.948-12.121-23.085-44.386-30.905c-2.217-0.572-4.578-0.015-6.309,1.491
	c-10.176,8.698-24.234,17.962-30.307,18.918c-40.667-19.88-63.379-58.041-64.235-65.275c-0.498-4.071,8.824-18.359,19.544-29.978
	C179.635,147.353,180.308,145.366,180.127,143.362z"/>
</svg>
