<?xml version="1.0" encoding="utf-8"?>
<!-- Generator: Adobe Illustrator 16.0.0, SVG Export Plug-In . SVG Version: 6.00 Build 0)  -->
<!DOCTYPE svg PUBLIC "-//W3C//DTD SVG 1.1//EN" "http://www.w3.org/Graphics/SVG/1.1/DTD/svg11.dtd">
<svg version="1.1" id="Layer_1" xmlns="http://www.w3.org/2000/svg" xmlns:xlink="http://www.w3.org/1999/xlink" x="0px" y="0px"
	 width="400px" height="400px" viewBox="0 0 400 400" enable-background="new 0 0 400 400" xml:space="preserve">
<rect fill="#DD2222" width="400" height="400"/>
<path fill="#FFFFFF" d="M254.887,224.293c24.723,19.485,58.339,6.174,59.746,5.598c1.329-0.528,2.465-1.453,3.248-2.648
	c21.294-31.82,9.16-51.013,8.652-51.804c-0.715-1.098-1.722-1.975-2.907-2.535c-132.725-62.868-215.711-12.359-242.993,4.234
	c-2.106,1.275-3.828,2.342-5.197,3.085c-1.564,0.861-2.747,2.278-3.312,3.966c-0.329,0.982-7.924,24.364,13.265,51.724
	c0.923,1.194,2.204,2.07,3.646,2.489c1.025,0.294,25.125,6.971,52.915-11.191c1.935-1.225,3.146-3.326,3.232-5.619
	c0.628-13.372,3.501-29.961,6.962-35.042c42.333-16.029,85.697-6.455,91.556-2.125c3.308,2.424,7.34,19,8.469,34.77
	C252.314,221.201,253.302,223.053,254.887,224.293z"/>
</svg>
