<?xml version="1.0" encoding="utf-8"?>
<!-- Generator: Adobe Illustrator 16.0.0, SVG Export Plug-In . SVG Version: 6.00 Build 0)  -->
<!DOCTYPE svg PUBLIC "-//W3C//DTD SVG 1.1//EN" "http://www.w3.org/Graphics/SVG/1.1/DTD/svg11.dtd">
<svg version="1.1" id="Layer_1" xmlns="http://www.w3.org/2000/svg" xmlns:xlink="http://www.w3.org/1999/xlink" x="0px" y="0px"
	 width="512px" height="512px" viewBox="0 0 512 512" enable-background="new 0 0 512 512" xml:space="preserve">
<path fill="#F3D55B" d="M463.553,132.589v295.358c-0.257,11.702-9.92,20.999-21.622,20.81H106.586V20.808
	c0.257-11.703,9.92-21,21.622-20.806h222.338l0.816,117.391c0.059,8.408,6.892,15.196,15.3,15.196H463.553z"/>
<path fill="#F9EAB0" d="M463.553,122.493v10.096h-96.891c-8.408,0-15.241-6.788-15.3-15.196L350.546,0.002h7.14L463.553,122.493z"/>
<path fill="#4482C3" d="M123.586,264.831v247.171H101.52c-7.313,0-13.242-5.93-13.242-13.242v-75.035H13.243
	c-7.313,0-13.242-5.93-13.242-13.242v-44.137c0-7.313,5.93-13.242,13.242-13.242h75.034v-75.034c0-7.313,5.93-13.238,13.242-13.238
	H123.586z"/>
<path fill="#285680" d="M247.172,366.345v44.137c0,7.313-5.926,13.242-13.238,13.242h-75.035v75.035
	c0,7.313-5.93,13.242-13.242,13.242h-22.07V264.831h22.07c7.313,0,13.242,5.926,13.242,13.238v75.034h75.035
	C241.246,353.103,247.172,359.033,247.172,366.345z"/>
</svg>
