<?xml version="1.0" encoding="utf-8"?>
<!-- Generator: Adobe Illustrator 16.0.0, SVG Export Plug-In . SVG Version: 6.00 Build 0)  -->
<!DOCTYPE svg PUBLIC "-//W3C//DTD SVG 1.1//EN" "http://www.w3.org/Graphics/SVG/1.1/DTD/svg11.dtd">
<svg version="1.1" id="Layer_1" xmlns="http://www.w3.org/2000/svg" xmlns:xlink="http://www.w3.org/1999/xlink" x="0px" y="0px"
	 width="290px" height="269.268px" viewBox="0 0 290 269.268" enable-background="new 0 0 290 269.268" xml:space="preserve">
<path fill="#03ADD8" d="M65.886,244.948l-5.834,4.688c-1.666,1.303-3.698,2.032-5.781,2.032c-5.104,0-9.271-4.167-9.271-9.271
	V101.667c0-55.208,44.792-100,100-100c55.208,0,100,44.792,100,100v140.729c0,5.104-4.167,9.271-9.271,9.271
	c-2.083,0-4.115-0.729-5.782-2.032l-5.832-4.688c-6.979-5.572-17.084-4.688-22.97,2.032l-15.886,18.229
	c-1.718,1.979-4.271,3.125-6.927,3.125c-2.655,0-5.156-1.146-6.927-3.125l-13.854-15.885c-6.614-7.604-18.437-7.604-25.104,0
	l-13.854,15.885c-1.719,1.979-4.271,3.125-6.927,3.125c-2.656,0-5.156-1.146-6.927-3.125L88.854,246.98
	C82.969,240.26,72.865,239.375,65.886,244.948z M128.333,101.667c0-9.205-7.462-16.667-16.667-16.667
	C102.462,85,95,92.462,95,101.667c0,9.205,7.462,16.667,16.667,16.667C120.872,118.334,128.333,110.872,128.333,101.667z
	 M178.333,118.334c9.205,0,16.667-7.462,16.667-16.667C195,92.462,187.538,85,178.333,85c-9.204,0-16.666,7.462-16.666,16.667
	C161.667,110.872,169.129,118.334,178.333,118.334z"/>
</svg>
