<?xml version="1.0" encoding="iso-8859-1"?>
<!-- Generator: Adobe Illustrator 19.0.0, SVG Export Plug-In . SVG Version: 6.00 Build 0)  -->
<svg version="1.1" id="Capa_1" xmlns="http://www.w3.org/2000/svg" xmlns:xlink="http://www.w3.org/1999/xlink" x="0px" y="0px"
	 viewBox="0 0 511.999 511.999" style="enable-background:new 0 0 511.999 511.999;" xml:space="preserve">
<path style="fill:#5EAC24;" d="M445.213,253.369c0,0-42.129-41.358-112.173-47.953c69.744-6.743,111.672-47.909,111.672-47.909
	c22.362-22.373,22.362-58.623,0-80.995c-10.348-10.348-25.301-14.27-38.847-15.036c-1.407-0.083-2.68-0.631-3.684-1.5
	c-1.242-1.056-2.07-2.608-2.163-4.346c-0.776-13.546-4.698-28.509-15.046-38.857c-22.362-22.362-58.623-22.362-80.985,0
	c0,0-42.646,43.431-48.237,115.425c-5.591-71.993-48.237-115.425-48.237-115.425c-22.362-22.362-58.623-22.362-80.985,0
	c-10.348,10.348-14.27,25.312-15.046,38.857c-0.093,1.738-0.921,3.291-2.163,4.346c-1.004,0.869-2.277,1.418-3.684,1.5
	c-13.546,0.766-28.499,4.688-38.847,15.036c-4.16,4.16-7.544,8.796-10.152,13.732c-11.435,21.628-8.051,49.05,10.152,67.263
	c0,0,42.017,41.251,111.89,47.929c-69.874,6.678-111.891,47.929-111.891,47.929c-22.362,22.373-22.362,58.623,0,80.995
	c10.348,10.348,25.301,14.27,38.847,15.036c1.407,0.083,2.68,0.631,3.684,1.501c1.242,1.055,2.07,2.608,2.163,4.346
	c0.776,13.546,4.698,28.509,15.046,38.857c22.362,22.362,58.623,22.362,80.985,0c0,0,23.094-23.528,37.521-64.644
	c3.589,24.844,11.32,58.519,27.372,101.411c9.748,26.05,25.381,49.258,45.208,67.122c5.489,4.944,10.696,8.971,15.476,11.971
	c2.201,1.38,4.648,2.04,7.069,2.04c4.433,0,8.768-2.211,11.299-6.244c3.911-6.234,2.027-14.456-4.206-18.367
	c-3.483-2.184-7.454-5.28-11.803-9.197c-16.663-15.01-29.833-34.604-38.087-56.663c-10.034-26.81-16.602-49.961-20.874-69.38
	c13.277,26.959,27.993,41.947,27.993,41.947c22.373,22.362,58.623,22.362,80.995,0c10.348-10.348,14.27-25.301,15.036-38.847
	c0.083-1.407,0.631-2.68,1.5-3.684c1.056-1.242,2.608-2.07,4.346-2.163c13.546-0.776,28.509-4.698,38.857-15.046
	C467.576,311.992,467.576,275.731,445.213,253.369z M287.227,206.305c-5.691,0.745-10.938,2.856-15.408,6.002
	c-7.73,5.433-13.111,13.96-14.405,23.811c-0.674,5.139-1.133,10.17-1.42,15.103c-0.287-4.934-0.746-9.967-1.42-15.108
	c-0.745-5.692-2.856-10.938-6.002-15.408c-5.433-7.73-13.96-13.111-23.811-14.405c-2.621-0.344-5.21-0.624-7.778-0.865
	c2.567-0.24,5.158-0.522,7.778-0.865c9.8-1.283,18.296-6.623,23.728-14.291c0.031-0.031,0.052-0.072,0.083-0.114
	c3.146-4.47,5.257-9.717,6.002-15.408c0.508-3.875,0.889-7.688,1.173-11.446c0.286,3.759,0.665,7.571,1.173,11.446
	c0.745,5.691,2.856,10.938,6.002,15.408c5.433,7.73,13.96,13.111,23.811,14.405c2.713,0.356,5.395,0.647,8.05,0.892
	C292.29,205.699,289.774,205.971,287.227,206.305z"/>
<path style="fill:#6DC82A;" d="M351.455,505.749c-2.525,4.036-6.861,6.25-11.3,6.25c-2.421,0-4.864-0.662-7.068-2.039
	c-4.781-3.001-9.986-7.026-15.471-11.973c-19.827-17.861-35.463-41.072-45.211-67.118c-10.162-27.164-16.992-50.623-21.545-70.492
	c-11.921-52-8.248-79.35-7.999-83.789c0.393-7.347,6.675-12.987,14.022-12.573c7.347,0.393,12.977,6.675,12.583,14.022
	c-0.083,1.428-6.675,48.854,26.16,138.769c0.559,1.563,1.149,3.135,1.738,4.719c8.248,22.062,21.421,41.652,38.081,56.667
	c4.346,3.912,8.32,7.006,11.807,9.2C353.483,491.293,355.366,499.52,351.455,505.749z"/>
<path style="fill:#5EAC24;" d="M295.626,416.806c-10.822-15.414-25.896-41.887-32.805-77.102c-0.728-3.711-6.016-3.72-6.745-0.009
	c-1.427,7.275-3.203,14.176-5.217,20.683c-11.921-52-8.248-79.35-7.999-83.789c0.393-7.347,6.675-12.987,14.022-12.573
	c7.347,0.393,12.977,6.675,12.583,14.022C269.383,279.465,262.791,326.891,295.626,416.806z"/>
<path style="fill:#6DC82A;" d="M256.923,174.758c0.745,5.692,2.856,10.938,6.002,15.408c5.433,7.73,13.96,13.111,23.811,14.405
	c97.087,12.728,157.976-47.064,157.976-47.064c22.362-22.373,22.362-58.623,0-80.995c-10.348-10.348-25.301-14.27-38.847-15.036
	c-1.407-0.083-2.68-0.631-3.684-1.5c-1.242-1.056-2.07-2.608-2.163-4.346c-0.776-13.546-4.698-28.509-15.046-38.857
	c-22.362-22.362-58.623-22.362-80.985,0C303.986,16.772,244.194,77.66,256.923,174.758z"/>
<g>
	<path style="fill:#4E901E;" d="M402.177,59.976l-139.245,130.18l-0.01,0.01c-3.146-4.47-5.257-9.717-6.002-15.408
		c-12.728-97.097,47.064-157.986,47.064-157.986c20.924-20.924,54.018-22.269,76.504-4.036c1.542,1.252,3.042,2.597,4.481,4.036
		c10.348,10.348,14.27,25.312,15.046,38.857C400.108,57.368,400.936,58.92,402.177,59.976z"/>
	<path style="fill:#4E901E;" d="M254.575,174.758c-0.745,5.692-2.856,10.938-6.002,15.408c-0.031,0.041-0.052,0.083-0.083,0.114
		c-5.433,7.668-13.929,13.008-23.728,14.291c-97.087,12.728-157.976-47.064-157.976-47.064
		C48.583,139.295,45.2,111.872,56.634,90.244c2.608-4.936,5.992-9.572,10.152-13.732c10.348-10.348,25.301-14.27,38.847-15.036
		c1.407-0.083,2.68-0.631,3.684-1.5c1.242-1.056,2.07-2.608,2.163-4.346c0.776-13.546,4.698-28.509,15.046-38.857
		c22.362-22.362,58.623-22.362,80.985,0C207.511,16.772,267.303,77.66,254.575,174.758z"/>
</g>
<path style="fill:#5EAC24;" d="M254.575,174.758c-0.745,5.692-2.856,10.938-6.002,15.408c-0.031,0.041-0.052,0.083-0.083,0.114
	c-106.411,8.63-172.515-58.064-172.515-58.064c-11.424-11.735-17.871-26.657-19.341-41.972c2.608-4.936,5.992-9.572,10.152-13.732
	c10.348-10.348,25.301-14.27,38.847-15.036c1.407-0.083,2.68-0.631,3.684-1.5c1.242-1.056,2.07-2.608,2.163-4.346
	c0.776-13.546,4.698-28.509,15.046-38.857c22.362-22.362,58.623-22.362,80.985,0C207.511,16.772,267.303,77.66,254.575,174.758z"/>
<path style="fill:#6DC82A;" d="M254.575,174.758c-0.745,5.692-2.856,10.938-6.002,15.408L109.317,59.976
	c1.242-1.056,2.07-2.608,2.163-4.346c0.776-13.546,4.698-28.509,15.046-38.857c22.362-22.362,58.623-22.362,80.985,0
	C207.511,16.772,267.303,77.66,254.575,174.758z"/>
<path style="fill:#5EAC24;" d="M402.177,59.976l-139.245,130.18c4.129-97.139,62.058-156.134,62.058-156.134
	c15.243-15.233,35.536-22.331,55.497-21.286c1.542,1.252,3.042,2.597,4.481,4.036c10.348,10.348,14.27,25.312,15.046,38.857
	C400.108,57.368,400.936,58.92,402.177,59.976z"/>
<path style="fill:#6DC82A;" d="M287.227,206.305c-5.691,0.745-10.938,2.856-15.408,6.002c-7.73,5.433-13.111,13.96-14.405,23.811
	c-12.728,97.087,47.064,157.976,47.064,157.976c22.373,22.362,58.623,22.362,80.995,0c10.348-10.348,14.27-25.301,15.036-38.847
	c0.083-1.407,0.631-2.68,1.5-3.684c1.056-1.242,2.608-2.07,4.346-2.163c13.546-0.776,28.509-4.698,38.857-15.046
	c22.362-22.362,22.362-58.623,0-80.985C445.213,253.369,384.326,193.577,287.227,206.305z"/>
<path style="fill:#4E901E;" d="M402.01,351.559l-130.18-139.245l-0.01-0.01c4.47-3.146,9.717-5.257,15.408-6.002
	c97.097-12.728,157.986,47.064,157.986,47.064c20.924,20.924,22.269,54.018,4.036,76.504c-1.252,1.542-2.597,3.042-4.036,4.481
	c-10.348,10.348-25.312,14.27-38.857,15.046C404.617,349.489,403.065,350.317,402.01,351.559z"/>
<path style="fill:#5EAC24;" d="M402.01,351.559l-130.18-139.245c97.139,4.129,156.134,62.058,156.134,62.058
	c15.233,15.243,22.331,35.536,21.286,55.497c-1.252,1.542-2.597,3.042-4.036,4.481c-10.348,10.348-25.312,14.27-38.857,15.046
	C404.617,349.489,403.065,350.317,402.01,351.559z"/>
<g>
	<path style="fill:#6DC82A;" d="M254.575,236.113c-0.745-5.692-2.856-10.938-6.002-15.408c-5.433-7.73-13.96-13.111-23.811-14.405
		c-97.087-12.728-157.976,47.064-157.976,47.064c-22.362,22.373-22.362,58.623,0,80.995c10.348,10.348,25.301,14.27,38.847,15.036
		c1.407,0.083,2.68,0.631,3.684,1.501c1.242,1.055,2.07,2.608,2.163,4.346c0.776,13.546,4.698,28.509,15.046,38.857
		c22.362,22.362,58.623,22.362,80.985,0C207.511,394.099,267.303,333.211,254.575,236.113z"/>
	<path style="fill:#6DC82A;" d="M274.878,233.24c1.004-3.363,1.821-4.936,1.397-1.666
		C276.151,232.515,275.633,233.012,274.878,233.24z"/>
</g>
<path style="fill:#4E901E;" d="M109.321,350.896l139.245-130.18l0.01-0.01c3.146,4.47,5.257,9.717,6.002,15.408
	c12.728,97.097-47.064,157.986-47.064,157.986c-20.924,20.924-54.018,22.269-76.504,4.036c-1.542-1.252-3.042-2.597-4.481-4.036
	c-10.348-10.348-14.27-25.312-15.046-38.857C111.391,353.503,110.562,351.951,109.321,350.896z"/>
<path style="fill:#5EAC24;" d="M109.321,350.896l139.245-130.18c-4.129,97.139-62.058,156.134-62.058,156.134
	c-15.243,15.233-35.536,22.331-55.497,21.286c-1.542-1.252-3.042-2.597-4.481-4.036c-10.348-10.348-14.27-25.312-15.046-38.857
	C111.391,353.503,110.562,351.951,109.321,350.896z"/>
<g>
</g>
<g>
</g>
<g>
</g>
<g>
</g>
<g>
</g>
<g>
</g>
<g>
</g>
<g>
</g>
<g>
</g>
<g>
</g>
<g>
</g>
<g>
</g>
<g>
</g>
<g>
</g>
<g>
</g>
</svg>
