<svg id="Flat" height="512" viewBox="0 0 64 64" width="512" xmlns="http://www.w3.org/2000/svg"><path d="m47.999 12.6067a6 6 0 1 0 -2.1962 8.1961 6 6 0 1 0 8.1962 2.1962 6 6 0 0 0 -6-10.3923z" fill="#ff4a3d"/><path d="m16.001 12.6067a6 6 0 1 1 2.1962 8.1961 6 6 0 1 1 -8.1962 2.1962 6 6 0 0 1 6-10.3923z" fill="#ff7861"/><path d="m18.8029 14.6067a6 6 0 1 0 -6 10.3923 5.999 5.999 0 0 0 .4574 6.6776 5.9993 5.9993 0 0 0 4.9368-10.8737 5.999 5.999 0 0 0 7.7389-8.8738 6 6 0 0 0 -7.1331 2.6776z" fill="#ff4a3d"/><path d="m32 48c-13.531 0-24.5 5.82-24.5 13h24.5z" fill="#b7ffc2"/><path d="m19.4144 49.8458a17.9331 17.9331 0 0 0 12.5856 5.1542v-7a41.8816 41.8816 0 0 0 -12.5856 1.8458z" fill="#8cfaa0"/><path d="m32 61v-10.9532c-11.3388.4865-20.4976 5.0659-22.2109 10.9532z" fill="#8cfaa0"/><path d="m21.7266 51.76a17.886 17.886 0 0 0 10.2734 3.24v-4.9532a41.1051 41.1051 0 0 0 -10.2734 1.7132z" fill="#67e674"/><path d="m32 48c13.531 0 24.5 5.82 24.5 13h-24.5z" fill="#ff4a3d"/><path d="m32 48v7a17.9331 17.9331 0 0 0 12.5856-5.1542 41.8816 41.8816 0 0 0 -12.5856-1.8458z" fill="#eb281e"/><path d="m13 29h38a3 3 0 0 1 3 3 8 8 0 0 1 -8 8h-28a8 8 0 0 1 -8-8 3 3 0 0 1 3-3z" fill="#ffd2ab"/><path d="m36 7a4 4 0 0 0 -8 0 4 4 0 1 0 4 4 4 4 0 1 0 4-4z" fill="#b7ffc2"/><path d="m36 7a3.97 3.97 0 0 0 -.3624-1.6456 3.993 3.993 0 0 0 -5.6376 3.6456 3.9859 3.9859 0 0 0 -3.64 5.64 3.9859 3.9859 0 0 0 5.64-3.64 3.9954 3.9954 0 0 0 1.7609 3.3146 3.961 3.961 0 0 0 .2391-1.3146 3.9714 3.9714 0 0 0 .36 1.64 3.997 3.997 0 1 0 1.64-7.64z" fill="#8cfaa0"/><rect fill="#faf4f4" height="42" rx="16" width="32" x="16" y="11"/><path d="m34 13a16 16 0 0 0 -16 16v10a15.93 15.93 0 0 0 3.734 10.266 15.9945 15.9945 0 0 0 26.266-12.266v-10a15.9292 15.9292 0 0 0 -3.734-10.266 15.93 15.93 0 0 0 -10.266-3.734z" fill="#f0ebec"/><path d="m40 32a2 2 0 1 1 2-2 2.0021 2.0021 0 0 1 -2 2z" fill="#464656"/><path d="m24 32a2 2 0 1 1 2-2 2.0021 2.0021 0 0 1 -2 2z" fill="#464656"/><g fill="#ff4a3d"><circle cx="32" cy="39" r="4"/><path d="m32 49a12.9961 12.9961 0 0 1 -12.5732-9.7495 1 1 0 1 1 1.9355-.501 10.9831 10.9831 0 0 0 21.2754 0 1 1 0 1 1 1.9355.501 12.9961 12.9961 0 0 1 -12.5732 9.7495z"/></g></svg>