<svg id="Capa_1" enable-background="new 0 0 512 512" height="512" viewBox="0 0 512 512" width="512" xmlns="http://www.w3.org/2000/svg"><g><path d="m317.233 0h-78.234c-19.466 0-34.482 17.138-31.925 36.435l13.238 99.879h115.608l13.238-99.879c2.558-19.297-12.458-36.435-31.925-36.435z" fill="#d1a191"/><path d="m256.739 36.438 13.238 99.876h-49.665l-13.238-99.876c-2.565-19.296 12.455-36.438 31.925-36.438h49.665c-19.47 0-34.49 17.142-31.925 36.438z" fill="#c88b7c"/><path d="m447.28 341.289c0 94.282-76.429 170.711-170.711 170.711s-170.711-76.429-170.711-170.711c0-65.787 37.22-122.88 91.748-151.375v-53.6l78.963-33.584 78.963 33.584v53.6c54.528 28.495 91.748 85.587 91.748 151.375z" fill="#c8e1fa"/><path d="m355.532 136.314v24.023h-157.926v-24.023l78.963-33.584z" fill="#aaccea"/><path d="m323.627 505.424c-14.948 4.286-30.74 6.573-47.059 6.573-94.272 0-170.711-76.429-170.711-170.711 0-65.787 37.22-122.88 91.748-151.375v-53.6l68.353-29.072v42.874c0 23.552-8.625 46.188-23.871 64.14-30.167 35.519-42.123 73.581-42.123 127.033 0 77.963 52.261 143.72 123.663 164.138z" fill="#aaccea"/><path d="m416.375 341.289c0 77.088-62.717 139.806-139.806 139.806-1.319 0-2.648-.021-3.956-.062-65.272-1.813-119.501-48.594-132.749-110.405 14.01 17.802 35.758 29.226 60.173 29.226 3.389 0 6.727-.216 10.003-.659 37.54-4.893 66.529-36.994 66.529-75.873 0-42.279 34.264-76.542 76.543-76.542h.35c19.295.093 36.932 10.961 46.111 27.928 10.847 20.058 16.802 42.825 16.802 66.581z" fill="#e28086"/><path d="m272.613 481.033c-65.272-1.813-119.501-48.594-132.749-110.405 14.01 17.802 35.758 29.226 60.173 29.226 3.389 0 6.727-.216 10.003-.659 12.012 33.316 34.089 61.821 62.573 81.838z" fill="#dd636e"/><g><path d="m169.121 216.278h-19.011v-19.011c0-12.22-9.906-22.126-22.126-22.126-12.22 0-22.126 9.906-22.126 22.126v19.011h-19.012c-12.22 0-22.126 9.906-22.126 22.126 0 12.22 9.906 22.126 22.126 22.126h19.011v19.011c0 12.22 9.906 22.126 22.126 22.126 12.22 0 22.126-9.906 22.126-22.126v-19.011h19.011c12.22 0 22.126-9.906 22.126-22.126.001-12.22-9.905-22.126-22.125-22.126z" fill="#f9f6f6"/><path d="m127.762 279.542v-19.012h-19.011c-12.22 0-22.126-9.906-22.126-22.126 0-12.22 9.906-22.126 22.126-22.126h19.011v-19.011c0-8.231 4.505-15.398 11.174-19.209-3.231-1.847-6.964-2.917-10.952-2.917-12.22 0-22.126 9.906-22.126 22.126v19.011h-19.012c-12.22 0-22.126 9.906-22.126 22.126 0 12.22 9.906 22.126 22.126 22.126h19.011v19.011c0 12.22 9.906 22.126 22.126 22.126 3.988 0 7.721-1.07 10.952-2.917-6.668-3.81-11.173-10.977-11.173-19.208z" fill="#dddaec"/></g><path d="m364.335 69.153h-175.532c-18.545 0-33.58 15.034-33.58 33.58 0 18.545 15.034 33.58 33.58 33.58h175.531c18.545 0 33.58-15.034 33.58-33.58 0-18.546-15.034-33.58-33.579-33.58z" fill="#c8e1fa"/><path d="m250.794 126.478c6.068 6.078 14.474 9.838 23.746 9.838h-85.732c-9.272 0-17.668-3.76-23.745-9.838-6.078-6.068-9.838-14.474-9.838-23.746 0-18.543 15.04-33.574 33.584-33.574h85.732c-18.554 0-33.584 15.03-33.584 33.574-.002 9.272 3.758 17.679 9.837 23.746z" fill="#aaccea"/><g fill="#eab1b7"><circle cx="288.393" cy="425.83" r="24.573"/><circle cx="349.321" cy="365.548" r="19.301"/></g></g></svg>