<svg height="512pt" viewBox="0 0 512.00015 512" width="512pt" xmlns="http://www.w3.org/2000/svg"><path d="m122.351562 368.433594 233.34375-233.34375 21.210938 21.214844-233.34375 233.339843zm0 0" fill="#dfd7d5"/><path d="m132.957031 379.039062 233.34375-233.34375 10.605469 10.609376-233.34375 233.339843zm0 0" fill="#d2c5c2"/><path d="m508.433594 16.292969-1.699219-11.027344-11.027344-1.699219c-6.363281-.847656-156.765625-21.425781-224.863281 46.667969-29.273438 29.277344-29.273438 76.792969 0 106.066406 17.394531 17.394531 40.941406 24.394531 63.640625 21.214844-3.179687 22.695313 3.820313 46.246094 21.214844 63.640625 29.273437 29.273438 76.789062 29.273438 106.066406 0 68.09375-68.097656 47.515625-218.5 46.667969-224.863281zm0 0" fill="#ede9e8"/><path d="m334.484375 177.515625 172.25-172.25 1.699219 11.027344c.847656 6.363281 21.425781 156.765625-46.667969 224.863281-29.277344 29.273438-76.792969 29.273438-106.066406 0-17.394531-17.394531-24.394531-40.945312-21.214844-63.640625zm0 0" fill="#dfd7d5"/><path d="m149.292969 374.160156 2.757812-14.210937-14.210937 2.757812-137.839844 24.984375 124.308594 124.308594zm0 0" fill="#ede9e8"/><path d="m154.171875 124.484375 21.210937-21.214844 233.34375 233.34375-21.214843 21.210938zm0 0" fill="#ede9e8"/><path d="m132.957031 188.121094 21.214844-21.210938 190.914063 190.914063-21.210938 21.214843zm0 0" fill="#ede9e8"/><path d="m111.742188 251.761719 21.214843-21.214844 148.492188 148.492187-21.214844 21.214844zm0 0" fill="#ede9e8"/><path d="m90.53125 315.398438 21.210938-21.210938 106.066406 106.0625-21.214844 21.214844zm0 0" fill="#ede9e8"/><path d="m387.515625 60.839844 21.214844 21.210937-21.214844 21.214844-21.214844-21.214844zm0 0" fill="#5a5a5a"/><g fill="#dfd7d5"><path d="m260.238281 400.257812-74.246093-74.246093 21.214843-21.214844 74.242188 74.246094zm0 0"/><path d="m323.878906 379.042969-95.460937-95.457031 21.214843-21.214844 95.457032 95.460937zm0 0"/><path d="m270.839844 241.15625 21.214844-21.214844 116.671874 116.671875-21.214843 21.214844zm0 0"/><path d="m143.5625 368.433594 21.214844-21.214844 53.03125 53.035156-21.214844 21.210938zm0 0"/><path d="m124.308594 512-62.152344-62.15625 89.894531-89.894531-2.757812 14.210937zm0 0"/></g></svg>