<svg id="Capa_1" enable-background="new 0 0 512 512" height="512" viewBox="0 0 512 512" width="512" xmlns="http://www.w3.org/2000/svg"><g><g><path d="m32.304 178.066v-43.696h43.696c73.726 0 133.696 59.971 133.696 133.696v43.696h-43.696c-73.726 0-133.696-59.97-133.696-133.696z" fill="#5ab267"/></g><g><path d="m346 311.762h-43.696v-43.696c0-73.726 59.971-133.696 133.696-133.696h43.696v43.696c0 73.726-59.97 133.696-133.696 133.696z" fill="#5ab267"/></g><g fill="#c567ea"><path d="m416.547 441.313-43.481-80.313-79.769-.588-16.425 26.363c-5.565 3.773-10.33 8.729-13.758 14.667-12.407 21.49-5.019 49.064 16.471 61.471 6.292 3.633 13.445 5.716 20.706 6.001 3.409.15 6.403 1.05 9 2.547 2.688 1.548 4.949 3.737 6.711 6.541 3.872 6.126 9.252 11.279 15.545 14.912 21.49 12.407 49.064 5.019 61.471-16.471 3.429-5.939 5.339-12.543 5.823-19.249z"/><path d="m469.26 335.225c5.566-3.774 10.33-8.729 13.758-14.667 12.407-21.49 5.019-49.064-16.471-61.471-6.292-3.633-13.445-5.716-20.719-6.008-3.181-.115-6.201-1.238-8.848-2.78-2.899-1.691-5.344-3.906-6.85-6.3-3.872-6.126-9.252-11.279-15.545-14.912-21.49-12.407-49.064-5.019-61.471 16.471-3.429 5.939-5.338 12.541-5.823 19.249l-12.559 35.09 38.334 61.103 76.78 1.387z"/></g><path d="m347.291 264.806c-3.773-5.565-8.729-10.33-14.667-13.758-21.49-12.407-49.064-5.019-61.471 16.471-3.633 6.292-5.716 13.445-6.003 20.739-.072 1.971-.424 3.899-1.019 5.721-1.403 4.129-4.11 7.471-8.066 9.957-6.126 3.872-11.279 9.252-14.912 15.545-12.407 21.49-5.019 49.064 16.471 61.471 5.939 3.429 12.543 5.339 19.249 5.823l96.193-25.775z" fill="#a24bdb"/><path d="m474.979 454.481c3.633-6.292 5.961-13.445 6.246-20.706.123-3.143.874-6.025 2.253-8.56 1.537-2.868 3.834-5.263 6.834-7.15 6.126-3.872 12.279-9.252 15.912-15.545 12.407-21.49 4.019-49.064-17.471-61.471-5.939-3.429-12.786-5.338-19.494-5.823l-96.193 25.774 25.775 96.194c3.774 5.566 8.729 10.33 14.667 13.758 21.49 12.407 49.064 5.019 61.471-16.471z" fill="#a24bdb"/><circle cx="373.066" cy="361" fill="#ff9100" r="45"/><g fill="#e681fa"><path d="m230.228 357.633-91.294-2.501-40.394 68.787 14.619 27.406c.485 6.706 2.394 13.31 5.823 19.249 12.407 21.49 39.981 28.878 61.471 16.471 6.292-3.633 11.673-8.786 15.55-14.932 1.834-2.877 4.11-5.02 6.705-6.521 2.684-1.554 5.711-2.417 9.02-2.541 7.241-.29 14.394-2.373 20.686-6.006 21.49-12.407 28.878-39.981 16.471-61.471-3.429-5.939-8.193-10.895-13.758-14.667z"/><path d="m164.709 258.938c-.485-6.708-2.394-13.31-5.823-19.249-12.407-21.49-39.981-28.878-61.471-16.471-6.292 3.633-11.673 8.786-15.563 14.939-1.69 2.697-4.173 4.752-6.832 6.272-2.914 1.665-6.054 2.675-8.881 2.782-7.241.29-14.394 2.373-20.686 6.006-21.49 12.407-28.878 39.981-16.471 61.471 3.429 5.939 8.192 10.893 13.758 14.667l24.11 28.422 72.084-2.647 39.591-65.8z"/></g><path d="m42.74 329.357c-6.706.485-13.555 2.394-19.494 5.823-21.49 12.407-29.878 39.981-17.471 61.471 3.633 6.292 9.786 11.673 15.959 15.568 1.671 1.048 3.165 2.317 4.445 3.743 2.874 3.279 4.415 7.295 4.59 11.964.29 7.241 2.619 14.394 6.252 20.686 12.407 21.49 39.981 28.878 61.471 16.471 5.939-3.429 10.895-8.193 14.667-13.758l25.775-96.194z" fill="#c567ea"/><path d="m270.847 313.613c-3.633-6.292-8.786-11.673-14.932-15.55-2.66-1.678-4.781-3.769-6.287-6.231-1.715-2.765-2.641-5.951-2.775-9.494-.29-7.241-2.373-14.394-6.006-20.686-12.407-21.49-39.981-28.878-61.471-16.471-5.939 3.429-10.893 8.192-14.667 13.758l-25.775 96.194 96.194 25.775c6.708-.485 13.31-2.394 19.249-5.823 21.489-12.408 28.878-39.982 16.47-61.472z" fill="#c567ea"/><circle cx="138.934" cy="355.132" fill="#fabe2c" r="45"/><g fill="#e681fa"><path d="m333.813 195.878-77.813-47.812-69.376 39.375-1.043 31.044c-2.933 6.05-4.581 12.724-4.581 19.581 0 24.814 20.186 45 45 45 7.266 0 14.502-1.772 20.933-5.156 3.027-1.575 6.07-2.292 9.067-2.294 3.102-.004 6.154.762 9.082 2.309 6.416 3.369 13.652 5.142 20.918 5.142 24.814 0 45-20.186 45-45 0-6.857-1.648-13.531-4.581-19.581z"/><path d="m326.419 77.647c2.933-6.051 4.581-12.724 4.581-19.581 0-24.814-20.186-45-45-45-7.266 0-14.502 1.772-20.947 5.156-2.813 1.49-5.989 2.029-9.053 2.016-3.356-.015-6.581-.71-9.082-2.031-6.416-3.369-13.652-5.142-20.918-5.142-24.814 0-45 20.186-45 45 0 6.857 1.648 13.53 4.581 19.581l6.669 36.669 63.75 33.75 67.187-37.189z"/></g><g fill="#c567ea"><path d="m265.082 277.924c6.416 3.369 13.652 5.142 20.918 5.142 24.814 0 45-20.186 45-45 0-6.857-1.648-13.531-4.581-19.581l7.394-22.606-77.813-47.813v127.549c3.102-.003 6.154.762 9.082 2.309z"/><path d="m326.419 77.647c2.933-6.051 4.581-12.724 4.581-19.581 0-24.814-20.186-45-45-45-7.266 0-14.502 1.772-20.947 5.156-2.813 1.49-5.989 2.029-9.053 2.016v127.828l67.187-37.189z"/><path d="m185.581 77.647c-6.05-2.933-12.724-4.581-19.581-4.581-24.814 0-45 20.186-45 45 0 7.266 1.772 14.502 5.171 20.962.923 1.743 1.582 3.589 1.978 5.464.85 4.277.176 8.525-2.007 12.656-3.37 6.416-5.142 13.652-5.142 20.918 0 24.814 20.186 45 45 45 6.857 0 13.531-1.648 19.581-4.581l70.419-70.419z"/></g><path d="m391 178.066c0-7.266-1.772-14.502-5.156-20.933-1.465-2.783-2.256-5.654-2.329-8.54-.103-3.252.688-6.475 2.344-9.609 3.369-6.416 5.142-13.652 5.142-20.918 0-24.814-20.186-45-45-45-6.857 0-13.53 1.648-19.581 4.581l-70.42 70.419 70.419 70.419c6.052 2.933 12.724 4.581 19.581 4.581 24.814 0 45-20.186 45-45z" fill="#a24bdb"/><circle cx="256" cy="148.066" fill="#fed843" r="45"/><path d="m301 148.066c0-24.814-20.186-45-45-45v90c24.814 0 45-20.186 45-45z" fill="#fabe2c"/></g></svg>