<svg id="Capa_1" enable-background="new 0 0 497 497" height="512" viewBox="0 0 497 497" width="512" xmlns="http://www.w3.org/2000/svg"><g><circle cx="85.34" cy="83.557" fill="#ffd15b" r="25.249"/><circle cx="411.66" cy="83.557" fill="#ffd15b" r="25.249"/><path d="m85.34 333.84c0 90.111 73.049 163.16 163.16 163.16 90.111 0 162.252-73.049 162.252-163.16v-158.667c0-4.574-3.708-8.283-8.283-8.283-7.164 0-13.111.413-19.427 2.827-21.428 8.189-36.646 28.94-36.646 53.246l-.909-123.386c0-15.769-10.277-38.012-25.147-41.055-2.124-.435-4.324-.663-6.577-.663-18.022 0-32.632 14.61-32.632 32.632l-.909-57.86c0-15.769-10.277-28.926-25.147-31.969-2.123-.434-4.322-.662-6.575-.662-18.022 0-32.632 14.61-32.632 32.632v57.86c0-7.885-3.705-14.208-8.36-19.848-4.655-5.641-10.261-10.599-17.695-12.121-2.124-.435-4.324-.663-6.577-.663-18.022 0-32.632 14.61-32.632 32.632v132.472c0-12.861-4.261-15.64-11.447-25.176-4.312-5.722-9.677-19.69-15.808-23.447-8.654-5.302-18.833-8.359-29.726-8.359-4.574 0-8.283 3.708-8.283 8.283z" fill="#b3dafe"/><g><path d="m403.378 165.982c-7.165 0-14.014 1.335-20.331 3.749.855 1.303 1.356 2.859 1.356 4.534v159.575c0 85.52-65.799 155.663-149.532 162.589 4.495.372 9.038.571 13.629.571 90.111 0 163.16-73.049 163.16-163.16v-159.576c0-4.574-3.708-8.282-8.282-8.282z" fill="#8ac9fe"/></g><path d="m325.63 370.148c0 11.679-2.596 22.752-7.242 32.673-1.155 2.467-3.437 3.862-4.837 6.178-1.19 1.967-1.464 4.877-2.819 6.724-12.573 17.139-32.057 28.893-54.345 31.157-2.593.263-5.224-1.602-7.886-1.602-2.469 0-4.91 1.884-7.32 1.657-22.46-2.114-42.118-13.859-54.802-31.062-1.3-1.763-1.526-4.583-2.675-6.456-1.467-2.393-3.808-3.871-5.012-6.427-4.696-9.964-7.321-21.097-7.321-32.842 0-11.746 2.625-22.878 7.321-32.842 1.043-2.213 3.188-3.369 4.43-5.461 1.314-2.215 1.736-5.358 3.258-7.422 12.684-17.203 32.342-28.948 54.802-31.062 2.409-.227 4.851 1.657 7.32 1.657 2.593 0 5.155-1.872 7.682-1.622 22.374 2.212 41.938 13.985 54.549 31.177 1.455 1.983 1.817 5.039 3.081 7.16 1.299 2.18 3.493 3.43 4.576 5.743 4.644 9.919 7.24 20.992 7.24 32.672z" fill="#e9f6fe"/><g fill="#8ac9fe"><path d="m332.767 261.208c7.527 0 13.629-6.102 13.629-13.629v-24.621.004-132.47c0-16.191-11.794-29.62-27.258-32.184v189.272c0 7.527 6.102 13.628 13.629 13.628z"/><path d="m136.975 261.208c7.527 0 13.629-6.102 13.629-13.629v-24.616c0-20.577-10.91-38.603-27.258-48.619v73.235c0 7.528 6.102 13.629 13.629 13.629z"/><path d="m267.503 261.208c7.527 0 13.629-6.102 13.629-13.629v-157.087-57.86c0-16.191-11.794-29.62-27.258-32.184v247.131c0 7.528 6.102 13.629 13.629 13.629z"/><path d="m202.239 261.208c7.527 0 13.629-6.102 13.629-13.629v-157.087c0-16.191-11.794-29.62-27.258-32.184v189.272c0 7.527 6.102 13.628 13.629 13.628z"/></g><path d="m318.374 402.814-55.004-32.667 55.004-32.667c-2.136-4.562-4.703-8.879-7.653-12.901l-54.539 32.39v-63.569c-2.527-.25-5.089-.383-7.682-.383-2.469 0-4.908.128-7.318.355v63.598l-54.794-32.542c-2.96 4.015-5.537 8.326-7.684 12.883l55.29 32.837-55.291 32.836c2.147 4.556 4.724 8.868 7.684 12.882l54.794-32.542v63.598c2.41.227 4.849.355 7.318.355 2.593 0 5.154-.133 7.682-.383v-63.57l54.539 32.39c2.951-4.021 5.517-8.338 7.654-12.9z" fill="#ffe177"/></g></svg>