<svg height="512" viewBox="0 0 58 48" width="512" xmlns="http://www.w3.org/2000/svg"><g id="Page-1" fill="none" fill-rule="evenodd"><g id="013---Lips" fill-rule="nonzero"><path id="Shape" d="m29 48c10 0 17-3 21-12s8-10 8-13c0-2-5.085-5.952-9-13-5-9-8-10-11-10-4 0-4 4-9 4s-5-4-9-4c-3 0-6 1-11 10-3.915 7.048-9 11-9 13 0 3 4 4 8 13s11 12 21 12z" fill="#802f34"/><path id="Shape" d="m58 22.97v.03c0 3-4 4-8 13s-11 12-21 12-17-3-21-12-8-10-8-13v-.03h19.12c3.41.18 8.57 1.1 9.88 5.03 1.31-3.93 6.47-4.85 9.88-5.03z" fill="#c03a2b"/><g fill="#802f34"><path id="Shape" d="m29 40c-.5522847 0-1-.4477153-1-1v-6c0-.5522847.4477153-1 1-1s1 .4477153 1 1v6c0 .5522847-.4477153 1-1 1z"/><path id="Shape" d="m34 35c-.5522847 0-1-.4477153-1-1v-2c0-.5522847.4477153-1 1-1s1 .4477153 1 1v2c0 .5522847-.4477153 1-1 1z"/><path id="Shape" d="m24 35c-.5522847 0-1-.4477153-1-1v-2c0-.5522847.4477153-1 1-1s1 .4477153 1 1v2c0 .5522847-.4477153 1-1 1z"/></g><path id="Shape" d="m58 23s-3 1-11 1-17-3-18-9c-1 6-10 9-18 9s-11-1-11-1c0-2 5.08-5.95 9-13 5-9 8-10 11-10 4 0 4 4 9 4s5-4 9-4c3 0 6 1 11 10 3.92 7.05 9 11 9 13z" fill="#e64c3c"/><path id="Shape" d="m12.5 12.942c-.3539183-.0005357-.6811919-.1881049-.860555-.4932071-.1793631-.3051021-.184096-.6822862-.012445-.9917929 4.331-7.804 6.511-8.457 8.373-8.457.5522847 0 1 .44771525 1 1s-.4477153 1-1 1c-.812 0-2.5 0-6.629 7.428-.1759122.3163413-.509039.5129281-.871.514z" fill="#fff"/></g></g></svg>