<svg id="Capa_1" enable-background="new 0 0 512 512" height="512" viewBox="0 0 512 512" width="512" xmlns="http://www.w3.org/2000/svg"><g><path d="m512 256c0-19.047-9.563-35.857-24.149-45.897-9.768-6.724-13.211-19.574-8.114-30.281 7.612-15.988 7.488-35.327-2.035-51.822s-26.21-26.272-43.862-27.674c-11.821-.939-21.228-10.346-22.167-22.167-1.401-17.652-11.178-34.338-27.673-43.862-16.496-9.524-35.834-9.647-51.822-2.035-10.707 5.097-23.557 1.654-30.28-8.114-10.041-14.585-26.851-24.148-45.898-24.148s-35.857 9.563-45.897 24.149c-6.724 9.768-19.573 13.211-30.28 8.114-15.988-7.611-35.327-7.488-51.822 2.035-16.495 9.524-26.272 26.21-27.674 43.862-.939 11.821-10.346 21.228-22.167 22.167-17.652 1.401-34.339 11.178-43.862 27.673-9.524 16.496-9.647 35.834-2.035 51.822 5.097 10.707 1.654 23.557-8.114 30.281-14.586 10.04-24.149 26.85-24.149 45.897s9.563 35.857 24.149 45.897c9.768 6.724 13.211 19.574 8.114 30.281-7.612 15.988-7.488 35.327 2.035 51.822 9.524 16.496 26.21 26.272 43.862 27.674 11.821.939 21.228 10.346 22.167 22.167 1.402 17.652 11.178 34.338 27.674 43.862 16.495 9.524 35.834 9.647 51.822 2.035 10.707-5.097 23.557-1.654 30.281 8.114 10.039 14.585 26.849 24.148 45.896 24.148s35.857-9.563 45.897-24.148c6.724-9.768 19.574-13.211 30.281-8.114 15.988 7.612 35.327 7.488 51.822-2.035 16.495-9.524 26.272-26.21 27.674-43.862.939-11.821 10.346-21.228 22.167-22.167 17.652-1.402 34.338-11.178 43.862-27.674s9.647-35.834 2.035-51.822c-5.097-10.707-1.654-23.557 8.114-30.281 14.585-10.04 24.148-26.85 24.148-45.897z" fill="#a2aee6"/><path d="m487.849 210.102c-9.763-6.721-13.206-19.567-8.108-30.276 7.605-15.991 7.482-35.332-2.035-51.827-8.705-15.066-23.38-24.531-39.309-27.121 7.523 4.676 14.028 11.222 18.755 19.413 3.185 5.519 5.401 11.587 6.545 17.855 2.192 12.005-.199 23.589-4.856 34.751-1.018 2.441-1.737 4.947-2.341 7.517-2.968 12.642 3.32 27.147 12.77 35.863 4.753 4.384 9.794 8.52 13.977 13.478 6.722 7.967 9.093 16.921 7.54 27.306-2.224 14.871-11.163 28.64-23.492 37.127-9.763 6.721-13.206 19.577-8.108 30.286 7.605 15.981 7.482 35.322-2.035 51.817-12.585 21.813-41.078 12.813-56.647 28.803-5.479 5.627-8.765 13.236-9.383 21.042-.769 9.718-4.151 19.237-9.663 27.248-3.2 4.648-7.814 8.105-12.997 10.267-11.094 4.628-23.807.962-35-1.273-13.003-2.596-25.906-2.425-37.615 4.406-5.721 3.337-10.746 7.894-14.504 13.356-10.041 14.593-26.854 24.151-45.897 24.151-3.032 0-6.002-.247-8.9-.709 8.55 5.334 18.642 8.417 29.454 8.417 19.043 0 35.856-9.558 45.897-24.151 6.721-9.763 19.578-13.206 30.276-8.109 15.991 7.615 35.332 7.492 51.827-2.035s26.268-26.206 27.676-43.862c.935-11.819 10.339-21.232 22.167-22.168 17.646-1.398 34.335-11.181 43.862-27.676 9.516-16.495 9.64-35.836 2.035-51.817-5.097-10.709-1.655-23.565 8.108-30.286 14.594-10.04 24.152-26.843 24.152-45.896 0-19.044-9.558-35.857-24.151-45.897z" fill="#8795de"/><path d="m250.31 104.054c-.796 1.903-1.236 3.994-1.236 6.186-.011 94.817-76.935 113.384-76.935 113.384v130.083l19.292 11.418c23.82 14.098 50.99 21.536 78.669 21.536h81.972c13.77 0 24.933-11.163 24.933-24.933 0-13.77-11.163-24.933-24.933-24.933h18.199c13.77 0 24.933-11.163 24.933-24.933 0-13.77-11.163-24.933-24.933-24.933h14.011c13.77 0 24.933-11.163 24.933-24.933 0-13.77-11.163-24.933-24.933-24.933h-14.011c14.072 0 25.421-11.658 24.916-25.842-.481-13.511-11.995-24.023-25.514-24.023h-53.346c-9.11 0-15.593-8.927-12.698-17.565 3.113-9.291 4.96-17.576 5.876-24.931 3.333-26.774-17.649-50.379-44.63-50.379-6.577.003-12.176 4.022-14.565 9.731" fill="#ffcebf"/><path d="m316.326 187.205h-22.599c-9.116 0-15.59-8.931-12.702-17.574 3.114-9.29 4.964-17.573 5.878-24.922 2.713-21.787-10.668-41.457-30.276-48.045 2.395-1.48 5.221-2.333 8.253-2.333 26.977 0 47.963 23.596 44.623 50.378-.915 7.348-2.764 15.631-5.868 24.922-2.899 8.643 3.586 17.574 12.691 17.574z" fill="#ffb09e"/><path d="m413.531 262.002c-.042 6.286-2.556 12.956-7.031 17.44-4.698 4.706-11.191 7.492-17.875 7.492h-14.008c6.886 0 13.113 2.795 17.635 7.297 5.114 5.09 7.933 13.067 7.163 20.185-.403 3.723-1.452 7.208-3.484 10.389-1.423 2.228-3.087 4.287-5.108 6.002-4.368 3.73-10.02 5.991-16.207 5.991h-18.2c6.886 0 13.124 2.795 17.625 7.297 4.422 4.422 7.038 10.402 7.287 16.654.194 4.864-1.059 9.742-3.586 13.905-2.419 3.983-5.956 7.256-10.117 9.354-3.466 1.747-7.328 2.655-11.209 2.655h-22.599c13.771 0 24.932-11.161 24.932-24.932 0-.067 0-.134-.001-.201-.075-9.472-7.981-17.024-17.453-17.024h-5.019c-3.919 0-7.411-2.815-7.904-6.702-.596-4.702 3.059-8.713 7.644-8.713h23.481c9.472 0 17.377-7.552 17.452-17.023.001-.067.001-.134.001-.201s0-.134-.001-.201c-.074-9.472-7.98-17.024-17.452-17.024h-16.787c-3.919 0-7.411-2.815-7.904-6.702-.596-4.702 3.059-8.713 7.644-8.713h31.054c9.472 0 17.378-7.552 17.452-17.024.001-.067.001-.133.001-.2s0-.134-.001-.201c-.075-9.472-7.98-17.023-17.452-17.023h-19.985c-4.227 0-7.908-3.265-8.024-7.49-.12-4.365 3.378-7.925 7.705-7.925h5.97c9.875 0 18.031-8.057 17.766-17.928-.002-.07-.004-.141-.007-.211-.483-13.504-11.993-24.017-25.507-24.017h22.599c3.381 0 6.639.658 9.619 1.85 3.242 1.297 6.399 3.367 8.869 5.93 4.152 4.234 6.793 9.907 7.019 16.238.248 6.945-2.552 13.97-7.626 18.869-4.481 4.326-10.575 6.978-17.286 6.978h14.008c2.651 0 5.21.411 7.605 1.182 1.686.543 3.317 1.248 4.85 2.139 5.552 3.225 9.731 8.209 11.461 14.442.627 2.255 1.007 4.744.991 7.166z" fill="#ffb09e"/><path d="m172.139 353.568h-70.986c-1.498 0-2.712-1.214-2.712-2.712v-124.427c0-1.498 1.214-2.712 2.712-2.712h70.986z" fill="#a6e7f0"/><path d="m151.586 223.719h20.554v129.849h-20.554z" fill="#6bd9e7"/></g></svg>