<?xml version="1.0" encoding="iso-8859-1"?>
<!-- Generator: Adobe Illustrator 19.0.0, SVG Export Plug-In . SVG Version: 6.00 Build 0)  -->
<svg version="1.1" id="Capa_1" xmlns="http://www.w3.org/2000/svg" xmlns:xlink="http://www.w3.org/1999/xlink" x="0px" y="0px"
	 viewBox="0 0 512.001 512.001" style="enable-background:new 0 0 512.001 512.001;" xml:space="preserve">
<path style="fill:#FF97A4;" d="M508.124,151.703c-8.096-37.461-28.76-69.865-56.691-88.901
	c-26.777-18.25-58.437-23.771-91.561-15.966c-34.96,8.238-69.871,30.675-103.871,66.737c-33.999-36.062-68.91-58.499-103.871-66.737
	c-33.124-7.807-64.784-2.284-91.561,15.966c-27.932,19.037-48.596,51.44-56.691,88.901c-8.484,39.254-2.937,81.312,15.619,118.425
	c37.271,74.544,98.877,124.415,143.994,153.126c48.784,31.045,88.315,44.392,89.974,44.944c1.637,0.547,3.437,0.547,5.074,0
	c1.659-0.553,41.19-13.899,89.974-44.944c45.117-28.711,106.722-78.582,143.993-153.126
	C511.062,233.015,516.608,190.957,508.124,151.703z"/>
<path style="fill:#FF7D8D;" d="M206.334,411.236c-45.117-28.711-106.722-78.582-143.994-153.126
	c-18.557-37.113-24.104-79.171-15.619-118.425c8.096-37.461,28.76-69.865,56.691-88.901c3.875-2.64,7.854-5.006,11.923-7.112
	c-19.594,1.365-38.125,7.788-54.768,19.131c-27.932,19.037-48.596,51.44-56.691,88.901c-8.484,39.254-2.937,81.312,15.619,118.425
	c37.271,74.544,98.877,124.415,143.994,153.126c48.784,31.045,88.315,44.392,89.974,44.944c1.637,0.547,3.437,0.547,5.074,0
	c0.925-0.308,13.611-4.593,33.093-13.689C279.616,450.047,246.043,436.504,206.334,411.236z"/>
<path style="fill:#FFC7BB;" d="M460.628,141.578l-34.037-34.037c-9.384-9.384-24.653-9.384-34.037,0L279.095,220.998
	c-4.546,4.546-7.05,10.59-7.05,17.019c0,6.428,2.504,12.473,7.05,17.018l34.037,34.037c4.546,4.546,10.59,7.05,17.018,7.05
	c6.429,0,12.473-2.504,17.019-7.05l113.459-113.458C470.012,166.23,470.012,150.961,460.628,141.578z"/>
<rect x="312.769" y="148.582" transform="matrix(-0.7071 0.7071 -0.7071 -0.7071 773.2047 73.1639)" style="fill:#FFB9AA;" width="117.361" height="96.272"/>
<rect x="353.808" y="166.215" transform="matrix(-0.7071 -0.7071 0.7071 -0.7071 491.1562 600.0548)" style="fill:#EFECF1;" width="32.091" height="64.181"/>
<path d="M358.516,240.366c-2.053,0-4.107-0.783-5.673-2.35l-22.691-22.691c-3.134-3.133-3.134-8.212,0-11.345l45.383-45.383
	c3.133-3.133,8.212-3.133,11.345,0l22.691,22.691c3.134,3.133,3.134,8.212,0,11.345l-45.383,45.383
	C362.623,239.583,360.57,240.366,358.516,240.366z M347.171,209.652l11.345,11.345l34.037-34.037l-11.346-11.346L347.171,209.652z"
	/>
<g>
	<circle style="fill:#FFAC9A;" cx="438.642" cy="152.211" r="7.521"/>
	<circle style="fill:#FFAC9A;" cx="415.957" cy="129.526" r="7.521"/>
	<circle style="fill:#FFAC9A;" cx="328.711" cy="262.152" r="7.521"/>
	<circle style="fill:#FFAC9A;" cx="306.016" cy="239.458" r="7.521"/>
</g>
<path style="fill:#FFE3DD;" d="M470.765,238.016c0-6.429-2.504-12.473-7.05-17.019L350.257,107.539
	c-9.384-9.383-24.653-9.383-34.037,0l-34.037,34.037c-4.546,4.546-7.05,10.59-7.05,17.019c0,6.429,2.504,12.473,7.05,17.019
	L395.64,289.073c4.546,4.546,10.59,7.05,17.019,7.05c6.429,0,12.473-2.504,17.019-7.05l0,0l34.037-34.037
	C468.262,250.49,470.765,244.446,470.765,238.016z"/>
<path style="fill:#FFF1EE;" d="M412.659,203.979l-45.383-45.383c-3.133-3.133-8.212-3.133-11.345,0l-22.691,22.691
	c-3.134,3.133-3.134,8.212,0,11.345l45.383,45.383c1.566,1.566,3.619,2.35,5.673,2.35c2.054,0,4.107-0.783,5.673-2.35l22.691-22.691
	C415.793,212.192,415.793,207.112,412.659,203.979z"/>
<g>
	<circle style="fill:#FFAC9A;" cx="316.576" cy="164.626" r="7.521"/>
	<circle style="fill:#FFAC9A;" cx="339.27" cy="141.932" r="7.521"/>
	<circle style="fill:#FFAC9A;" cx="406.631" cy="254.681" r="7.521"/>
	<circle style="fill:#FFAC9A;" cx="429.325" cy="231.986" r="7.521"/>
</g>
<g>
</g>
<g>
</g>
<g>
</g>
<g>
</g>
<g>
</g>
<g>
</g>
<g>
</g>
<g>
</g>
<g>
</g>
<g>
</g>
<g>
</g>
<g>
</g>
<g>
</g>
<g>
</g>
<g>
</g>
</svg>
