<svg id="Layer_1" enable-background="new 0 0 50 50" height="512" viewBox="0 0 50 50" width="512" xmlns="http://www.w3.org/2000/svg"><g><g><g><path d="m26.7201 35.45016c.2945.00589.72552-.06469 1.27482-.22117-.64684-.37826-1.29369-.75651-1.94051-1.13478-.30376.19885-.46736.3965-.4929.59767-.0184.20296.08829.37473.33727.52415.25002.14883.52685.22944.82132.23413z" fill="#6a9839"/></g><g><path d="m13.38247 39.49763c-.81358.46972-.86807 1.21217.01615 1.89869 1.11637.86596 3.35241 1.27539 4.91383.83714.27678-.07778.51311-.17548.7082-.28812.90407-.52197.9221-1.36457-.02893-2.03084-1.15625-.81004-3.28124-1.10537-4.80677-.72653-.31852.08006-.58706.18528-.80248.30966z" fill="#6a9839"/></g><g><path d="m40.63534 32.62889c-.15327.17063-.31165.33944-.47203.50711.10432.05117.2086.10116.31394.15175.07559-.07882.1502-.15823.22477-.23882.44463.21354.89035.42651 1.33698.64003.08182-.09292.16561-.18468.24738-.27764-.55105-.26122-1.10104-.52182-1.65104-.78243z" fill="#97c269"/></g><g enable-background="new"><g><path d="m32.46603 26.12145c-.62448.6959-1.30975 1.37181-2.05176 2.02537.15804.07532.31501.1512.47299.22649.74206-.65944 1.42534-1.34241 2.05083-2.04482-.15698-.06879-.31403-.13763-.47206-.20704z" fill="#6a9839"/></g><g><path d="m36.29825 26.60427c-.24871.14359-.46728.32298-.64088.53371-.70255.85709-.38696 1.98127.82859 2.54838.91894.42972 2.0937.37346 2.90557-.09527.25398-.14664.47252-.33376.63642-.55888.69185-.94476.17451-2.13423-1.01915-2.61072-.90308-.36106-1.94841-.25724-2.71055.18278z" fill="#6a9839"/></g><g><path d="m36.02499 26.34009c.89186-.51491 2.1081-.64049 3.17037-.22213 1.40851.55413 2.03637 1.95891 1.22369 3.0837-.1937.26682-.45178.48816-.75183.6614-.96209.55546-2.35569.61693-3.44281.10215-1.43021-.67534-1.78741-1.99366-.95707-2.99605.206-.24809.46432-.45972.75765-.62907zm.46098 3.34628c.91894.42972 2.0937.37346 2.90557-.09527.25398-.14664.47252-.33376.63641-.55888.69186-.94476.17452-2.13423-1.01915-2.61072-.90308-.36107-1.94841-.25725-2.71056.18277-.24871.14359-.46728.32298-.64087.53371-.70254.8571-.38695 1.98128.8286 2.54839" fill="#6a9839"/></g><g><path d="m42.60042 30.66409c-.06347.08943-.06089.17708.00668.26239.0706.08707.18589.16587.35203.23881.16518.07356.31625.11296.44527.11355.07806.00104.14501-.01356.19961-.04508.03701-.02137.06837-.05053.09357-.08787.06249-.09117.05995-.17998-.00965-.26529-.07262-.08824-.19101-.16767-.3531-.23826-.16718-.07237-.31223-.10827-.44222-.10943-.07786-.00105-.14325.01431-.19727.0455-.0368.02125-.06836.0499-.09492.08568z" fill="#97c269"/></g><g><path d="m42.2975 30.53057c.07041-.09505.15037-.16946.242-.22236.08419-.0486.17823-.07905.28379-.09061.21953-.0247.45391.0159.7143.12827.25632.11001.4302.24528.52377.40707.08849.16002.06921.3365-.06289.52532-.06728.09624-.14794.17061-.23988.22369-.08848.05108-.18745.08245-.29507.09458-.22561.02235-.46602-.02412-.72337-.13945-.25829-.11587-.42817-.25237-.51662-.41355-.08545-.15943-.06008-.33002.07397-.51296zm.66162.63472c.16518.07356.31624.11295.44524.11355.07807.00105.14503-.01356.19963-.04508.03703-.02138.06836-.05054.09359-.08788.06247-.09117.05994-.17999-.00964-.26528-.07263-.08824-.19104-.16768-.35311-.23825-.16721-.07239-.31223-.10827-.44222-.10944-.07786-.00105-.14327.01432-.19728.0455-.03683.02126-.06836.0499-.09494.08567-.06344.08944-.06088.17709.00669.2624.0706.08706.18591.16586.35204.23881" fill="#97c269"/></g><g><path d="m41.28787 31.81945c.06906-.08142.14495-.14661.22896-.19511.09874-.05701.20876-.09094.33226-.10079.23066-.01706.47109.03061.72639.14591.25829.11587.42915.2553.51356.41768.08337.16176.05291.33529-.09538.51825-.06728.08357-.14351.14979-.22832.19875-.10206.05892-.21659.09285-.34313.10184-.23063.01825-.47611-.03471-.7354-.15706-.26031-.12177-.42812-.26296-.5064-.42295-.07833-.16003-.04383-.33004.10746-.50652zm.64227.6471c.16611.07766.3162.11883.45126.12413.08695.00375.16072-.01173.22109-.04659.03407-.01967.0639-.04549.08935-.07755.07056-.08884.0731-.17588.00554-.26354-.06757-.08766-.18489-.17001-.34797-.24472-.16719-.0759-.31017-.11296-.44923-.1206-.08686-.00304-.16061.01294-.22125.04795-.03291.019-.06197.0436-.08718.07381-.07157.08706-.07511.17354-.00859.2606.06554.08649.18184.16943.34698.24651" fill="#97c269"/></g><g><path d="m41.59177 31.95945c-.07158.08707-.07513.17355-.00858.26061.06554.08648.18185.16941.34695.24649.16614.07765.31622.11883.45128.12414.08696.00375.16071-.01173.22109-.04659.03405-.01966.06391-.04549.08935-.07755.07055-.08884.07309-.17588.00554-.26353-.06759-.08767-.18489-.17003-.34798-.24473-.16719-.0759-.31017-.11296-.44925-.1206-.08685-.00305-.1606.01294-.22124.04795-.03288.01898-.06193.0436-.08716.07381z" fill="#97c269"/></g><g><path d="m32.43901 35.61374c-.26124-.1459-.54825-.21237-.85605-.19765-.31188.01469-.74411.12116-1.31287.31001.67421.38708 1.34939.77474 2.02258 1.16242.31417-.2412.47905-.48178.50468-.71124.02566-.22707-.09616-.41708-.35834-.56354z" fill="#6a9839"/></g><g><path d="m11.88061 37.01195c.14869.10884.2974.21767.44604.32648 1.28956-.31647 2.54275-.66824 3.75756-1.05296-.15176-.10471-.30253-.20885-.45525-.31296-1.21273.38002-2.46184.72708-3.74835 1.03944z" fill="#6a9839"/></g><g><path d="m22.13066 32.0282c.13943-.0805.2837-.15858.4339-.23473 3.54521-1.75829 8.70335-2.11773 12.40031-.35056 3.6839 1.75014 4.52959 5.59153.84237 8.04636-.13673.09148-.27817.17931-.42264.26272-3.74206 2.16048-9.97289 1.6302-13.36554-.7187-3.40384-2.34307-3.0079-5.20404.1116-7.00509zm10.64314 5.99332c.27224.1594.54562.31944.8189.47825.2405-.14942.47803-.30176.71245-.45472-.27028-.1559-.53957-.31002-.80986-.46592.70972-.50354 1.05593-1.033 1.06505-1.56596.00913-.53296-.3205-.97475-.98166-1.33183-.65815-.35532-1.33779-.49768-2.05107-.4365-.7133.05999-1.56368.29411-2.59663.67353-.01017.00708-.0214.01236-.03157.01944-.70458-.40474-1.40916-.80946-2.11271-1.21479.63625-.26884 1.35226-.45 2.15509-.54298-.12301-.33471-.25016-.6671-.38128-.99826-1.1546.15648-2.15348.43059-2.99873.83766-.1923-.11057-.38164-.21943-.57395-.33-.2292.12648-.46045.25178-.69475.37529.18728.11003.37451.21883.56076.32825-.67759.40062-1.04968.83006-1.10824 1.30478-.05851.47591.22139.91007.86506 1.30773.63862.39592 1.33924.59769 2.07563.58652.73631-.01002 1.64833-.18588 2.68933-.55709.72374.42414 1.44956.84829 2.17433 1.27185-.77173.34-1.76295.52533-2.96754.54295.03461.34827.06411.69829.08954 1.0483 1.5864-.00942 2.96623-.30413 4.10185-.8765" fill="#6a9839"/></g><g><path d="m28.58239 37.84972c1.2046-.01763 2.19582-.20295 2.96755-.54296-.72476-.42356-1.45058-.84771-2.17433-1.27185-1.04101.37121-1.95302.54707-2.68933.5571-.73639.01116-1.43702-.19061-2.07564-.58653-.64366-.39766-.92358-.83182-.86505-1.30773.05856-.47472.43065-.90415 1.10824-1.30478-.18626-.10942-.37348-.21822-.56077-.32825.23431-.12351.46555-.24881.69477-.37529.19231.11057.38164.21943.57394.33.84524-.40707 1.84413-.68118 2.99874-.83766.13112.33117.25826.66356.38127.99826-.80283.09297-1.51884.27413-2.15508.54298.70355.40532 1.40813.81005 2.11271 1.21479.01017-.00708.0214-.01236.03157-.01944 1.03296-.37942 1.88334-.61354 2.59664-.67353.71327-.06118 1.39292.08118 2.05107.4365.66116.35708.99078.79887.98167 1.33183-.00912.53296-.35534 1.06242-1.06506 1.56596.2703.1559.53958.31002.80986.46592-.23441.15296-.47194.3053-.71244.45472-.27328-.15881-.54665-.31885-.81891-.47825-1.13563.57236-2.51544.86708-4.10186.87648-.02544-.34999-.05495-.7-.08956-1.04827zm3.71027-.96121c.31417-.2412.47906-.48177.50468-.71123.02566-.22706-.09616-.41708-.35833-.56353-.26125-.14591-.54824-.21238-.85605-.19767-.31187.01471-.74411.12117-1.31287.31002.6742.38708 1.34939.77474 2.02257 1.16241m-6.23826-2.7943c-.30375.19885-.46735.3965-.49289.59766-.0184.20296.08828.37474.33727.52416.25002.14883.52685.22943.82132.23413.2945.00589.72553-.06469 1.27482-.22118-.64685-.37825-1.29369-.7565-1.94052-1.13477" fill="#6a9839"/></g><g><path d="m12.85836 39.28424c.25619-.14791.57671-.27278.95745-.36745 1.79801-.44123 4.28331-.10648 5.6531.84418 1.12381.77964 1.11617 1.78588.04103 2.40661-.22851.13193-.50501.2464-.82936.33765-1.84929.52237-4.48807.02881-5.80154-.9989-1.03501-.81063-.96966-1.6742-.02068-2.22209zm5.45409 2.94922c.27678-.07779.51311-.17549.7082-.28812.90407-.52197.92209-1.36457-.02893-2.03084-1.15624-.81004-3.28124-1.10537-4.80677-.72653-.31851.08006-.58705.18528-.80247.30966-.81358.46972-.86807 1.21217.01615 1.89869 1.11636.86595 3.3524 1.27538 4.91382.83714" fill="#6a9839"/></g><g><path d="m24.81641 43.11531c.03299.09114.12589.19116.28573.30178.15681.11.31581.18706.47803.23058.16127.04298.30958.03944.44491-.01294.02726-.01012.05099-.02111.07136-.03288.08261-.0477.10972-.10868.08323-.18182-.03403-.09178-.12994-.1912-.28777-.30061-.15778-.10823-.31787-.18473-.47805-.22706-.15919-.04177-.30958-.03944-.4429.01175-.02798.01057-.05261.02185-.07366.034-.0798.04607-.10862.10408-.08088.1772z" fill="#97c269"/></g><g><path d="m24.26913 43.08764c-.00525-.11219.06524-.21098.21275-.29615.05513-.03183.12104-.06174.19768-.08976.27687-.10469.56038-.13234.84748-.08236.28714.04882.55363.15767.80453.32826.24889.1706.37999.33414.38929.49063.00925.11809-.06805.22119-.22509.31186-.05184.02993-.11239.05852-.18136.08581-.27889.10942-.56747.1353-.85762.08235-.29018-.05178-.55869-.16531-.8055-.33826-.24887-.17532-.3769-.33942-.38216-.49238zm1.31102.56003c.16128.04297.30956.03944.44491-.01293.02723-.01012.05099-.0211.07139-.03288.0826-.04769.10968-.10868.08319-.18183-.03401-.09177-.12994-.19118-.28776-.3006-.15779-.10823-.31788-.18473-.47806-.22707-.15919-.04176-.30957-.03943-.44287.01176-.028.01057-.05262.02185-.07365.034-.07982.04609-.10864.10408-.0809.1772.03298.09116.12588.19117.28573.30178.15679.11.3158.18705.47802.23057" fill="#97c269"/></g><g><path d="m22.21477 43.78121c-.00218-.10302.06238-.1924.19399-.26838.06379-.03683.14338-.0705.23871-.10104.28896-.09531.57952-.11413.86763-.06001.29017.05649.55968.17179.80548.34533.24783.17472.37079.33824.37703.49414.00294.10793-.06519.20268-.20584.28388-.06094.03519-.13557.06784-.22388.09789-.29302.09766-.5836.11884-.8778.05883-.29319-.05825-.56165-.17766-.80639-.3553-.24376-.17709-.36779-.34241-.36893-.49534zm1.31189.5865c.16021.04589.31757.04882.45396-.0006.03211-.01116.05984-.02348.08315-.03693.0772-.04457.10583-.10156.08357-.17072-.03096-.09118-.12284-.19178-.28165-.30413-.15675-.11234-.31577-.19059-.47798-.23646-.1602-.04589-.31052-.04589-.45094 0-.03508.01122-.06478.02391-.08918.038-.074.04273-.09929.09843-.07754.1661.02694.08885.12286.19297.27858.3059.15581.11178.31783.19296.47803.23884" fill="#97c269"/></g><g><path d="m22.77007 43.82297c.02696.08884.12287.19297.27859.3059.15579.11179.3178.19296.47801.23885s.31757.04882.45398-.0006c.03212-.01116.05982-.02348.08313-.03694.07719-.04456.10583-.10156.08354-.17072-.03094-.09119-.12279-.19178-.28164-.30414-.15671-.11233-.31576-.19059-.47796-.23647-.16021-.04589-.31052-.04587-.45094.00002-.03507.0112-.06477.0239-.08919.03799-.07399.04272-.0993.09843-.07752.16611z" fill="#97c269"/></g><g><path d="m22.92584 29.51884c4.29453-2.47945 7.53293-5.5009 9.3546-8.85713 5.57354 1.99605 11.14602 3.99149 16.71956 5.98748-1.88862 6.09163-6.85513 11.45951-13.84888 15.49735-5.2483 3.03011-11.63808 5.31117-18.72563 6.58728-5.1425-4.23142-10.284-8.46232-15.42549-12.69317 8.60837-.87901 16.20448-3.21858 21.92584-6.52181zm11.93819 12.33444c6.79237-3.92158 11.66138-9.10089 13.63495-14.97587-5.32803-1.936-10.65611-3.87081-15.98422-5.80686-1.85589 3.30636-5.07655 6.28314-9.31823 8.73207-5.59626 3.231-12.96998 5.54193-21.3244 6.47217 4.92333 4.02144 9.84551 8.04343 14.76884 12.06487 6.89149-1.28871 13.10294-3.53027 18.22306-6.48638" fill="#97c269"/></g><g><path d="m20.50268 44.10946c.09706.07293.1952.14529.29431.21825.1373-.03944.27364-.07941.41096-.12001.41869.30823.83743.6165 1.25716.92534.15467-.04705.30828-.0947.46291-.14294-.51886-.37943-1.03773-.75771-1.55659-1.13714-.2889.08708-.57783.17296-.86875.2565z" fill="#97c269"/></g><g><path d="m23.19654 29.80264c4.24165-2.44892 7.46232-5.42572 9.3182-8.73209 5.3281 1.93604 10.6562 3.8709 15.98422 5.80689-1.97355 5.87495-6.84254 11.05424-13.63493 14.97584-5.12015 2.95612-11.33156 5.19769-18.22304 6.48637-4.9233-4.02142-9.84558-8.04343-14.76887-12.06485 8.35439-.93022 15.72815-3.24115 21.32442-6.47216zm-2.08825 16.42103c4.7866-1.29889 9.13978-3.08026 12.89499-5.24834 5.21086-3.0085 9.2681-6.76141 11.72192-10.99773-1.53395-.64594-2.11533-2.1819-1.52402-3.49316-2.75755-1.04418-5.51505-2.08837-8.2726-3.13255-.17471.31338-.4451.56816-.77711.75985-.88274.50965-2.20097.57291-3.31347.10313-1.92967 2.39567-4.5875 4.57092-7.82505 6.44013-4.37606 2.52652-9.81114 4.49353-15.93595 5.68807 1.07946.80985 1.11079 1.70608.18793 2.23889-.30661.17702-.71873.31394-1.23257.3942 2.55894 2.04538 5.1169 4.09024 7.67588 6.13569 2.1421-.41002 4.96095.03002 6.40005 1.11182" fill="#6a9839"/></g><g><path d="m32.30046 24.86491c-1.05326 1.27653-2.31131 2.48952-3.75174 3.62604.15801.07884.31602.15768.47399.23533 1.43948-1.14888 2.69755-2.37366 3.74886-3.66313-.15807-.06588-.31412-.13179-.47111-.19824z" fill="#6a9839"/></g><g><path d="m9.41329 36.7384c.14862.11117.29529.22118.44398.33238 2.39252-.50885 4.6771-1.13709 6.82922-1.87183-.15176-.10236-.30454-.20414-.45837-.30651-2.14597.72533-4.42541 1.34475-6.81483 1.84596z" fill="#6a9839"/></g><g><path d="m7.03237 38.97617c.5138-.08028.9259-.21717 1.23253-.3942.92285-.53281.89155-1.42905-.18791-2.2389 6.12478-1.19453 11.55988-3.16154 15.93594-5.68806 3.23755-1.8692 5.89537-4.04448 7.82505-6.44014 1.11245.4698 2.4307.40655 3.31343-.10309.33203-.1917.60244-.44651.77714-.75987 2.75755 1.04416 5.51509 2.08836 8.2726 3.13254-.59127 1.31128-.00992 2.84723 1.52404 3.49315-2.45383 4.23634-6.51104 7.98927-11.7219 10.99776-3.75519 2.16806-8.10839 3.94945-12.89502 5.24833-1.43906-1.08181-4.25793-1.52186-6.40007-1.11184-2.55898-2.04544-5.11691-4.09029-7.67583-6.13568zm28.35224.77582c.14447-.08341.28591-.17125.42265-.26272 3.68724-2.45482 2.84151-6.29622-.84238-8.04636-3.69693-1.76717-8.85509-1.40773-12.40029.35056-.15019.07615-.29446.15424-.43389.23474-3.1195 1.80104-3.51547 4.66202-.11159 7.00508 3.39262 2.3489 9.62346 2.87917 13.3655.7187m-16.704 2.75322c.32434-.09124.60085-.20571.82936-.33764 1.07513-.62073 1.08276-1.62695-.04103-2.4066-1.3698-.95067-3.85511-1.28541-5.6531-.84418-.38076.09467-.70127.21955-.95745.36745-.94897.54789-1.01436 1.41145.02065 2.22208 1.31351 1.02771 3.95228 1.52128 5.80157.99889m21.73848-13.30356c.81267-1.12478.1848-2.52957-1.22369-3.0837-1.06228-.41834-2.27854-.29277-3.17039.22214-.29333.16936-.55166.38098-.75765.62907-.83035 1.00238-.47314 2.32071.95706 2.99605 1.08714.51478 2.48073.45331 3.44282-.10215.30007-.17325.55813-.39458.75185-.66141m-31.00577 7.53675c.14862.11118.29527.2212.44395.33238 2.39254-.50885 4.67713-1.13709 6.82923-1.87183-.15176-.10235-.30451-.20414-.45836-.30652-2.14597.72534-4.42539 1.34476-6.81482 1.84597m22.88716-11.87348c-1.05327 1.27652-2.3113 2.4895-3.75171 3.62603.158.07884.316.15768.47398.23533 1.43946-1.14888 2.69756-2.37366 3.74885-3.66313-.15807-.06587-.31415-.13179-.47112-.19823m-16.67148 11.10758c-1.21272.38002-2.46185.72708-3.74835 1.03944.14869.10884.29738.21768.44601.32648 1.28956-.31647 2.54277-.66825 3.75757-1.05295-.15176-.10472-.30253-.20885-.45523-.31297m15.25829-7.59918c.74205-.65946 1.42533-1.34242 2.05082-2.04483-.15699-.0688-.31403-.13763-.47206-.20704-.6245.6959-1.30976 1.37181-2.05175 2.02536.15805.07534.315.15121.47299.22651m-7.4972 16.25851c.29421.06004.5848.03884.87782-.0588.0883-.03007.16293-.06273.22387-.09791.14064-.0812.2088-.17594.20587-.28387-.00624-.1559-.12925-.31942-.37707-.49415-.24578-.17353-.51531-.28884-.80547-.34534-.28811-.0541-.57869-.03528-.86761.06003-.09537.03054-.17492.06421-.23873.10104-.13161.07599-.19615.16537-.19398.26839.00114.15293.12514.31825.3689.49532.24475.17763.51325.29705.8064.35529m2.06671-.71354c.29014.05293.57873.02707.85761-.08236.06899-.0273.12953-.05587.18138-.08581.15705-.09067.23436-.19378.22507-.31187-.00927-.15648-.14038-.32001-.38927-.49064-.25088-.17058-.51739-.27942-.80452-.32824-.28712-.05-.57063-.02233-.84748.08235-.07666.02802-.14254.05794-.19766.08977-.14752.08517-.21804.18395-.21277.29614.00525.15297.13328.31706.38214.49239.24682.17297.51532.2865.8055.33827m16.23004-11.16937c.25932.12234.50478.17531.7354.15706.12655-.00898.24106-.04292.34312-.10185.08482-.04897.16106-.11517.22834-.19875.14828-.18296.17874-.35648.09536-.51823-.08442-.16239-.25527-.30183-.51355-.41769-.25531-.11531-.49574-.16296-.72641-.14591-.12349.00985-.23351.04378-.33227.10079-.08401.0485-.15989.1137-.22893.19512-.15134.17648-.1858.34649-.10748.50651.07831.15997.24612.30117.50642.42295m1.05333-1.29186c.25736.11533.49777.16182.72338.13944.10762-.01212.20657-.04349.29506-.09457.09193-.05308.17262-.12746.23991-.22367.13208-.18881.15136-.3653.06288-.52534-.09356-.16178-.26744-.29707-.52379-.40706-.26035-.11236-.49475-.15297-.71427-.12827-.10556.01156-.19959.042-.28381.09062-.09161.05289-.17157.12729-.24201.22235-.13401.18295-.15939.35353-.07395.51295.08843.1612.25832.29769.5166.41355m-20.27503 13.67599c.15466-.04706.30828-.09469.46291-.14294-.51888-.37943-1.03774-.7577-1.5566-1.13714-.28891.08709-.57781.17296-.86875.25651.09707.07292.19521.14529.29431.21825.13728-.03944.27364-.07941.41096-.12.41869.3082.83742.61648 1.25717.92532m18.01214-11.8453c.07561-.07884.15019-.15825.22477-.23883.44464.21354.89037.42649 1.33698.64003.08183-.09292.16562-.18469.24739-.27764-.55106-.26122-1.10105-.52182-1.65104-.78242-.15327.17061-.31165.33943-.47202.5071.1043.05117.20856.10117.31392.15176" fill="#97c269"/></g></g></g><g><g><g><g enable-background="new"><g><path d="m29.91238 35.3733-.00298 1.69814c0-.75236-.49367-1.50776-1.48699-2.07874-.4907-.28549-1.06172-.49664-1.6684-.63938-1.82008-.42533-3.98514-.21419-5.45429.63938-.96952.56503-1.45726 1.30562-1.46024 2.04912l.00595-1.69814c.00298-.74059.48774-1.48104 1.46022-2.04607 1.46915-.85357 3.63422-1.06776 5.4543-.64243.60669.14275 1.17473.35679 1.6684.63938.99036.57404 1.48701 1.32639 1.48403 2.07874z" fill="#e2ab30"/></g><g><path d="m29.91276 35.37309-.00481 1.697c-.0021.74228-.48904 1.48344-1.46183 2.04876l.00481-1.697c.97279-.56532 1.45973-1.30647 1.46183-2.04876z" fill="#fed44c"/></g><g><path d="m19.8406 37.04122.00481-1.69699c-.00213.75164.49277 1.50444 1.48364 2.07652 1.97095 1.13793 5.16564 1.13795 7.12189.00111l-.00481 1.697c-1.95625 1.13685-5.15093 1.13683-7.12189-.00111-.99088-.57208-1.48577-1.32489-1.48364-2.07653z" fill="#fed44c"/></g><g><path d="m28.42769 33.74693c1.97095 1.13793 1.98143 2.98841.02324 4.12639-1.95625 1.13685-5.15093 1.13683-7.12189-.0011-1.96903-1.13683-1.97952-2.9873-.02326-4.12415 1.9582-1.13798 5.15288-1.13796 7.12191-.00114z" fill="#f2bc36"/></g><g><path d="m31.40229 35.37724-.00481 1.697c-.00272.96125-.63418 1.92105-1.89564 2.65413-2.53911 1.47557-6.67068 1.47447-9.22645-.0011-1.28611-.74253-1.92844-1.71715-1.92568-2.69027l.0048-1.697c-.00276.97312.63958 1.94773 1.92568 2.69027 2.55577 1.47557 6.68734 1.47667 9.22645.0011 1.26146-.73307 1.89292-1.69288 1.89565-2.65413z" fill="#e2ab30"/></g><g><path d="m29.47663 32.68589c2.55577 1.47557 2.56923 3.86986.03001 5.34549-2.53911 1.47557-6.67068 1.47447-9.22645-.0011-2.55576-1.47557-2.56927-3.86763-.03015-5.3432 2.53922-1.47564 6.67083-1.47676 9.22659-.00119zm-8.14759 4.73486c1.97095 1.13793 5.16563 1.13795 7.12188.0011 1.9582-1.13798 1.94772-2.98845-.02324-4.12638-1.96904-1.13683-5.16372-1.13685-7.12191.00113-1.95625 1.13685-1.94577 2.98732.02327 4.12415" fill="#fed44c"/></g></g></g><g><g enable-background="new"><g><path d="m27.33347 34.18821-.00099.34978-.27495.15978.00099-.34978z" fill="#e2ab30"/></g><g><path d="m24.99489 35.01144.00099-.34978c.00023-.08137.05993-.15592.17764-.22433.12109-.07037.26837-.10201.4404-.09566.17344.00554.34845.05141.52512.13758l-.001.34978c-.17667-.08618-.35168-.13205-.52512-.13758-.17203-.00634-.31931.02529-.4404.09566-.1177.06841-.1774.14296-.17763.22433z" fill="#e2ab30"/></g><g><path d="m26.47066 34.68962-.00099.34978-1.01256.58843.00099-.34978z" fill="#e2ab30"/></g><g><path d="m26.93431 35.31836-.00099.34978c-.06964-.23566-.22509-.44524-.46365-.62874l.00099-.34978c.23856.1835.39401.39308.46365.62874z" fill="#e2ab30"/></g><g><path d="m27.78307 35.23453-.00099.34978-.84876.08383.00099-.34978z" fill="#e2ab30"/></g><g><path d="m24.02365 34.9578.00099-.34978c-.00005.01919.00148.03849.00462.05789.03118.20087.20321.44843.51477.74027l-.00099.34978c-.31155-.29184-.48359-.5394-.51476-.74028-.00315-.01939-.00469-.03868-.00463-.05788z" fill="#e2ab30"/></g><g><path d="m25.03814 36.0504-.00099.34978c.00002-.00409-.00012-.0082-.0004-.01232-.00592-.08861-.08582-.21514-.23831-.37725l.00099-.34978c.15249.16211.23239.28865.23831.37725.00028.00412.00041.00823.0004.01232z" fill="#e2ab30"/></g><g><path d="m24.79943 35.66083-.00099.34978-.97032.56388.00099-.34977z" fill="#e2ab30"/></g><g><path d="m22.90964 36.35598-.00099.34978c-.44551-.31556-.69337-.68567-.74632-1.11192l.00099-.34978c.05294.42626.30081.79637.74632 1.11192z" fill="#e2ab30"/></g><g><path d="m22.86426 36.78543-.00099.34978-.34793-.20088.00099-.34978z" fill="#e2ab30"/></g><g><path d="m23.25211 36.56004-.001.34978-.38784.22539.00099-.34978z" fill="#e2ab30"/></g><g><path d="m26.00051 36.10308-.00099.34978c-.00053.18739-.14408.36376-.42962.5297-.31571.18348-.68395.26733-1.10451.25308-.422-.01501-.82676-.12415-1.21428-.32582l.00099-.34978c.38752.20166.79227.31081 1.21428.32582.42056.01426.7888-.0696 1.10451-.25307.28554-.16595.42909-.34232.42962-.52971z" fill="#e2ab30"/></g><g><path d="m25.99629 36.04596c.03123.20877-.11102.40412-.4254.58682-.31571.18347-.68395.26733-1.10451.25307-.422-.01501-.82675-.12415-1.21427-.32582l-.38785.2254-.34793-.20088.39331-.22857c-.44551-.31555-.69338-.68567-.74632-1.11192l.86537-.0443c.04148.3282.19727.59948.46881.81459l1.04652-.60817c-.31156-.29184-.48359-.5394-.51477-.74027-.03254-.20166.10699-.39225.41864-.57336.31032-.18034.67304-.26576 1.08949-.25388.41785.01107.81027.1131 1.17867.30526l.26949-.15661.34793.20088-.27495.15979c.36867.24595.61061.54174.72455.88654l-.84876.08383c-.06964-.23566-.22509-.44524-.46365-.62874l-1.01255.58843.01643.00949c.31707.29657.49329.54962.52175.75842zm-1.6038.32901c.18436.0103.33847-.02056.46502-.0941.12522-.07277.18621-.15423.18023-.24279-.00592-.08861-.08582-.21514-.23831-.37725l-.97032.56389c.19168.09013.37902.13996.56338.15025m.81433-1.35396.93222-.54175c-.17667-.08618-.35168-.13205-.52512-.13758-.17203-.00634-.31931.02529-.4404.09566-.11975.0696-.17946.14555-.1776.22857.0032.08225.07211.20089.2109.3551" fill="#fed44c"/></g></g></g></g><g><path d="m29.46615 34.80599-.87121-.69146-.3171.34076.10226-.38281-1.41344.24292 1.19003-.50286-.58849-.18432.66042.06003-.42317-.81906.87204.69096.31631-.34029-.1023.38283 1.41348-.24294-1.1909.50241.58932.1848-.66124-.06051z" fill="#fff"/></g></g><g><g><g><g><g><path d="m38.07582 25.77307-.00419 1.4755-.27438-.15842.00339-1.19805-.24694-.14258.00079-.27744z" fill="#97c269"/></g><g><path d="m18.5239 2.67377 26.5162 15.30913-.0434 15.31026-26.5162-15.30914zm26.16647 30.09509.04144-14.6165-25.90708-14.95746-.04143 14.6165z" fill="#97c269"/></g><g><path d="m40.14398 27.20084c.08232.04753.148.13582.18618.24661.03817.11043.05976.24283.05936.3879-.00043.15121-.02271.25827-.06137.32435-.03868.06609-.10464.0722-.18695.02468-.08781-.0507-.15353-.13283-.19169-.24329-.03816-.11044-.05976-.24283-.05933-.39404.00041-.14506.02269-.25212.06136-.3182.03864-.06643.10464-.0787.19244-.02801z" fill="#97c269"/></g><g><path d="m39.27163 26.63414c.08739.18923.13078.40376.13014.63094-.00066.23332-.0451.39064-.13329.47885-.0882.08784-.22011.08125-.39571-.02013-.18109-.10455-.3126-.25004-.4-.43927-.08741-.18959-.1308-.39762-.13014-.63094.00064-.22717.04508-.391.13329-.47885.08818-.08821.22009-.08161.40118.02294.1756.10138.30712.24687.39453.43646zm-.21113.79369c.03868-.06607.06094-.17314.06137-.32435.00041-.14506-.02117-.27745-.05936-.3879-.03816-.11079-.10387-.19909-.18618-.24661-.08779-.05068-.1538-.03843-.19246.028-.03867.06608-.06097.17313-.06138.31819-.00043.15121.02119.28362.05936.39405.03817.11046.1039.1926.19169.24329.08232.04753.1483.04143.18696-.02467" fill="#97c269"/></g><g><path d="m38.87634 26.46897c.08232.04753.14802.13583.18618.24661.03819.11045.05976.24283.05936.3879-.00043.15121-.02269.25828-.06137.32435-.03867.0661-.10464.0722-.18695.02468-.08779-.05068-.15353-.13283-.19169-.24329-.03816-.11044-.05978-.24285-.05936-.39405.00041-.14506.02271-.25211.06138-.31819.03865-.06644.10466-.0787.19245-.02801z" fill="#97c269"/></g><g><path d="m25.4097 18.694c.08232.04753.14804.13584.18618.24661.04366.11361.05979.24285.05938.38791-.00043.15121-.01724.26143-.06139.32434-.03864.06611-.10464.0722-.18695.02468-.08779-.05068-.14804-.12966-.19169-.24329-.03814-.11042-.05977-.24283-.05934-.39404.00041-.14506.02271-.25212.06136-.3182.04414-.06327.10466-.0787.19245-.02801z" fill="#97c269"/></g><g><path d="m24.14207 17.96214c.0823.04751.14802.13583.18618.24661.04365.11361.05977.24284.05935.3879-.00043.15121-.01722.26144-.06137.32435-.03866.0661-.10465.07219-.18695.02468-.08781-.0507-.14804-.12966-.19169-.24329-.03816-.11044-.05979-.24285-.05936-.39405.00041-.14506.02271-.25212.06138-.31819.04415-.06327.10465-.07871.19246-.02801z" fill="#97c269"/></g><g><path d="m32.13188 18.76013c.35085.32252.59194.59432.71775.80608.13132.21459.19663.44178.19597.6751-.00068.23981-.08904.38447-.2486.4438-.16508.06268-.39034.02753-.67028-.10257z" fill="#6a9839"/></g><g><path d="m30.72816 15.61271c.00064-.2268.07252-.37481.22113-.44079.15406-.06253.35736-.03356.62637.09023l-.00497 1.75296c-.32893-.30984-.55359-.566-.66845-.76493-.12034-.2021-.17473-.4103-.17408-.63747z" fill="#6a9839"/></g><g><path d="m33.64785 19.13647c.31739.49917.4698 1.03537.46812 1.62824-.00168.59254-.18415.96728-.54739 1.13038-.36872.15959-.84671.0858-1.44494-.22807l-.00208.73141-.56522-.32633.00211-.74407c-.80642-.56017-1.52977-1.3441-2.1645-2.35477l.64453-.50578c.49249.77674.99654 1.35835 1.5231 1.75726l.00556-1.9613c-.66351-.56606-1.15123-1.08785-1.4577-1.56154-.30645-.47366-.45887-1.00371-.45721-1.59041.00164-.57987.17862-.95778.53638-1.12405.35774-.16593.81927-.10164 1.39009.1964l.00145-.51075.56522.32633-.00146.5169c.64187.42748 1.25577 1.03481 1.83068 1.82145l-.57883.59408c-.38871-.54002-.80524-.97649-1.25498-1.31189l-.0054 1.90417.02194.01267c.67446.57271 1.17314 1.10699 1.49053 1.59967zm-.85085 1.54864c.15955-.05934.24792-.20399.2486-.4438.00066-.23332-.06465-.46051-.19597-.6751-.1258-.21176-.36689-.48356-.71775-.80608l-.00517 1.82241c.27995.1301.50521.16525.67029.10257m-1.22632-3.67001.00497-1.75296c-.269-.12378-.4723-.15276-.62637-.09023-.14861.06598-.22049.214-.22113.44079-.00064.22717.05374.43537.17408.63746.11487.19894.33952.45511.66845.76494" fill="#6a9839"/></g><g><path d="m40.24126 18.09889-.00122.42865-2.43102-1.40354.00122-.42866z" fill="#6a9839"/></g><g><path d="m41.2478 17.86515-.0012.4225-4.43949-2.56314.0012-.4225z" fill="#6a9839"/></g><g><path d="m22.9916 10.79854c.94387.54495 1.70415 1.86832 1.70108 2.95279-.00306 1.07832-.76834 1.5209-1.71222.97596-.93838-.54177-1.70415-1.86831-1.70109-2.94663.00308-1.08448.77386-1.52389 1.71223-.98212z" fill="#6a9839"/></g><g enable-background="new"><g><path d="m22.99257 10.45199c1.11399.64316 2.01105 2.19694 2.00742 3.47677-.00361 1.27401-.90654 1.79475-2.02054 1.15158-1.11397-.64315-2.01101-2.2031-2.00739-3.47711.00362-1.27982.90654-1.79439 2.02051-1.15124zm-.01212 4.27531c.94389.54495 1.70917.10236 1.71223-.97596.00307-1.08448-.7572-2.40784-1.70109-2.95279-.93838-.54177-1.70915-.10237-1.71222.98211-.00306 1.07832.7627 2.40487 1.70108 2.94664" fill="#6a9839"/></g><g><path d="m25.73746 9.72512-.00122.42865-2.43101-1.40354.00121-.42866z" fill="#6a9839"/></g><g><path d="m26.74399 9.49138-.00119.4225-4.43949-2.56314.0012-.4225z" fill="#6a9839"/></g></g><g><path d="m31.77727 12.00569c2.86999 1.65699 5.18917 5.6804 5.17982 8.97831-.00935 3.29789-2.3437 4.6281-5.2137 2.97111-2.87005-1.65703-5.18921-5.67394-5.17986-8.97183.00935-3.29791 2.34368-4.63461 5.21374-2.97759zm1.79131 9.8894c.36325-.1631.54571-.53784.54739-1.13038.00168-.59286-.15073-1.12906-.46812-1.62824-.31739-.49269-.81607-1.02696-1.49052-1.59969l-.02194-.01267.0054-1.90417c.44975.3354.86627.77188 1.25498 1.31189l.57883-.59408c-.57492-.78664-1.18882-1.39397-1.83068-1.82145l.00146-.5169-.56522-.32633-.00145.51075c-.57082-.29804-1.03236-.36233-1.39009-.1964-.35776.16627-.53473.54418-.53638 1.12405-.00166.5867.15076 1.11675.45721 1.59041.30647.47369.79418.99548 1.4577 1.56154l-.00556 1.9613c-.52656-.39892-1.0306-.98053-1.5231-1.75726l-.64453.50578c.63474 1.01067 1.35809 1.79461 2.1645 2.35477l-.00211.74407.56522.32633.00208-.73141c.59822.31389 1.07621.38768 1.44493.22809" fill="#6a9839"/></g><g><path d="m40.54103 20.93071c.94387.54494 1.70414 1.8683 1.70106 2.95278-.00306 1.07832-.76833 1.52091-1.7122.97597-.94387-.54495-1.70415-1.86832-1.7011-2.94663.00308-1.08448.76837-1.52706 1.71224-.98212z" fill="#6a9839"/></g><g><path d="m40.54201 20.58417c1.1085.63999 2.01102 2.19693 2.00739 3.47676-.00361 1.27401-.91201 1.79159-2.02052 1.15159-1.11399-.64316-2.01101-2.2031-2.00739-3.47711.00363-1.27983.90652-1.79441 2.02052-1.15124zm-.01213 4.2753c.94387.54494 1.70915.10234 1.71221-.97597.00307-1.08448-.7572-2.40784-1.70107-2.95278s-1.70915-.10237-1.71222.98211c-.00306 1.07832.75722 2.4017 1.70108 2.94664" fill="#6a9839"/></g><g><path d="m40.53928 27.36601c.08739.18923.13076.40375.13012.63093-.00066.23332-.04508.39065-.13326.47886-.0882.08784-.22011.08125-.39571-.02013-.18109-.10455-.3126-.25004-.40002-.43928-.08739-.18958-.1308-.39762-.13014-.63094.00064-.22717.0451-.39099.13329-.47885.0882-.0882.22011-.0816.4012.02295.17559.10139.3071.24688.39452.43646zm-.21113.79369c.03866-.06608.06094-.17314.06137-.32435.00041-.14506-.02119-.27746-.05936-.3879-.03818-.1108-.10387-.19909-.18618-.24661-.08781-.0507-.1538-.03843-.19246.028-.03867.06608-.06095.17314-.06136.3182-.00043.15121.02117.28361.05933.39404.03817.11046.10389.19259.19169.24329.08233.04754.14828.04142.18697-.02467" fill="#97c269"/></g><g><path d="m23.34155 17.26623-.00419 1.47551-.27439-.15842.0034-1.19806-.24145-.1394.00078-.27745z" fill="#97c269"/></g><g><path d="m24.53734 18.12729c.08742.18924.13627.40693.13563.63411-.00066.23332-.05057.38748-.13877.47568-.08818.08786-.22009.08126-.39569-.02012-.18109-.10455-.3126-.25004-.40002-.43928-.08739-.18958-.13078-.39761-.13012-.63093.00064-.22717.04508-.391.13326-.47886.0882-.0882.22011-.0816.4012.02295.1756.10138.30712.24688.39451.43645zm-.21111.79371c.04416-.06291.06095-.17314.06137-.32435.00041-.14506-.0157-.27429-.05935-.3879-.03816-.11078-.10389-.1991-.18618-.24661-.08781-.0507-.14831-.03526-.19246.028-.03866.06608-.06096.17313-.06138.31819-.00043.15121.02119.28362.05936.39405.04366.11363.10389.19259.19169.24329.0823.04752.14829.04143.18695-.02467" fill="#97c269"/></g><g><path d="m25.80499 18.85917c.09291.19241.13625.40692.13561.6341-.00066.23332-.04506.39067-.13876.47569-.0882.08785-.22009.08126-.39571-.02013-.18109-.10455-.31258-.25003-.4-.43927-.08741-.18959-.1308-.39762-.13014-.63094.00064-.22717.04508-.391.13328-.47885.0882-.0882.22009-.08161.40118.02294.17563.10139.30713.24687.39454.43646zm-.21113.79369c.04415-.06291.06096-.17313.06139-.32434.00041-.14506-.01572-.2743-.05938-.38791-.03814-.11077-.10386-.19909-.18618-.24661-.08779-.05068-.14831-.03526-.19246.028-.03864.06609-.06094.17314-.06136.3182-.00043.15121.02119.28362.05934.39404.04365.11363.1039.1926.19169.24329.08233.04753.14832.04144.18696-.02467" fill="#97c269"/></g><g><path d="m41.64478 17.42479c-.00389 1.37458.96426 3.05166 2.16604 3.74551l-.02134 7.52908c-1.20178-.69385-2.17627-.13868-2.18016 1.2359l-19.7335-11.39314c.0039-1.37458-.96424-3.05132-2.16604-3.74518l.02135-7.52908c1.2018.69386 2.17627.13836 2.18016-1.23623zm-9.90139 6.53032c2.87 1.65699 5.20435.32678 5.2137-2.97111.00935-3.29791-2.30983-7.32132-5.17982-8.97831-2.87005-1.65703-5.20439-.32032-5.21374 2.97759-.00935 3.29789 2.3098 7.31481 5.17986 8.97183m-10.77134-12.35187c-.00361 1.27401.89342 2.83396 2.00739 3.47711 1.11399.64316 2.01693.12243 2.02054-1.15158.00363-1.27983-.89342-2.83361-2.00742-3.47677-1.11396-.64316-2.01688-.12859-2.02051 1.15124m19.55683 13.60928c1.1085.63999 2.0169.12242 2.02052-1.15159.00363-1.27983-.89889-2.83677-2.00739-3.47676-1.11399-.64316-2.01689-.12858-2.02052 1.15125-.00361 1.274.8934 2.83394 2.00739 3.4771m-3.72059-9.9105-.0012.4225 4.4395 2.56315.0012-.4225zm-14.50379-8.37377-.0012.4225 4.43948 2.56313.0012-.4225zm3.49735 13.04071c.09369-.08503.13809-.24237.13876-.47569.00064-.22717-.0427-.44169-.13561-.6341-.08741-.18959-.21891-.33507-.39453-.43646-.18109-.10455-.31297-.11114-.40118-.02294-.0882.08784-.13264.25168-.13328.47885-.00066.23332.04272.44135.13014.63094.08742.18924.21891.33472.4.43927.1756.10139.30749.10797.3957.02013m-1.26765-.73188c.0882-.0882.13811-.24236.13877-.47568.00064-.22717-.04821-.44487-.13563-.63411-.08739-.18958-.21891-.33507-.3945-.43645-.18109-.10455-.313-.11115-.4012-.02295-.08818.08786-.13262.25169-.13326.47886-.00066.23332.04272.44135.13012.63093.08742.18924.21893.33473.40002.43928.17559.10138.3075.10798.39568.02012m16.00193 9.23872c.08818-.08821.1326-.24554.13326-.47886.00064-.22717-.04272-.4417-.13012-.63093-.08742-.18959-.21893-.33508-.39453-.43646-.18109-.10455-.313-.11115-.4012-.02295-.08818.08786-.13264.25168-.13329.47885-.00066.23332.04275.44136.13014.63094.08741.18924.21893.33473.40002.43928.17561.10138.30752.10798.39572.02013m-1.26764-.73187c.08818-.08821.13262-.24553.13329-.47885.00064-.22717-.04274-.44171-.13014-.63094-.08742-.18959-.21893-.33508-.39453-.43646-.18109-.10455-.313-.11115-.40118-.02294-.0882.08785-.13264.25168-.13329.47885-.00066.23332.04272.44135.13014.63094.08739.18923.21891.33472.4.43927.17559.10137.3075.10797.39571.02013m-13.53103-18.01881-2.43102-1.40355-.00121.42867 2.43102 1.40355zm14.50378 8.37376-2.43102-1.40355-.00121.42867 2.43101 1.40355zm-2.16962 9.1497.00418-1.4755-.52134-.30099-.00079.27744.24695.14258-.0034 1.19807zm-14.73427-8.50683.00418-1.4755-.51585-.29782-.00079.27744.24146.13941-.0034 1.19807z" fill="#97c269"/></g><g><path d="m18.82473 3.1949 25.90708 14.95746-.04144 14.6165-25.90707-14.95746zm24.96474 25.50448.02134-7.52908c-1.20178-.69385-2.16993-2.37092-2.16604-3.74551l-19.73349-11.39314c-.0039 1.37458-.97836 1.93009-2.18016 1.23623l-.02135 7.52908c1.2018.69386 2.16994 2.3706 2.16604 3.74518l19.7335 11.39314c.0039-1.37459.97838-1.92975 2.18016-1.2359" fill="#6a9839"/></g></g><g><g enable-background="new"><g><path d="m45.04164 17.98346 2.42309-1.40814-.04342 15.31643-2.42309 1.40815z" fill="#5e8632"/></g><g><path d="m18.52543 2.67432 2.42309-1.40815 26.51621 15.30915-2.42309 1.40814z" fill="#7db343"/></g><g><path d="m29.96412 9.27939 2.42309-1.40814 4.42521 2.55395-2.42309 1.40815z" fill="#fed44c"/></g></g></g></g><g><path d="m34.38933 11.83335-.04915 15.31023-4.42521-2.55396.04915-15.31023z" fill="#f2bc36"/></g></g><g><g><g><g><path d="m35.01817 27.78837-.00418 1.4755-.27439-.15842.0034-1.19805-.24694-.14257.00078-.27745z" fill="#97c269"/></g><g><path d="m15.46626 4.68907 26.5162 15.30914-.0434 15.31026-26.5162-15.30914zm26.16647 30.09509.04144-14.61649-25.90708-14.95747-.04144 14.6165z" fill="#97c269"/></g><g><path d="m37.08634 29.21615c.08232.04753.148.13581.18618.24661.03816.11044.05976.24284.05935.3879-.00043.15121-.02271.25827-.06137.32435-.03868.06609-.10463.0722-.18695.02468-.08781-.0507-.15353-.13283-.19169-.24329-.03817-.11044-.05977-.24284-.05934-.39404.00041-.14506.02269-.25213.06136-.3182.03866-.06644.10465-.07871.19246-.02801z" fill="#97c269"/></g><g><path d="m36.21399 28.64944c.08739.18923.13078.40377.13014.63094-.00066.23332-.0451.39064-.13329.47885-.0882.08785-.22011.08125-.39571-.02013-.18109-.10455-.3126-.25004-.4-.43927-.08741-.18959-.1308-.39762-.13014-.63094.00064-.22717.04509-.391.13329-.47885.08818-.08821.22009-.08161.40118.02294.1756.10138.30712.24687.39453.43646zm-.21113.79369c.03868-.06607.06095-.17314.06137-.32435.00041-.14506-.02117-.27745-.05935-.3879-.03817-.11078-.10387-.19909-.18618-.24661-.08779-.05068-.1538-.03843-.19246.028-.03866.06608-.06097.17313-.06137.31819-.00043.15121.02119.28362.05936.39405.03816.11046.1039.1926.19169.24329.0823.04753.14828.04143.18694-.02467" fill="#97c269"/></g><g><path d="m35.8187 28.48427c.08232.04753.14802.13583.18618.24661.03818.11045.05976.24284.05935.3879-.00043.15121-.02269.25828-.06137.32435-.03866.0661-.10463.0722-.18695.02468-.08779-.05068-.15353-.13283-.19169-.24329-.03817-.11044-.05979-.24285-.05936-.39405.00041-.14506.02271-.25212.06137-.31819.03867-.06644.10468-.07869.19247-.02801z" fill="#97c269"/></g><g><path d="m22.35205 20.7093c.08232.04753.14804.13584.18618.24661.04365.11361.05979.24285.05938.38791-.00043.15121-.01724.26143-.0614.32434-.03864.06611-.10463.0722-.18695.02468-.08779-.05068-.14804-.12966-.19169-.24329-.03814-.11042-.05976-.24284-.05934-.39404.00041-.14506.02271-.25211.06136-.3182.04416-.06327.10468-.07869.19246-.02801z" fill="#97c269"/></g><g><path d="m21.08443 19.97744c.0823.04751.14802.13583.18618.24661.04365.11361.05976.24284.05935.3879-.00043.15121-.01722.26144-.06137.32435-.03866.0661-.10465.07219-.18695.02468-.08781-.0507-.14804-.12966-.19169-.24329-.03816-.11044-.05979-.24285-.05936-.39405.00041-.14506.02271-.25211.06138-.31819.04415-.06327.10465-.07871.19246-.02801z" fill="#97c269"/></g><g><path d="m29.07424 20.77543c.35085.32252.59194.59432.71775.80608.13132.21459.19663.44178.19597.6751-.00068.23981-.08904.38447-.2486.4438-.16508.06267-.39034.02753-.67029-.10257z" fill="#6a9839"/></g><g><path d="m27.67051 17.62801c.00064-.2268.07252-.37481.22113-.4408.15406-.06253.35736-.03356.62637.09023l-.00497 1.75296c-.32893-.30984-.55358-.566-.66845-.76493-.12034-.20208-.17472-.41029-.17408-.63746z" fill="#6a9839"/></g><g><path d="m30.59021 21.15178c.3174.49917.4698 1.03537.46812 1.62824-.00168.59254-.18414.96728-.54739 1.13038-.36872.15959-.8467.0858-1.44494-.22807l-.00207.73141-.56523-.32634.00211-.74407c-.80642-.56017-1.52977-1.34411-2.1645-2.35477l.64454-.50578c.49249.77674.99654 1.35835 1.5231 1.75727l.00556-1.9613c-.66351-.56606-1.15123-1.08785-1.4577-1.56154-.30645-.47366-.45887-1.00371-.45721-1.59041.00164-.57987.17862-.95778.53638-1.12405.35774-.16593.81927-.10164 1.39009.1964l.00145-.51075.56522.32633-.00146.5169c.64187.42748 1.25577 1.03481 1.83068 1.82145l-.57883.59408c-.38871-.54002-.80524-.97649-1.25498-1.3119l-.0054 1.90417.02194.01267c.67445.57271 1.17313 1.10699 1.49052 1.59968zm-.85085 1.54863c.15955-.05934.24792-.20399.2486-.4438.00066-.23332-.06465-.46051-.19597-.6751-.12581-.21176-.36689-.48356-.71775-.80608l-.00517 1.82241c.27995.1301.50521.16525.67029.10257m-1.22632-3.67001.00497-1.75296c-.269-.12378-.4723-.15276-.62637-.09023-.14861.06598-.22049.214-.22113.4408-.00064.22717.05374.43538.17408.63746.11487.19894.33952.4551.66845.76493" fill="#6a9839"/></g><g><path d="m37.18361 20.11419-.00121.42866-2.43102-1.40355.00121-.42866z" fill="#6a9839"/></g><g><path d="m38.19016 19.88046-.0012.4225-4.43949-2.56315.00119-.4225z" fill="#6a9839"/></g><g><path d="m19.93396 12.81384c.94387.54495 1.70416 1.86832 1.70108 2.95279-.00306 1.07832-.76834 1.5209-1.71222.97596-.93838-.54177-1.70415-1.86831-1.70109-2.94663.00308-1.08448.77385-1.52389 1.71223-.98212z" fill="#6a9839"/></g><g enable-background="new"><g><path d="m19.93493 12.46729c1.11399.64316 2.01104 2.19694 2.00742 3.47677-.00361 1.27401-.90654 1.79475-2.02054 1.15158-1.11397-.64315-2.01101-2.2031-2.00739-3.47711.00362-1.27982.90654-1.79439 2.02051-1.15124zm-.01212 4.27531c.94389.54495 1.70917.10236 1.71223-.97596.00307-1.08448-.7572-2.40784-1.70109-2.95279-.93838-.54177-1.70915-.10237-1.71222.98211-.00307 1.07832.7627 2.40487 1.70108 2.94664" fill="#6a9839"/></g><g><path d="m22.67982 11.74042-.00122.42866-2.43102-1.40355.00122-.42866z" fill="#6a9839"/></g><g><path d="m23.68635 11.50668-.0012.4225-4.43948-2.56314.0012-.4225z" fill="#6a9839"/></g></g><g><path d="m28.71962 14.021c2.86999 1.65699 5.18917 5.6804 5.17982 8.97831-.00935 3.29789-2.3437 4.6281-5.2137 2.97111-2.87006-1.65703-5.18921-5.67394-5.17986-8.97183.00936-3.29792 2.34369-4.63462 5.21374-2.97759zm1.79132 9.88939c.36325-.1631.54572-.53784.54739-1.13038.00168-.59286-.15072-1.12907-.46812-1.62824-.31739-.49269-.81607-1.02696-1.49052-1.59969l-.02194-.01267.0054-1.90417c.44975.3354.86627.77188 1.25498 1.3119l.57883-.59408c-.57492-.78664-1.18882-1.39397-1.83068-1.82145l.00146-.5169-.56522-.32633-.00145.51075c-.57082-.29804-1.03236-.36233-1.39009-.1964-.35776.16627-.53473.54418-.53638 1.12405-.00166.5867.15076 1.11675.45721 1.59041.30647.47369.79418.99548 1.4577 1.56154l-.00556 1.9613c-.52656-.39892-1.03061-.98053-1.5231-1.75727l-.64454.50578c.63474 1.01067 1.35809 1.79461 2.1645 2.35477l-.00211.74409.56522.32633.00207-.73141c.59824.31387 1.07623.38766 1.44495.22807" fill="#6a9839"/></g><g><path d="m37.48339 22.94601c.94387.54495 1.70414 1.86831 1.70106 2.95278-.00306 1.07832-.76833 1.52091-1.7122.97597s-1.70415-1.86831-1.7011-2.94663c.00308-1.08448.76837-1.52706 1.71224-.98212z" fill="#6a9839"/></g><g><path d="m37.48436 22.59947c1.1085.63999 2.01102 2.19693 2.0074 3.47676-.00361 1.27401-.91202 1.79159-2.02052 1.15159-1.11399-.64316-2.01101-2.2031-2.00739-3.47711.00363-1.27983.90652-1.79441 2.02051-1.15124zm-.01212 4.2753c.94387.54494 1.70915.10234 1.71221-.97597.00307-1.08448-.75721-2.40784-1.70107-2.95278s-1.70915-.10237-1.71222.98211c-.00306 1.07832.75722 2.4017 1.70108 2.94664" fill="#6a9839"/></g><g><path d="m37.48164 29.38132c.08739.18923.13076.40375.13012.63093-.00066.23332-.04509.39065-.13327.47886-.0882.08785-.22011.08125-.39571-.02013-.18109-.10455-.3126-.25004-.40002-.43928-.08739-.18958-.1308-.39762-.13014-.63094.00064-.22717.0451-.39099.13329-.47885.0882-.0882.22011-.0816.4012.02295.1756.10138.30711.24687.39453.43646zm-.21114.79369c.03867-.06608.06095-.17314.06137-.32435.00041-.14506-.02119-.27746-.05935-.3879-.03819-.1108-.10387-.19909-.18618-.24661-.08781-.0507-.1538-.03843-.19246.028-.03866.06608-.06094.17314-.06136.3182-.00043.15121.02117.28361.05934.39404.03816.11046.10388.19259.19169.24329.08232.04753.14827.04142.18695-.02467" fill="#97c269"/></g><g><path d="m20.2839 19.28153-.00418 1.47551-.27439-.15842.0034-1.19806-.24146-.1394.00079-.27745z" fill="#97c269"/></g><g><path d="m21.4797 20.1426c.08742.18924.13627.40693.13563.63411-.00066.23332-.05058.38748-.13878.47568-.08818.08786-.22009.08126-.39569-.02012-.18109-.10455-.3126-.25004-.40002-.43928-.08739-.18958-.13078-.39761-.13012-.63093.00064-.22717.04508-.391.13326-.47886.0882-.0882.22011-.0816.4012.02295.17561.10138.30713.24687.39452.43645zm-.21111.7937c.04416-.06291.06095-.17314.06137-.32435.00041-.14506-.0157-.27429-.05935-.3879-.03816-.11078-.10389-.1991-.18618-.24661-.08781-.0507-.14831-.03526-.19246.028-.03866.06608-.06097.17313-.06138.31819-.00043.15121.02119.28362.05936.39405.04365.11363.10388.19259.19169.24329.0823.04752.14829.04143.18695-.02467" fill="#97c269"/></g><g><path d="m22.74735 20.87447c.09291.19241.13625.40692.13561.6341-.00066.23332-.04506.39067-.13876.47569-.0882.08785-.22009.08126-.39571-.02013-.18109-.10455-.31258-.25003-.4-.43927-.08742-.18959-.1308-.39762-.13014-.63094.00064-.22717.04508-.391.13329-.47885.0882-.0882.22009-.08161.40118.02294.17562.10139.30711.24687.39453.43646zm-.21113.79369c.04416-.06291.06097-.17313.0614-.32434.00041-.14506-.01572-.2743-.05938-.38791-.03814-.11077-.10387-.19909-.18618-.24661-.08779-.05068-.14831-.03526-.19246.028-.03864.06609-.06095.17314-.06136.3182-.00043.15121.02119.28362.05934.39404.04366.11363.1039.1926.19169.24329.08231.04753.1483.04144.18695-.02467" fill="#97c269"/></g><g><path d="m38.58714 19.4401c-.0039 1.37458.96426 3.05166 2.16604 3.74551l-.02135 7.52908c-1.20178-.69385-2.17626-.13868-2.18016 1.2359l-19.7335-11.39314c.0039-1.37458-.96424-3.05132-2.16604-3.74518l.02135-7.52908c1.2018.69386 2.17627.13836 2.18016-1.23623zm-9.90139 6.53031c2.86999 1.65699 5.20435.32678 5.2137-2.97111.00935-3.29791-2.30983-7.32132-5.17982-8.97831-2.87005-1.65703-5.20439-.32032-5.21374 2.97759-.00935 3.29789 2.3098 7.31481 5.17986 8.97183m-10.77134-12.35187c-.00361 1.27401.89342 2.83396 2.00739 3.47711 1.11399.64316 2.01692.12243 2.02054-1.15158.00363-1.27983-.89342-2.83361-2.00742-3.47677-1.11396-.64316-2.01688-.12859-2.02051 1.15124m19.55683 13.60928c1.1085.63999 2.01691.12242 2.02052-1.15159.00363-1.27983-.8989-2.83677-2.0074-3.47676-1.11399-.64317-2.01689-.12859-2.02052 1.15124-.0036 1.27401.89341 2.83395 2.0074 3.47711m-3.72059-9.9105-.0012.4225 4.4395 2.56315.0012-.4225zm-14.50379-8.37376-.0012.4225 4.43948 2.56313.0012-.4225zm3.49734 13.0407c.09369-.08503.13809-.24237.13876-.47569.00064-.22717-.0427-.44169-.13561-.6341-.08742-.18959-.21891-.33507-.39453-.43646-.18109-.10455-.31298-.11114-.40118-.02294-.0882.08785-.13264.25168-.13329.47885-.00066.23332.04272.44135.13014.63094.08741.18924.21891.33472.4.43927.17562.10139.30751.10798.39571.02013m-1.26765-.73188c.0882-.0882.13811-.24236.13878-.47568.00064-.22717-.04821-.44487-.13563-.63411-.08739-.18958-.21891-.33507-.39451-.43645-.18109-.10455-.313-.11115-.4012-.02295-.08818.08786-.13262.25169-.13326.47886-.00066.23332.04272.44135.13012.63093.08741.18924.21893.33473.40002.43928.1756.10138.3075.10798.39568.02012m16.00194 9.23872c.08818-.08821.1326-.24554.13327-.47886.00064-.22717-.04272-.4417-.13012-.63093-.08741-.18959-.21893-.33508-.39453-.43646-.18108-.10455-.313-.11115-.4012-.02295-.08818.08786-.13264.25168-.13329.47885-.00066.23332.04274.44136.13014.63094.08741.18924.21893.33473.40002.43928.1756.10138.30751.10798.39571.02013m-1.26765-.73187c.08818-.08821.13263-.24553.13329-.47885.00064-.22717-.04274-.44171-.13014-.63094-.08741-.18959-.21893-.33508-.39453-.43646-.18108-.10455-.313-.11115-.40118-.02294-.0882.08785-.13264.25168-.13329.47885-.00066.23332.04272.44135.13014.63094.08739.18923.21891.33472.4.43927.1756.10138.30751.10797.39571.02013m-13.53103-18.01881-2.43101-1.40355-.00121.42867 2.43101 1.40355zm14.50379 8.37377-2.43102-1.40355-.00121.42867 2.43102 1.40355zm-2.16962 9.1497.00418-1.4755-.52134-.30099-.00079.27744.24695.14258-.0034 1.19807zm-14.73427-8.50684.00418-1.4755-.51585-.29782-.00079.27744.24146.13941-.0034 1.19807z" fill="#97c269"/></g><g><path d="m15.76709 5.2102 25.90708 14.95746-.04144 14.61649-25.90708-14.95745zm24.96474 25.50448.02135-7.52908c-1.20178-.69385-2.16994-2.37092-2.16604-3.74551l-19.7335-11.39313c-.0039 1.37458-.97836 1.93009-2.18016 1.23623l-.02135 7.52908c1.2018.69386 2.16994 2.3706 2.16604 3.74518l19.7335 11.39314c.0039-1.3746.97838-1.92976 2.18016-1.23591" fill="#6a9839"/></g></g><g><g enable-background="new"><g><path d="m41.984 19.99877 2.42309-1.40815-.04342 15.31643-2.4231 1.40815z" fill="#5e8632"/></g><g><path d="m15.46779 4.68962 2.42309-1.40814 26.51621 15.30914-2.42309 1.40815z" fill="#7db343"/></g><g><path d="m26.90648 11.2947 2.42309-1.40815 4.42521 2.55396-2.42309 1.40814z" fill="#fed44c"/></g></g></g></g><g><path d="m31.33169 13.84865-.04915 15.31023-4.42521-2.55395.04915-15.31023z" fill="#f2bc36"/></g></g><g><g><g><g><path d="m31.96053 29.80367-.00418 1.4755-.27439-.15842.0034-1.19805-.24695-.14257.00079-.27745z" fill="#97c269"/></g><g><path d="m12.40861 6.70437 26.5162 15.30914-.0434 15.31026-26.5162-15.30914zm26.16648 30.09509.04144-14.61649-25.90708-14.95746-.04144 14.61649z" fill="#97c269"/></g><g><path d="m34.0287 31.23145c.08232.04753.148.13582.18618.24661.03816.11044.05976.24284.05935.3879-.00043.15121-.02271.25827-.06137.32435-.03868.06609-.10464.0722-.18695.02468-.08781-.0507-.15353-.13283-.19169-.24329-.03816-.11044-.05976-.24284-.05934-.39404.00041-.14506.02269-.25212.06136-.3182.03866-.06644.10465-.07871.19246-.02801z" fill="#97c269"/></g><g><path d="m33.15635 30.66474c.08739.18923.13078.40376.13014.63094-.00066.23332-.0451.39064-.13329.47885-.0882.08785-.22011.08125-.39571-.02013-.18108-.10455-.3126-.25004-.39999-.43927-.08742-.18959-.1308-.39762-.13014-.63094.00064-.22717.04509-.391.13329-.47885.08818-.08821.22009-.08161.40118.02294.17559.10138.3071.24687.39452.43646zm-.21113.79369c.03868-.06607.06094-.17314.06137-.32435.00041-.14506-.02117-.27745-.05935-.3879-.03816-.11079-.10387-.19909-.18618-.24661-.08779-.05068-.1538-.03843-.19246.028-.03866.06608-.06096.17313-.06137.31819-.00043.15121.02119.28362.05936.39405.03816.11046.1039.1926.19169.24329.0823.04753.14827.04143.18694-.02467" fill="#97c269"/></g><g><path d="m32.76105 30.49957c.08232.04753.14802.13583.18618.24661.03818.11045.05976.24283.05935.3879-.00043.15121-.02269.25828-.06137.32435-.03867.0661-.10464.0722-.18695.02468-.08779-.05069-.15353-.13283-.19169-.24329-.03816-.11044-.05979-.24285-.05936-.39405.00041-.14506.02271-.25211.06137-.31819.03867-.06644.10468-.07869.19247-.02801z" fill="#97c269"/></g><g><path d="m19.29441 22.7246c.08232.04753.14804.13584.18618.24661.04365.1136.05979.24285.05937.38791-.00066.23335-.04702.46525-.24835.34901-.08779-.05068-.14804-.12966-.19169-.24329-.03814-.11042-.05976-.24283-.05934-.39404.00041-.14506.02271-.25211.06136-.3182.04416-.06325.10468-.07868.19247-.028z" fill="#97c269"/></g><g><path d="m18.02678 21.99274c.0823.04751.14802.13583.18618.24661.04366.11361.05977.24283.05935.3879-.00043.15121-.01722.26144-.06137.32435-.03866.0661-.10466.07219-.18695.02468-.08781-.0507-.14804-.12966-.19169-.24329-.03816-.11043-.05979-.24285-.05936-.39405.00041-.14506.02271-.25212.06138-.31819.04416-.06327.10466-.07871.19246-.02801z" fill="#97c269"/></g><g><path d="m26.0166 22.79074c.35085.32252.59194.59432.71775.80608.13132.21459.19663.44178.19597.6751-.00068.23981-.08904.38447-.24859.4438-.16508.06268-.39034.02753-.67029-.10257z" fill="#6a9839"/></g><g><path d="m24.61287 19.64331c.00064-.2268.07252-.37481.22113-.44079.15406-.06253.35736-.03356.62637.09023l-.00497 1.75295c-.32893-.30984-.55358-.566-.66845-.76493-.12034-.20208-.17472-.41028-.17408-.63746z" fill="#6a9839"/></g><g><path d="m27.53257 23.16708c.3174.49917.4698 1.03537.46812 1.62824-.00168.59254-.18414.96728-.54739 1.13038-.36872.15959-.8467.0858-1.44494-.22806l-.00207.73141-.56522-.32633.00211-.74407c-.80642-.56017-1.52977-1.34411-2.1645-2.35477l.64453-.50578c.49249.77674.99654 1.35835 1.5231 1.75726l.00556-1.9613c-.66352-.56606-1.15123-1.08785-1.4577-1.56154-.30645-.47366-.45887-1.00371-.45721-1.59041.00164-.57987.17862-.95778.53638-1.12405.35774-.16593.81927-.10164 1.39009.1964l.00145-.51075.56522.32633-.00147.5169c.64187.42748 1.25577 1.03481 1.83068 1.82145l-.57883.59408c-.38871-.54002-.80524-.97649-1.25498-1.31189l-.0054 1.90417.02194.01267c.67446.5727 1.17314 1.10697 1.49053 1.59966zm-.85085 1.54863c.15955-.05934.24792-.20399.24859-.4438.00066-.23332-.06465-.46051-.19597-.6751-.12581-.21176-.3669-.48356-.71775-.80608l-.00517 1.82241c.27995.1301.50521.16525.6703.10257m-1.22632-3.67001.00497-1.75296c-.269-.12378-.4723-.15276-.62637-.09023-.14861.06598-.22049.21399-.22113.44079-.00064.22717.05374.43538.17408.63746.11486.19895.33951.45511.66845.76494" fill="#6a9839"/></g><g><path d="m34.12597 22.12949-.00121.42866-2.43102-1.40355.00121-.42866z" fill="#6a9839"/></g><g><path d="m35.13251 21.89576-.00119.4225-4.4395-2.56314.0012-.42251z" fill="#6a9839"/></g><g><path d="m16.87632 14.82914c.94387.54495 1.70415 1.86831 1.70108 2.95279-.00306 1.07832-.76834 1.5209-1.71222.97596-.93838-.54177-1.70415-1.86831-1.70109-2.94663.00307-1.08448.77385-1.52389 1.71223-.98212z" fill="#6a9839"/></g><g enable-background="new"><g><path d="m16.87729 14.4826c1.11399.64316 2.01104 2.19694 2.00742 3.47677-.00361 1.27401-.90655 1.79475-2.02054 1.15158-1.11397-.64315-2.01101-2.2031-2.00739-3.47711.00362-1.27983.90653-1.7944 2.02051-1.15124zm-.01213 4.2753c.94389.54495 1.70917.10236 1.71223-.97596.00307-1.08448-.7572-2.40784-1.70109-2.95279-.93838-.54177-1.70915-.10237-1.71223.98211-.00305 1.07832.76272 2.40487 1.70109 2.94664" fill="#6a9839"/></g><g><path d="m19.62217 13.75572-.00121.42866-2.43102-1.40355.00122-.42866z" fill="#6a9839"/></g><g><path d="m20.62871 13.52198-.0012.4225-4.43948-2.56313.0012-.42251z" fill="#6a9839"/></g></g><g><path d="m25.66198 16.0363c2.87 1.65699 5.18917 5.6804 5.17982 8.97831-.00935 3.29789-2.3437 4.6281-5.2137 2.97111-2.87005-1.65703-5.18921-5.67394-5.17986-8.97183.00935-3.29792 2.34369-4.63462 5.21374-2.97759zm1.79131 9.88939c.36325-.1631.54571-.53784.54739-1.13038.00168-.59286-.15072-1.12906-.46812-1.62824-.31739-.49269-.81607-1.02696-1.49052-1.59969l-.02194-.01267.0054-1.90417c.44975.3354.86627.77188 1.25498 1.31189l.57883-.59408c-.57491-.78664-1.18882-1.39397-1.83068-1.82145l.00147-.5169-.56522-.32633-.00145.51075c-.57082-.29804-1.03236-.36233-1.39009-.1964-.35776.16627-.53473.54418-.53638 1.12405-.00166.5867.15076 1.11675.45721 1.59041.30647.47369.79418.99548 1.4577 1.56154l-.00556 1.9613c-.52656-.39892-1.0306-.98053-1.5231-1.75726l-.64453.50578c.63474 1.01067 1.35809 1.79461 2.1645 2.35477l-.00211.74407.56522.32633.00207-.73141c.59823.31389 1.07622.38768 1.44493.22809" fill="#6a9839"/></g><g><path d="m34.42575 24.96131c.94387.54495 1.70414 1.86831 1.70106 2.95278-.00306 1.07832-.76833 1.52091-1.7122.97597-.94387-.54495-1.70415-1.86832-1.7011-2.94664.00308-1.08447.76837-1.52705 1.71224-.98211z" fill="#6a9839"/></g><g><path d="m34.42672 24.61477c1.1085.63999 2.01102 2.19693 2.0074 3.47676-.00361 1.27401-.91201 1.79159-2.02052 1.1516-1.11399-.64317-2.01101-2.2031-2.0074-3.47711.00363-1.27984.90653-1.79441 2.02052-1.15125zm-.01212 4.2753c.94387.54494 1.70915.10234 1.71221-.97597.00307-1.08448-.7572-2.40784-1.70107-2.95278s-1.70915-.10237-1.71223.98211c-.00305 1.07832.75722 2.4017 1.70109 2.94664" fill="#6a9839"/></g><g><path d="m34.42399 31.39662c.08739.18923.13076.40375.13012.63092-.00066.23332-.04508.39066-.13327.47886-.0882.08785-.22011.08125-.39571-.02013-.18108-.10455-.3126-.25004-.40002-.43928-.08739-.18958-.1308-.39762-.13014-.63094.00064-.22717.0451-.39099.13329-.47885.0882-.0882.22011-.0816.4012.02295.1756.10139.30712.24688.39453.43647zm-.21113.79369c.03866-.06608.06094-.17314.06137-.32435.00041-.14506-.02119-.27746-.05935-.3879-.03819-.1108-.10387-.19909-.18618-.24661-.08781-.0507-.1538-.03843-.19246.028-.03866.06608-.06094.17314-.06136.3182-.00043.15121.02118.28361.05934.39404.03816.11046.10389.19259.19169.24329.08232.04753.14827.04142.18695-.02467" fill="#97c269"/></g><g><path d="m17.22626 21.29683-.00418 1.47551-.27439-.15842.0034-1.19806-.24146-.1394.00079-.27745z" fill="#97c269"/></g><g><path d="m18.42206 22.1579c.08742.18924.13627.40693.13563.63411-.00066.23332-.05057.38748-.13877.47568-.08818.08786-.22009.08126-.39569-.02012-.18109-.10455-.3126-.25004-.40002-.43928-.08739-.18958-.13078-.39761-.13012-.63093.00064-.22717.04509-.391.13327-.47886.0882-.0882.22011-.0816.4012.02295.17559.10138.30711.24687.3945.43645zm-.21111.7937c.04415-.06291.06094-.17314.06137-.32435.00041-.14506-.0157-.27429-.05935-.3879-.03816-.11079-.10389-.1991-.18618-.24661-.08781-.0507-.14831-.03526-.19246.028-.03866.06608-.06096.17313-.06138.31819-.00043.15121.02119.28362.05936.39405.04365.11363.10388.19259.19169.24329.08229.04752.14829.04143.18695-.02467" fill="#97c269"/></g><g><path d="m19.6897 22.88977c.09291.19241.13625.40692.13561.6341-.00257.90783-.7195.48164-.93446.01629-.08741-.18959-.1308-.39762-.13014-.63094.00064-.22717.04508-.391.13329-.47885.0882-.0882.22009-.08161.40118.02294.17562.10139.30711.24687.39452.43646zm-.21113.79369c.04416-.06291.06096-.17313.06139-.32434.00041-.14506-.01572-.27431-.05937-.38791-.03814-.11077-.10387-.19909-.18618-.24661-.08779-.05068-.14831-.03526-.19246.028-.03864.06609-.06095.17314-.06136.3182-.00043.15121.02119.28362.05934.39404.04365.11363.1039.1926.19169.24329.08232.04753.14831.04145.18695-.02467" fill="#97c269"/></g><g><path d="m35.5295 21.4554c-.00389 1.37458.96426 3.05166 2.16604 3.74551l-.02134 7.52908c-1.20178-.69385-2.17627-.13868-2.18016 1.2359l-19.7335-11.39314c.0039-1.37458-.96424-3.05132-2.16604-3.74518l.02135-7.52908c1.2018.69386 2.17626.13836 2.18016-1.23623zm-9.9014 6.53032c2.87 1.65699 5.20435.32678 5.2137-2.97111.00935-3.29791-2.30983-7.32132-5.17982-8.97831-2.87005-1.65703-5.20439-.32032-5.21374 2.97759-.00935 3.29789 2.30981 7.3148 5.17986 8.97183m-10.77133-12.35188c-.00361 1.27401.89342 2.83396 2.00739 3.47711 1.11399.64316 2.01693.12243 2.02054-1.15158.00363-1.27983-.89342-2.83361-2.00742-3.47677-1.11397-.64316-2.01688-.12859-2.02051 1.15124m19.55683 13.60928c1.1085.63999 2.0169.12242 2.02052-1.1516.00363-1.27983-.8989-2.83677-2.0074-3.47676-1.11399-.64316-2.01689-.12859-2.02052 1.15125-.00361 1.27401.89341 2.83395 2.0074 3.47711m-3.7206-9.9105-.0012.4225 4.4395 2.56315.0012-.4225zm-14.50378-8.37376-.0012.4225 4.43948 2.56313.0012-.4225zm3.49734 13.0407c.09369-.08503.13809-.24237.13876-.47569.00064-.22717-.0427-.44169-.13561-.6341-.08741-.18959-.21891-.33507-.39453-.43646-.18109-.10455-.31297-.11114-.40118-.02294-.0882.08785-.13264.25168-.13329.47885-.00066.23332.04272.44135.13014.63094.13475.29169.58232.67193.79571.4594m-1.26765-.73188c.0882-.0882.13811-.24236.13877-.47568.00064-.22717-.04821-.44487-.13563-.63411-.08739-.18958-.21891-.33507-.3945-.43645-.18109-.10455-.313-.11115-.4012-.02295-.08818.08786-.13262.25169-.13327.47886-.00066.23332.04272.44135.13012.63093.08742.18924.21893.33473.40002.43928.1756.10139.30751.10798.39569.02012m16.00194 9.23872c.08818-.08821.13261-.24554.13327-.47886.00064-.22717-.04272-.4417-.13012-.63092-.08741-.18959-.21893-.33508-.39452-.43646-.18109-.10455-.313-.11115-.4012-.02295-.08818.08786-.13264.25168-.13329.47885-.00066.23332.04274.44136.13014.63094.08742.18924.21893.33473.40002.43928.17559.10137.3075.10797.3957.02012m-1.26765-.73187c.08818-.08821.13263-.24553.13329-.47885.00064-.22717-.04274-.44171-.13014-.63094-.08741-.18959-.21893-.33508-.39452-.43646-.18109-.10455-.313-.11115-.40118-.02294-.0882.08785-.13264.25168-.13329.47885-.00066.23332.04272.44135.13014.63094.08739.18923.21891.33472.39999.43927.1756.10138.30751.10798.39571.02013m-13.53103-18.01881-2.43101-1.40355-.00121.42867 2.43101 1.40355zm14.50378 8.37377-2.43101-1.40355-.00121.42867 2.43102 1.40355zm-2.16961 9.1497.00418-1.4755-.52134-.30099-.00079.27744.24695.14258-.0034 1.19807zm-14.73427-8.50684.00418-1.4755-.51585-.29782-.00079.27744.24146.13941-.0034 1.19807z" fill="#97c269"/></g><g><path d="m12.70945 7.22551 25.90707 14.95746-.04144 14.61649-25.90707-14.95746zm24.96474 25.50447.02134-7.52908c-1.20178-.69385-2.16993-2.37092-2.16604-3.74551l-19.73349-11.39313c-.0039 1.37458-.97836 1.93009-2.18016 1.23623l-.02135 7.52908c1.2018.69386 2.16994 2.3706 2.16604 3.74518l19.7335 11.39314c.00389-1.37459.97838-1.92976 2.18016-1.23591" fill="#6a9839"/></g></g><g><g enable-background="new"><g><path d="m38.92635 22.01407 2.4231-1.40815-.04343 15.31644-2.42309 1.40815z" fill="#5e8632"/></g><g><path d="m12.41014 6.70493 2.4231-1.40815 26.51621 15.30914-2.4231 1.40815z" fill="#7db343"/></g><g><path d="m23.84883 13.31 2.4231-1.40815 4.42521 2.55396-2.42309 1.40814z" fill="#fed44c"/></g></g></g></g><g><path d="m28.27405 15.86395-.04915 15.31023-4.42521-2.55395.04914-15.31023z" fill="#f2bc36"/></g></g></g><g><g><g><g><g enable-background="new"><g><path d="m18.3601 28.16381-1.62193.94424c-.36188.2106-.79286.29943-1.2732.2567-.30596-.02635-.63166-.10859-.97382-.25012-.18423-.07566-.37174-.16771-.56256-.27967-2.18122-1.25669-3.9479-4.31962-3.94132-6.81999 0 0 0 0 0-.00321v-.08883c.01315-.58891.125-1.08898.31582-1.49685.08554-.17767.18423-.33895.29939-.48032.15462-.19084.33556-.34891.53953-.4673l1.62193-.94087c-.20397.11839-.38491.27309-.53953.46714-.11516.13815-.21385.29943-.2961.4771-.19409.40787-.30596.91131-.31584 1.49685 0 .02956-.00327.05928-.00327.09221-.00659 2.50358 1.7601 5.56314 3.94132 6.82321.19082.10859.38162.20064.56586.27646.33887.14136.66457.22361.97053.25317.48033.04289.9113-.04932 1.27319-.25992z" fill="#fed44c"/></g><g><path d="m18.36095 28.16541-1.62311.94325c.70969-.41243 1.15039-1.28825 1.15392-2.53164l1.6231-.94324c-.00352 1.24338-.44422 2.1192-1.15391 2.53163z" fill="#fed44c"/></g><g><path d="m11.14178 19.47986 1.6231-.94324c.71918-.41794 1.71463-.3599 2.81182.27356l-1.62311.94324c-1.09718-.63346-2.09264-.6915-2.81181-.27356z" fill="#fed44c"/></g><g><path d="m13.95359 19.75342 1.62311-.94324c2.17822 1.2576 3.94527 4.31816 3.93817 6.8236l-1.6231.94324c.00709-2.50544-1.75996-5.56601-3.93818-6.8236z" fill="#fed44c"/></g><g><path d="m14.33646 19.4605c2.17822 1.2576 3.94527 4.31817 3.93817 6.8236-.0071 2.50294-1.7857 3.51643-3.96392 2.25883-2.18032-1.25881-3.94736-4.31938-3.94027-6.82232.00711-2.50542 1.78571-3.51891 3.96602-2.26011z" fill="#f2bc36"/></g><g><path d="m13.95739 18.41133c2.82727 1.63233 5.11146 5.59114 5.10225 8.83996-.00921 3.24869-2.30833 4.55884-5.13561 2.92651-2.82727-1.63232-5.11355-5.58986-5.10434-8.83855.00922-3.24881 2.31044-4.56024 5.1377-2.92792zm-.02955 10.42452c2.17822 1.25759 3.95682.24411 3.96391-2.25883.0071-2.50543-1.75995-5.566-3.93817-6.8236-2.18032-1.25881-3.95891-.24532-3.96602 2.26011-.00708 2.50295 1.75996 5.56351 3.94028 6.82232" fill="#f9c73a"/></g></g></g><g><g enable-background="new"><g><path d="m14.15969 26.60547.28187-.1638-.00135.47684-.28187.1638z" fill="#e2ab30"/></g><g><path d="m12.79729 24.51255.28187-.16381c.3221.5078.65478.89233.99549 1.15082l-.28187.16381c-.34071-.25849-.67339-.64301-.99549-1.15082z" fill="#fed44c"/></g><g><path d="m14.1617 25.89694.28187-.16381c.18519.08483.33091.10726.43972.06723l-.28187.16381c-.10882.04003-.25454.0176-.43972-.06723z" fill="#fed44c"/></g><g><path d="m14.92277 25.78198-.28187.16381c-.01224.00711-.0254.01324-.03948.01839l.28187-.16381c.01407-.00515.02723-.01128.03948-.01839z"/></g><g><path d="m14.16508 24.70416.28187-.1638-.00338 1.19278-.28187.1638z" fill="#e2ab30"/></g><g><path d="m14.16737 23.89582.28188-.1638.01787.01031-.28188.16381z" fill="#fed44c"/></g><g><path d="m13.3725 22.37165.28187-.16381c-.08222.04778-.12451.13854-.1249.2746-.00042.14669.03755.2862.11391.41694.07764.13156.22295.29773.43722.50077l-.28187.16381c-.21427-.20304-.35958-.36921-.43722-.50077-.07635-.13075-.11433-.27026-.11391-.41695.00039-.13604.04268-.2268.1249-.27459z" fill="#fed44c"/></g><g><path d="m14.18524 23.90614.28187-.16381c.4414.37539.76524.72395.97277 1.04658l-.28187.16381c-.20753-.32263-.53136-.6712-.97277-1.04658z" fill="#fed44c"/></g><g><path d="m15.44191 26.56311-.28187.16381c.20298-.11796.30597-.35374.30698-.70975.0011-.3873-.10275-.74263-.30901-1.06445l.28187-.16381c.20625.32182.31011.67715.30901 1.06445-.00101.35601-.104.59179-.30698.70975z" fill="#fed44c"/></g><g><path d="m14.1709 22.65179.28187-.16381-.00352 1.24404-.28188.1638z" fill="#e2ab30"/></g><g><path d="m12.85179 21.60577.28187-.1638c.01397-.00812.02841-.01568.04333-.02268.23305-.10789.53601-.06667.90888.12652l-.28188.16381c-.37286-.19319-.67582-.23441-.90887-.12652-.01492.00699-.02936.01455-.04333.02267z" fill="#fed44c"/></g><g><path d="m13.80493 21.37811.28187-.16381.36898.21303-.28187.16381z" fill="#fed44c"/></g><g><path d="m14.17391 21.59114.28187-.16381-.00096.33882-.28187.16381z" fill="#e2ab30"/></g><g><path d="m14.17295 21.92996.28187-.16381c.42249.27924.82164.67575 1.19743 1.18801l-.28187.16381c-.3758-.51226-.77495-.90877-1.19743-1.18801z" fill="#fed44c"/></g><g><path d="m15.37038 23.11797.28187-.1638-.37581.39434-.28187.16381z" fill="#e2ab30"/></g><g><path d="m15.15801 24.95272c.20626.32182.31011.67715.30901 1.06445-.00109.38586-.12199.63049-.36016.73694-.23943.10571-.55515.05569-.94717-.14863l-.00135.47684-.36897-.21303.00137-.48416c-.52584-.3653-.99755-.87864-1.41512-1.53995l.42167-.33262c.3221.5078.65478.89233.99549 1.15082l.00364-1.28518c-.43375-.36945-.75121-.70995-.95238-1.02007-.20117-.31011-.30122-.65735-.30013-1.03884.00108-.38141.11815-.62681.35121-.73621.23305-.10788.53601-.06667.90888.12652l.00094-.3315.36897.21303-.00096.33883c.42248.27924.82163.67575 1.19743 1.18801l-.37581.39434c-.25348-.35498-.52761-.64113-.82367-.86053l-.00353 1.24404.01787.01032c.44141.37538.76524.72395.97277 1.04658zm-.5566 1.01145c.10754-.03932.16152-.13603.16195-.29004.00044-.15552-.04134-.30162-.12535-.44116-.08529-.14036-.24208-.31612-.47294-.5288l-.00338 1.19278c.18519.08482.33091.10725.43972.06722m-.80267-2.40021.00325-1.14574c-.17241-.08192-.30791-.1014-.4065-.05835-.09732.04371-.14746.13817-.14788.28637-.00042.14669.03756.2862.11391.41695.07763.13157.22295.29774.43722.50077" fill="#f9c73a"/></g></g></g></g><g><path d="m20.68424 26.30812c-.00657 1.6154-.57574 2.75033-1.49362 3.28333l-1.62522.94425c.92117-.53638 1.49034-1.6713 1.49362-3.28333.00988-3.2504-2.27332-7.20826-5.10265-8.84005-1.42125-.82248-2.71091-.89814-3.64194-.35855l1.62193-.94103c.93103-.5428 2.2207-.46714 3.64522.35534 2.82604 1.63178 5.10925 5.58964 5.10266 8.84004z" fill="#fed44c"/></g></g><g><path d="m17.37777 27.63477.09272.31282-.19187-.26389-.34331.63258.11229-.71092-.31281.09275.26387-.1919-.63257-.34328.71091.11227-.09273-.31279.19188.26385.34329-.63255-.11227.71089.3128-.09271-.26386.19186.63256.34331z" fill="#fff"/></g></g></g></svg>