<svg height="443pt" viewBox="-20 0 443 443.84841" width="443pt" xmlns="http://www.w3.org/2000/svg"><path d="m21.582031 287.253906-.015625.015625 199.148438 66.105469 142.613281 47.339844c25.128906 8.339844 46.113281-12.644532 37.773437-37.777344l-47.339843-142.609375-66.007813-198.851563c-1.347656-5.144531-3.707031-9.511718-7.152344-12.957031-26.917968-26.917969-109.550781 12.078125-184.566406 87.09375s-114.007812 157.648438-87.09375 184.5625c3.378906 3.378907 7.632813 5.714844 12.640625 7.078125zm0 0" fill="#ffea63"/><path d="m400.757812 361.910156c-5.308593 1.125-11.242187.855469-17.433593-1.199218l-142.609375-47.335938-199.148438-66.105469.015625-.015625c-5.007812-1.363281-9.261719-3.699218-12.640625-7.078125-11.453125-11.453125-10.964844-33.003906-.847656-59.761719-27.117188 44.660157-35.90625 83.007813-19.152344 99.761719 3.378906 3.378907 7.632813 5.714844 12.640625 7.078125l-.015625.015625 199.148438 66.105469 142.609375 47.335938c25.132812 8.34375 46.117187-12.640626 37.777343-37.773438zm0 0" fill="#ffd551"/><g fill="#ffea63"><path d="m127.527344 373.847656c-15.1875 0-27.5-12.3125-27.5-27.5v-112.5h55v112.5c0 15.1875-12.3125 27.5-27.5 27.5zm0 0"/><path d="m252.027344 443.847656c-15.1875 0-27.5-12.3125-27.5-27.5v-112.5h55v112.5c0 15.1875-12.3125 27.5-27.5 27.5zm0 0"/><path d="m302.078125 411.535156c-12.457031 0-22.550781-10.09375-22.550781-22.546875v-92.257812h45.101562v92.257812c0 12.453125-10.09375 22.546875-22.550781 22.546875zm0 0"/></g><path d="m288.277344 23.046875c-37.332032-1.40625-102.222656 35.546875-162.242188 95.566406-65.707031 65.707031-103.773437 137.257813-94.121094 172.089844l50.527344 16.773437c9.707032-37.898437 43.425782-90.460937 92.710938-139.75 45.683594-45.683593 94.179687-77.984374 131.207031-90.195312zm0 0" fill="#ffd551"/><path d="m21.566406 287.269531 28.5 9.460938c4.652344-38.238281 40.238282-97.152344 95.085938-152.003907 54.828125-54.824218 113.71875-90.402343 151.953125-95.078124l-9.351563-28.171876c-1.347656-5.144531-3.707031-9.511718-7.152344-12.960937-26.917968-26.914063-109.550781 12.078125-184.566406 87.097656-75.015625 75.015625-114.007812 157.648438-87.09375 184.5625 3.378906 3.378907 7.632813 5.714844 12.640625 7.078125zm0 0" fill="#db9c2e"/><path d="m218.765625 240.445312c0 19.328126-15.671875 35-35 35s-35-15.671874-35-35c0-19.332031 15.671875-35 35-35s35 15.667969 35 35zm0 0" fill="#ffc34c"/><path d="m228.765625 230.445312c0 19.328126-15.671875 35-35 35s-35-15.671874-35-35c0-19.332031 15.671875-35 35-35s35 15.667969 35 35zm0 0" fill="#ff624b"/><path d="m203.765625 255.445312c-19.328125 0-35-15.671874-35-35 0-7.109374 2.125-13.714843 5.765625-19.238281-9.496094 6.261719-15.765625 17.015625-15.765625 29.238281 0 19.328126 15.671875 35 35 35 12.222656 0 22.976563-6.269531 29.234375-15.765624-5.519531 3.640624-12.128906 5.765624-19.234375 5.765624zm0 0" fill="#ff4b34"/><path d="m343.363281 280.445312c0 19.328126-15.671875 35-35 35-19.332031 0-35-15.671874-35-35 0-19.332031 15.667969-35 35-35 19.328125 0 35 15.667969 35 35zm0 0" fill="#ffd551"/><path d="m353.363281 270.445312c0 19.328126-15.671875 35-35 35-19.332031 0-35-15.671874-35-35 0-19.332031 15.667969-35 35-35 19.328125 0 35 15.667969 35 35zm0 0" fill="#ff624b"/><path d="m328.363281 295.445312c-19.332031 0-35-15.671874-35-35 0-7.109374 2.121094-13.714843 5.761719-19.238281-9.496094 6.261719-15.761719 17.015625-15.761719 29.238281 0 19.328126 15.667969 35 35 35 12.222657 0 22.972657-6.269531 29.234375-15.765624-5.519531 3.640624-12.128906 5.765624-19.234375 5.765624zm0 0" fill="#ff4b34"/><path d="m282.972656 131.914062c0 19.332032-15.667968 35-35 35-19.328125 0-35-15.667968-35-35 0-19.328124 15.671875-35 35-35 19.332032 0 35 15.671876 35 35zm0 0" fill="#ffc34c"/><path d="m292.972656 121.914062c0 19.332032-15.667968 35-35 35-19.328125 0-35-15.667968-35-35 0-19.328124 15.671875-35 35-35 19.332032 0 35 15.671876 35 35zm0 0" fill="#ff624b"/><path d="m236.972656 131.914062c0-19.328124 15.671875-35 35-35 4.484375 0 8.765625.851563 12.707032 2.390626-6.421876-7.574219-16-12.390626-26.707032-12.390626-19.328125 0-35 15.671876-35 35 0 14.847657 9.25 27.523438 22.296875 32.613282-5.171875-6.101563-8.296875-13.988282-8.296875-22.613282zm0 0" fill="#ff4b34"/><path d="m322.589844 207.285156-39.660156 15.277344c-4.121094 1.589844-8.753907-.464844-10.339844-4.589844l-6.214844-16.125c-1.589844-4.125.464844-8.753906 4.589844-10.339844l39.65625-15.28125c4.125-1.589843 8.753906.464844 10.34375 4.589844l6.210937 16.125c1.589844 4.125-.464843 8.753906-4.585937 10.34375zm0 0" fill="#ffd551"/><path d="m328.589844 198.285156-39.660156 15.277344c-4.121094 1.589844-8.753907-.464844-10.339844-4.589844l-6.214844-16.125c-1.589844-4.125.464844-8.753906 4.589844-10.339844l39.65625-15.28125c4.125-1.589843 8.753906.464844 10.34375 4.589844l6.210937 16.125c1.589844 4.125-.464843 8.753906-4.585937 10.34375zm0 0" fill="#99af17"/><path d="m264.863281 34.222656c0 9.328125-7.5625 16.890625-16.890625 16.890625-9.324218 0-16.886718-7.5625-16.886718-16.890625s7.5625-16.886718 16.886718-16.886718c9.328125 0 16.890625 7.558593 16.890625 16.886718zm0 0" fill="#bf6c0d"/><path d="m218.582031 51.109375c0 9.328125-7.5625 16.890625-16.890625 16.890625-9.324218 0-16.886718-7.5625-16.886718-16.890625 0-9.324219 7.5625-16.886719 16.886718-16.886719 9.328125 0 16.890625 7.5625 16.890625 16.886719zm0 0" fill="#bf6c0d"/><path d="m41.566406 247.269531.015625-.015625c-5.007812-1.363281-9.261719-3.699218-12.640625-7.078125-11.453125-11.453125-10.964844-33.003906-.847656-59.761719-27.117188 44.660157-35.90625 83.007813-19.152344 99.761719 3.378906 3.378907 7.632813 5.714844 12.640625 7.078125l-.015625.015625 28.5 9.460938c1.484375-12.207031 6.136719-26.527344 13.546875-42.144531zm0 0" fill="#bf6c0d"/></svg>