<svg id="Capa_1" enable-background="new 0 0 510 510" height="512" viewBox="0 0 510 510" width="512" xmlns="http://www.w3.org/2000/svg" xmlns:xlink="http://www.w3.org/1999/xlink"><linearGradient id="lg1"><stop offset="0" stop-color="#f8f6f7"/><stop offset=".1788" stop-color="#f8f6f7"/><stop offset="1" stop-color="#e7e6f5"/></linearGradient><linearGradient id="SVGID_1_" gradientUnits="userSpaceOnUse" x1="48" x2="439.005" xlink:href="#lg1" y1="301" y2="301"/><linearGradient id="lg2"><stop offset="0" stop-color="#bbec6c"/><stop offset=".5857" stop-color="#78a91f"/><stop offset="1" stop-color="#02905d"/></linearGradient><linearGradient id="SVGID_2_" gradientUnits="userSpaceOnUse" x1="53" x2="475.74" xlink:href="#lg2" y1="362.798" y2="362.798"/><linearGradient id="SVGID_3_" gradientUnits="userSpaceOnUse" x1="53" x2="475.74" xlink:href="#lg2" y1="255" y2="255"/><linearGradient id="SVGID_4_" gradientUnits="userSpaceOnUse" x1="53" x2="475.74" xlink:href="#lg2" y1="194.731" y2="194.731"/><linearGradient id="lg3"><stop offset="0" stop-color="#f8f6f7"/><stop offset="1" stop-color="#d1ceeb"/></linearGradient><linearGradient id="SVGID_5_" gradientUnits="userSpaceOnUse" x1="152.446" x2="443.997" xlink:href="#lg3" y1="301" y2="301"/><linearGradient id="lg4"><stop offset="0" stop-color="#feb237"/><stop offset="1" stop-color="#fd6930"/></linearGradient><linearGradient id="SVGID_6_" gradientUnits="userSpaceOnUse" x1="148.274" x2="442.18" xlink:href="#lg4" y1="39.716" y2="39.716"/><linearGradient id="SVGID_7_" gradientUnits="userSpaceOnUse" x1="164" x2="329.001" xlink:href="#lg4" y1="39.716" y2="39.716"/><linearGradient id="SVGID_8_" gradientUnits="userSpaceOnUse" x1="120.93" x2="397.332" xlink:href="#lg1" y1="84.432" y2="84.432"/><linearGradient id="SVGID_9_" gradientUnits="userSpaceOnUse" x1="160.27" x2="440.856" xlink:href="#lg3" y1="84.432" y2="84.432"/><linearGradient id="lg5"><stop offset="0" stop-color="#fff9df"/><stop offset=".593" stop-color="#ffe177"/><stop offset="1" stop-color="#feb237"/></linearGradient><linearGradient id="SVGID_10_" gradientUnits="userSpaceOnUse" x1="194.34" x2="336.003" xlink:href="#lg5" y1="389.843" y2="389.843"/><linearGradient id="SVGID_11_" gradientUnits="userSpaceOnUse" x1="122" x2="316.064" xlink:href="#lg5" y1="389.843" y2="389.843"/><linearGradient id="SVGID_12_" gradientUnits="userSpaceOnUse" x1="8" x2="382.482" xlink:href="#lg2" y1="272.84" y2="272.84"/><linearGradient id="SVGID_13_" gradientUnits="userSpaceOnUse" x1="8" x2="382.482" xlink:href="#lg2" y1="379.218" y2="379.218"/><g><path d="m355.017 135.771v-43.771h-200.034v43.771c0 24.804-10.999 48.331-30.031 64.238l-39.066 32.65c-29.927 25.012-41.792 65.618-30.039 102.809l46.817 148.152c4.963 15.704 19.532 26.38 36.002 26.38h232.668c16.47 0 31.039-10.676 36.002-26.38l46.817-148.152c11.752-37.19-.112-77.796-30.039-102.809l-39.066-32.65c-19.032-15.906-30.031-39.433-30.031-64.238z" fill="url(#SVGID_1_)"/><g><path d="m414.936 300.964c-4.602-26.676-34.939-37.236-54.237-19.087-28.815 27.099-70.359 31.507-103.248 10.986l-71.126-44.381c-21.193-13.224-47.697-10.819-66.162 5.992-23.468 21.366-32.231 55.828-22.344 87.149l38.678 122.528c4.035 12.782 15.458 21.449 28.237 21.449h180.533c12.779 0 24.202-8.667 28.237-21.449l38.678-122.528c4.229-13.402 5.045-27.377 2.754-40.659z" fill="url(#SVGID_2_)"/><circle cx="306.794" cy="255" fill="url(#SVGID_3_)" r="32.25"/><circle cx="237.512" cy="194.731" fill="url(#SVGID_4_)" r="23.219"/></g><path d="m454.15 335.47-46.81 148.15c-4.97 15.7-19.54 26.38-36.01 26.38h-40.02c16.47 0 31.04-10.68 36.01-26.38l46.81-148.15c11.76-37.19-.11-77.8-30.04-102.81l-39.06-32.65c-8.398-7.022-15.233-15.527-20.249-24.97-12.235-23.034-36.163-37.45-62.245-37.45h-107.576c.01-.6.02-1.21.02-1.82v-43.77h200.04v43.77c0 .61.01 1.22.02 1.82.52 24.14 11.45 46.9 30.01 62.42l39.06 32.65c29.93 25.01 41.8 65.62 30.04 102.81z" fill="url(#SVGID_5_)"/><path d="m339.891 79.432h-169.782l-11.568-42.661c-5.024-18.53 8.929-36.771 28.128-36.771h136.661c19.199 0 33.153 18.241 28.128 36.771z" fill="url(#SVGID_6_)"/><path d="m323.33 0h-40.02c19.199 0 33.153 18.241 28.128 36.771l-11.568 42.661h40.02l11.568-42.661c5.025-18.53-8.929-36.771-28.128-36.771z" fill="url(#SVGID_7_)"/><g><path d="m356.658 56.288h-203.316c-15.543 0-28.144 12.6-28.144 28.144 0 15.543 12.6 28.144 28.144 28.144h203.316c15.543 0 28.144-12.6 28.144-28.144-.001-15.544-12.601-28.144-28.144-28.144z" fill="url(#SVGID_8_)"/><path d="m356.658 56.288h-40.02c15.543 0 28.144 12.6 28.144 28.144 0 15.543-12.6 28.144-28.144 28.144h40.02c15.543 0 28.144-12.6 28.144-28.144-.001-15.544-12.601-28.144-28.144-28.144z" fill="url(#SVGID_9_)"/></g><path d="m312.974 417.832c-2.797-2.264-3.469-6.232-1.668-9.348 5.529-9.566 8.692-20.672 8.682-32.517-.028-35.979-29.01-64.936-64.989-64.936-35.892 0-64.988 29.096-64.988 64.988 0 11.863 3.181 22.981 8.733 32.553 1.786 3.08 1.048 7.019-1.719 9.259-4.485 3.631-7.015 7.74-7.015 12.092 0 8.149 8.865 15.446 22.841 20.35v8.385c0 5.522 4.476 9.998 9.998 9.998h9.263c5.522 0 9.998-4.476 9.998-9.998 0 5.522 4.476 9.998 9.998 9.998h9.263c5.522 0 9.998-4.476 9.998-9.998 0 5.522 4.476 9.998 9.998 9.998h9.263c5.522 0 9.998-4.476 9.998-9.998v-9.699c11.95-4.848 19.36-11.586 19.36-19.036 0-4.352-2.529-8.46-7.014-12.091zm-94.575-22.62c-11.6-5.481-17.216-17.941-12.544-27.831s17.865-13.463 29.465-7.981c11.6 5.481 17.216 17.942 12.544 27.831-4.673 9.889-17.865 13.462-29.465 7.981zm49.955 25.89c0 2.091-.963 3.977-2.442 4.784-6.802 3.708-15.021 3.708-21.823 0-1.479-.807-2.443-2.693-2.443-4.784 0-8.83 3.242-17.127 8.72-22.318l.017-.016c2.59-2.454 6.646-2.455 9.237-.003.001.001.001.001.001.001 5.485 5.19 8.732 13.492 8.732 22.329v.007zm23.247-25.89c-11.6 5.481-24.792 1.908-29.465-7.981s.943-22.35 12.544-27.831c11.6-5.481 24.792-1.908 29.465 7.981 4.672 9.889-.944 22.35-12.544 27.831z" fill="url(#SVGID_10_)"/><path d="m312.977 417.835c-2.764-2.238-3.538-6.138-1.751-9.213 5.578-9.597 8.771-20.752 8.762-32.655-.028-35.979-29.01-64.936-64.989-64.936-4.27 0-8.439.424-12.479 1.21 23.958 4.647 43.128 22.371 49.852 45.503 5.169 1.498 9.489 4.808 11.772 9.638 4.594 9.722-.761 21.924-11.964 27.542-1.451 4.776-3.434 9.32-5.885 13.561-1.832 3.169-.985 7.167 1.843 9.491 4.376 3.596 6.839 7.654 6.839 11.948 0 6.208-5.146 11.922-13.776 16.46-3.467 1.823-5.583 5.473-5.583 9.39v2.885c0 2.32-.798 4.45-2.124 6.147 1.83 2.341 4.673 3.851 7.874 3.851h9.263c5.522 0 9.998-4.476 9.998-9.998v-9.699c11.95-4.848 19.36-11.586 19.36-19.036-.001-4.352-2.529-8.459-7.012-12.089z" fill="url(#SVGID_11_)"/><g><path d="m146.305 248.482 71.126 44.381c19.885 12.408 42.932 15.687 64.419 10.362-8.426-2.097-16.654-5.529-24.399-10.362l-71.126-44.381c-15.316-9.557-33.405-10.946-49.23-4.639 3.149 1.244 6.233 2.782 9.21 4.639z" fill="url(#SVGID_12_)"/><path d="m414.936 300.964c-4.431-25.683-32.712-36.415-52.034-20.982 5.986 4.847 10.464 11.995 12.014 20.982 2.291 13.283 1.475 27.257-2.755 40.659l-38.678 122.528c-4.035 12.782-15.458 21.449-28.237 21.449h40.02c12.779 0 24.202-8.667 28.237-21.449l38.678-122.528c4.23-13.402 5.046-27.377 2.755-40.659z" fill="url(#SVGID_13_)"/></g></g></svg>