<svg id="Capa_1" enable-background="new 0 0 512 512" height="512" viewBox="0 0 512 512" width="512" xmlns="http://www.w3.org/2000/svg"><g><path d="m295.129 44.414h-78.257l-9.021-33.043c-1.564-5.726 2.746-11.371 8.682-11.371h78.935c5.935 0 10.246 5.645 8.682 11.371z" fill="#e4936b"/><path d="m295.467 0h-35.046l-2.759 10.105c-2.209 8.092-9.56 13.705-17.949 13.705h-28.468l5.625 20.604 39.13 10.302 39.129-10.302 9.021-33.044c1.563-5.725-2.747-11.37-8.683-11.37z" fill="#e27d47"/><path d="m305.269 175.143v-90.12c0-.027.022-.048.048-.048h.549c11.201 0 20.281-9.08 20.281-20.281 0-11.201-9.08-20.281-20.281-20.281h-99.733c-11.201 0-20.281 9.08-20.281 20.281 0 11.201 9.08 20.281 20.281 20.281h.549c.027 0 .048.022.048.048v90.12c0 31.621-15.167 61.449-41.02 79.657-40.341 28.411-66.697 75.347-66.697 128.438 0 52.568 25.839 99.102 65.508 127.593 1.068.767 2.356 1.169 3.67 1.169h175.615c1.315 0 2.603-.402 3.67-1.169 39.67-28.491 65.508-75.025 65.508-127.593 0-53.092-26.355-100.027-66.697-128.438-25.85-18.207-41.018-48.036-41.018-79.657z" fill="#ddeafb"/><path d="m346.289 254.8c-25.853-18.207-41.02-48.036-41.02-79.657v-90.12c0-.027.022-.048.048-.048h.017c11.022 0 20.433-8.57 20.8-19.586.385-11.517-8.838-20.975-20.269-20.975h-20.929c-.111 7.105-3.875 13.322-9.497 16.858-6.592 4.145-10.835 11.152-10.886 18.938l-.492 74.329c0 31.621 15.167 61.449 41.02 79.657 40.341 28.411 66.696 75.347 66.696 128.438 0 1.11-.011 2.218-.034 3.323-1.452 69.92-59.471 125.439-129.406 125.439h-100.12c6.801 7.152 14.268 13.663 22.303 19.435 1.068.767 2.357 1.169 3.672 1.169h175.614c1.315 0 2.603-.402 3.67-1.169 39.669-28.492 65.508-75.025 65.508-127.593.002-53.091-26.353-100.027-66.695-128.438z" fill="#cbe2ff"/><path d="m342.563 284.607c-.804-.707-1.857-1.075-2.927-1.049-19.514.469-20.142 8.219-40.872 8.219-21.379 0-21.379-8.241-42.757-8.241s-21.378 8.241-42.756 8.241c-20.736 0-21.362-7.752-40.886-8.219-1.07-.026-2.123.343-2.927 1.049-28.192 24.791-44.669 60.723-44.669 98.632 0 39.729 18.06 77.23 48.739 102.068.755.611 1.703.939 2.675.939h159.635c.971 0 1.92-.327 2.675-.939 30.679-24.838 48.739-62.34 48.739-102.068-.001-37.91-16.478-73.841-44.669-98.632z" fill="#e28086"/><path d="m387.231 383.238c0-29.059-9.682-56.956-26.901-79.564 7.382 18.204 11.448 38.108 11.448 58.961 0 1.11-.011 2.218-.034 3.323-1.191 57.342-40.427 104.998-93.08 120.288h57.153c.971 0 1.92-.327 2.675-.939 30.679-24.838 48.739-62.34 48.739-102.069z" fill="#dd636e"/><circle cx="251.847" cy="171.669" fill="#e28086" r="15.43"/><path d="m266.525 176.442c.488-1.503.752-3.107.752-4.772 0-3.348-1.066-6.446-2.878-8.975.386 4.651 1.099 9.244 2.126 13.747z" fill="#dd636e"/><circle cx="267.466" cy="234.95" fill="#e28086" r="19.74"/><path d="m247.586 405.401-17.964 50.3c-.834 2.334.897 4.79 3.375 4.79h11.45c1.225 0 2.365-.626 3.023-1.659l48.637-76.396c2.218-3.484-.285-8.045-4.415-8.045h-18.377c-3.619 0-6.146-3.586-4.929-6.994l15.311-42.872c1.217-3.408-1.31-6.994-4.929-6.994h-31.453c-2.212 0-4.185 1.39-4.929 3.474l-27.01 75.632c-1.217 3.408 1.31 6.994 4.929 6.994h26.034c.915 0 1.555.907 1.247 1.77z" fill="#f4dd45"/><path d="m279.515 92.701h-47.03c-4.268 0-7.726-3.459-7.726-7.726 0-4.268 3.459-7.726 7.726-7.726h47.03c4.268 0 7.726 3.459 7.726 7.726s-3.458 7.726-7.726 7.726z" fill="#cbe2ff"/><path d="m279.515 92.701c4.268 0 7.726-3.459 7.726-7.726 0-4.268-3.459-7.726-7.726-7.726h-14.736c-.141.971-.218 1.96-.225 2.962l-.083 12.491h15.044z" fill="#bed8fb"/><path d="m150.523 390.965c-4.268 0-7.726-3.459-7.726-7.726 0-29.146 11.07-56.847 31.172-78.001 2.938-3.095 7.83-3.219 10.923-.279 3.094 2.939 3.218 7.83.279 10.923-17.36 18.27-26.921 42.191-26.921 67.357-.001 4.267-3.459 7.726-7.727 7.726z" fill="#e4989d"/><g fill="#dd636e"><circle cx="168.822" cy="413.455" r="7.726"/><circle cx="191.94" cy="440.999" r="7.726"/><circle cx="324.022" cy="354.625" r="7.726"/><circle cx="316.296" cy="440.999" r="7.726"/><circle cx="341.005" cy="327.565" r="7.726"/></g></g></svg>