<svg id="Capa_1" enable-background="new 0 0 512 512" height="512" viewBox="0 0 512 512" width="512" xmlns="http://www.w3.org/2000/svg"><g><path d="m346.244 107.43-5.634-2.15-29.6-29.262-2.001-5.766c-2.477-1.055-5.161-1.622-7.906-1.622h-90.206c-2.745 0-5.429.567-7.906 1.622l-1.164 5.089-31.038 30.7-5.032 1.389c-1.085 2.508-1.673 5.229-1.673 8.014v46.58c.116-.001.231-.013.348-.013h183.135c.118 0 .233.012.351.013v-46.581c-.001-2.784-.589-5.505-1.674-8.013z" fill="#ff8086"/><path d="m202.99 70.252-1.164 5.089-31.038 30.7-5.032 1.389c-1.085 2.508-1.673 5.229-1.673 8.014v46.58c.116-.001.231-.013.348-.013h52.981v-44.043l39.604-49.339h-46.118c-2.746.001-5.43.568-7.908 1.623z" fill="#e5646e"/><path d="m216.396 117.969h79.207v44.043h-79.207z" fill="#ff9a9f"/><path d="m216.396 117.969-13.406-47.717c-2.355 1.003-4.524 2.446-6.368 4.291l-26.626 26.626c-1.816 1.816-3.239 3.948-4.24 6.261z" fill="#ff8086"/><path d="m309.009 70.252-13.406 47.717 50.64-10.539c-1.001-2.312-2.423-4.445-4.24-6.261-9.952-9.952-16.679-16.679-26.626-26.626-1.844-1.845-4.013-3.288-6.368-4.291z" fill="#ff9a9f"/><g><path d="m351.812 73.94c-.729-4.14 2.035-8.087 6.175-8.817l22.641-3.989c4.139-.731 8.087 2.035 8.817 6.175.729 4.14-2.035 8.087-6.175 8.817l-22.641 3.989c-4.135.73-8.087-2.029-8.817-6.175z" fill="#ffe07d"/></g><g><path d="m333.471 45.144c-3.443-2.412-4.28-7.158-1.868-10.601l13.189-18.831c2.411-3.444 7.158-4.279 10.601-1.868s4.28 7.158 1.868 10.601l-13.189 18.831c-2.411 3.443-7.157 4.279-10.601 1.868z" fill="#ffe07d"/></g><g><path d="m291.324 31.575-3.99-22.642c-.729-4.14 2.035-8.087 6.175-8.817 4.137-.728 8.087 2.035 8.817 6.175l3.99 22.642c.729 4.14-2.035 8.087-6.175 8.817-4.139.731-8.088-2.034-8.817-6.175z" fill="#ffe07d"/></g><path d="m390.581 205.069-6.162-1.685-45.952 30.616v4.77c29.148 23.881 47.751 60.154 47.751 100.775 0 71.917-58.301 130.218-130.218 130.218s-130.218-58.301-130.218-130.218c0-40.621 18.603-76.895 47.751-100.775l-1.053-4.94-44.654-28.763h-6.41l-29.004 63.413c-46.516 116.738 39.488 246.067 167.437 243.482 123.338-2.5 205.4-128.882 159.736-243.482z" fill="#fff0af"/><path d="m108.882 338.869c0-44.957 20.794-85.702 44.344-117.441l-25.4-16.361h-6.41l-29.004 63.413c-46.516 116.738 39.488 246.067 167.437 243.482 8.029-.163 15.878-.862 23.533-2.037-76.661-3.03-174.5-71.56-174.5-171.056z" fill="#ffe07d"/><path d="m347.566 155.923h-183.135c-12.512 0-23.874 7.297-29.078 18.675l-13.936 30.469 52.116 33.703c22.457-18.399 51.171-29.443 82.467-29.443s60.011 11.044 82.467 29.443l52.114-33.701-13.937-30.471c-5.204-11.378-16.566-18.675-29.078-18.675z" fill="#ffe07d"/><path d="m135.353 174.598-13.936 30.469 29.713 19.215c26.251-36.249 56.653-61.305 65.662-68.359h-52.361c-12.512 0-23.874 7.297-29.078 18.675z" fill="#ffd064"/></g></svg>