<svg id="Capa_1" enable-background="new 0 0 497 497" height="512" viewBox="0 0 497 497" width="512" xmlns="http://www.w3.org/2000/svg"><path d="m251.2.02v496.96c136-1.44 245.8-112.14 245.8-248.48s-109.8-247.04-245.8-248.48z" fill="#ffbb54"/><path d="m251.2.02c-.9-.01-1.8-.02-2.7-.02-137.24 0-248.5 111.26-248.5 248.5s111.26 248.5 248.5 248.5c.9 0 1.8-.01 2.7-.02 113.9-1.72 205.8-112.31 205.8-248.48s-91.9-246.76-205.8-248.48z" fill="#ffd45a"/><path d="m347 218.7-97.23 124.25h99.89c17.13-21.83 27.34-49.35 27.34-79.25v-15c0-16.5-13.5-30-30-30z" fill="#b74147"/><path d="m150 218.7c-16.5 0-30 13.5-30 30v15c0 29.9 10.21 57.42 27.34 79.25l187.05-16.32c8.03-18.6 12.61-40.07 12.61-62.93v-14.997s-197-30.003-197-30.003z" fill="#ff3c1f"/><path d="m334.39 326.63-84.62 65.56c40.55-.39 76.6-19.56 99.89-49.24-4.61-5.87-9.72-11.34-15.27-16.32z" fill="#fa4087"/><path d="m334.39 326.63c-16.68 38.69-48.28 64.96-84.62 65.56-.42.01-.85.01-1.27.01-41.07 0-77.63-19.26-101.16-49.25 23.53-29.98 60.09-49.25 101.16-49.25 33.02 0 63.13 12.46 85.89 32.93z" fill="#fa71a3"/><path d="m317 218.7-15 45h30c8.25 0 15-6.75 15-15v-30z" fill="#fff7df"/><path d="m317 218.7v30c0 8.25-6.75 15-15 15h-137c-8.25 0-15-6.75-15-15v-30z" fill="#fff"/><path d="m256 429.703h-15c-4.143 0-7.5-3.358-7.5-7.5s3.357-7.5 7.5-7.5h15c4.143 0 7.5 3.358 7.5 7.5s-3.357 7.5-7.5 7.5z" fill="#ffbb54"/><g fill="#474867"><path d="m332 113.7c-8.25 0-15 6.75-15 15v45c0 8.25 6.75 15 15 15s15-6.75 15-15v-45c0-8.25-6.75-15-15-15z"/><path d="m165 113.703c-8.25 0-15 6.75-15 15v45c0 8.25 6.75 15 15 15s15-6.75 15-15v-45c0-8.25-6.75-15-15-15z"/></g></svg>