<svg height="511pt" viewBox="-90 0 511 511.99975" width="511pt" xmlns="http://www.w3.org/2000/svg"><path d="m130.976562 64.316406c0 35.523438-28.796874 64.320313-64.320312 64.320313-35.519531 0-64.316406-28.796875-64.316406-64.320313 0-35.519531 28.796875-64.316406 64.316406-64.316406 35.523438 0 64.320312 28.796875 64.320312 64.316406zm0 0" fill="#d16e4f"/><path d="m98.433594 64.316406c0 17.550782-14.226563 31.777344-31.777344 31.777344-17.546875 0-31.773438-14.226562-31.773438-31.777344 0-17.546875 14.226563-31.773437 31.773438-31.773437 17.550781 0 31.777344 14.226562 31.777344 31.773437zm0 0" fill="#f7e7ca"/><path d="m329.699219 64.316406c0 35.523438-28.796875 64.320313-64.320313 64.320313-35.523437 0-64.316406-28.796875-64.316406-64.320313 0-35.519531 28.792969-64.316406 64.316406-64.316406 35.523438 0 64.320313 28.796875 64.320313 64.316406zm0 0" fill="#d16e4f"/><path d="m297.15625 64.316406c0 17.550782-14.226562 31.777344-31.777344 31.777344-17.550781 0-31.777344-14.226562-31.777344-31.777344 0-17.546875 14.226563-31.773437 31.777344-31.773437 17.550782 0 31.777344 14.226562 31.777344 31.773437zm0 0" fill="#f7e7ca"/><path d="m233.386719 401.621094c-.636719 0-1.046875-.007813-1.203125-.011719l1.5-51.570313-.195313-.003906c.320313 0 32.484375.171875 53.339844-22.3125 9.691406-10.445312 26.011719-11.058594 36.457031-1.371094 10.445313 9.691407 11.058594 26.011719 1.367188 36.457032-34.445313 37.132812-82.828125 38.8125-91.265625 38.8125zm0 0" fill="#de7b5c"/><path d="m98.648438 401.621094c.640624 0 1.050781-.007813 1.207031-.011719l-1.503907-51.570313.195313-.003906c-.316406 0-32.484375.171875-53.339844-22.3125-9.6875-10.445312-26.011719-11.058594-36.453125-1.371094-10.445312 9.691407-11.058594 26.011719-1.371094 36.457032 34.445313 37.132812 82.828126 38.8125 91.265626 38.8125zm0 0" fill="#de7b5c"/><path d="m95.429688 463.261719c-20.195313-17.25-32.816407-42.433594-32.816407-72.25 0-57.113281 46.292969-103.40625 103.40625-103.40625 57.109375 0 103.40625 46.292969 103.40625 103.40625 0 29.820312-12.625 55-32.816406 72.25zm0 0" fill="#d16e4f"/><path d="m236.609375 463.261719c-18.488281 15.804687-43.296875 24.964843-70.589844 24.964843s-52.105469-9.160156-70.589843-24.957031v-.007812c0-94.175781 70.589843-91.804688 70.589843-91.804688s70.589844-2.371093 70.589844 91.804688zm0 0" fill="#f7e7ca"/><path d="m325.722656 186.507812c0-86.195312-71.503906-156.074218-159.703125-156.074218-88.203125 0-159.703125 69.878906-159.703125 156.074218 0 86.199219 71.5 156.074219 159.703125 156.074219 88.199219 0 159.703125-69.875 159.703125-156.074219zm0 0" fill="#de7b5c"/><path d="m37.21875 186.507812c0-81.101562 63.300781-147.746093 144.253906-155.34375-5.085937-.476562-10.242187-.730468-15.453125-.730468-88.203125 0-159.703125 69.878906-159.703125 156.074218 0 86.199219 71.5 156.074219 159.703125 156.074219 5.210938 0 10.367188-.25 15.453125-.726562-80.953125-7.597657-144.253906-74.246094-144.253906-155.347657zm0 0" fill="#d16e4f"/><path d="m87.953125 194.953125c-4.269531 0-7.726563-3.460937-7.726563-7.726563v-14.128906c0-4.265625 3.457032-7.726562 7.726563-7.726562 4.265625 0 7.726563 3.460937 7.726563 7.726562v14.128906c0 4.265626-3.460938 7.726563-7.726563 7.726563zm0 0" fill="#3a484a"/><path d="m244.085938 194.953125c-4.269532 0-7.726563-3.460937-7.726563-7.726563v-14.128906c0-4.265625 3.457031-7.726562 7.726563-7.726562 4.265624 0 7.726562 3.460937 7.726562 7.726562v14.128906c0 4.265626-3.460938 7.726563-7.726562 7.726563zm0 0" fill="#3a484a"/><path d="m187.839844 178.007812c11.3125 7.210938 18.804687 19.867188 18.804687 34.269532 0 22.441406-18.1875 40.636718-40.625 40.636718-22.441406 0-40.628906-18.195312-40.628906-40.636718 0-14.402344 7.492187-27.058594 18.804687-34.269532zm0 0" fill="#f7e7ca"/><path d="m166.019531 231.339844c-7.917969 0-15.355469-3.316406-20.410156-9.097656-2.808594-3.210938-2.476563-8.09375.734375-10.902344s8.09375-2.480469 10.902344.734375c2.117187 2.421875 5.316406 3.8125 8.773437 3.8125 3.453125 0 6.652344-1.390625 8.769531-3.8125 2.808594-3.214844 7.691407-3.539063 10.902344-.734375 3.214844 2.808594 3.542969 7.691406.734375 10.902344-5.054687 5.78125-12.492187 9.097656-20.40625 9.097656zm0 0" fill="#3a484a"/><path d="m187.839844 178.007812c-1.574219 10.644532-10.746094 18.804688-21.820313 18.804688-11.078125 0-20.246093-8.160156-21.824219-18.804688 6.296876-4.027343 13.785157-6.355468 21.824219-6.355468 8.035157 0 15.527344 2.328125 21.820313 6.355468zm0 0" fill="#3a484a"/><g fill="#de7b5c"><path d="m38.386719 487.453125c-15.808594-23.28125-7.734375-45.367187 11.738281-58.589844 19.476562-13.226562 42.980469-12.582031 58.792969 10.699219 15.808593 23.285156 12.835937 52.878906-6.640625 66.101562-19.476563 13.226563-48.078125 5.074219-63.890625-18.210937zm0 0"/><path d="m293.648438 487.453125c15.808593-23.28125 7.738281-45.367187-11.738282-58.589844-19.476562-13.226562-42.980468-12.582031-58.789062 10.699219-15.808594 23.285156-12.835938 52.878906 6.636718 66.101562 19.476563 13.226563 48.082032 5.074219 63.890626-18.210937zm0 0"/></g></svg>