<?xml version="1.0" encoding="iso-8859-1"?>
<!-- Generator: Adobe Illustrator 19.0.0, SVG Export Plug-In . SVG Version: 6.00 Build 0)  -->
<svg version="1.1" id="Layer_1" xmlns="http://www.w3.org/2000/svg" xmlns:xlink="http://www.w3.org/1999/xlink" x="0px" y="0px"
	 viewBox="0 0 511.989 511.989" style="enable-background:new 0 0 511.989 511.989;" xml:space="preserve">
<polygon style="fill:#E6E9ED;" points="438.832,405.24 361.192,395.928 363.739,374.741 441.379,384.053 "/>
<path style="fill:#A0D468;" d="M465.269,374.882c-6.109-7.781-15.297-12.234-25.188-12.234c-7.125,0-14.14,2.438-19.749,6.844
	c-6.719,5.281-10.984,12.858-12,21.343s1.328,16.859,6.609,23.579c6.109,7.78,15.28,12.233,25.171,12.233
	c7.125,0,14.141-2.422,19.766-6.844c6.719-5.28,10.969-12.859,12-21.344C472.894,389.974,470.551,381.599,465.269,374.882z"/>
<polygon style="fill:#E6E9ED;" points="108.511,301.164 64.333,256.994 79.418,241.916 123.597,286.087 "/>
<path style="fill:#EAAD7A;" d="M471.691,302.43c-2.953-16.187-24.125-25.108-59.624-25.108c-14.438,0-30.594,1.547-46.703,4.5
	c-24.765,4.516-47.607,11.906-64.342,20.796c-9.984,5.312-16.641,10.562-20.953,15.531c-4.328-4.969-10.976-10.219-20.96-15.531
	c-16.734-8.89-39.585-16.28-64.342-20.796c-16.117-2.953-32.266-4.5-46.703-4.5c-35.491,0-56.67,8.922-59.624,25.108
	c-1.617,8.844,1.906,22.266,27.835,36.062c16.734,8.89,39.585,16.28,64.342,20.796c11.859,2.172,23.734,3.578,34.937,4.172
	c-8.141,10.734-15.508,22.796-21.515,34.812c-11.352,22.734-18.531,46.047-20.219,65.608c-1.141,13.281-0.492,36.827,16.672,45.39
	c3.594,1.797,7.555,2.719,11.773,2.719h0.008c26.765,0,56.866-36.28,74.826-72.232c1.031-2.094,2.031-4.188,3-6.281
	c0.984,2.094,1.969,4.188,3.016,6.281c17.953,35.952,48.062,72.232,74.826,72.232c4.219,0,8.188-0.922,11.781-2.719
	c17.156-8.562,17.812-32.108,16.672-45.39c-1.688-19.562-8.875-42.874-20.219-65.608c-6.016-12.016-13.375-24.077-21.515-34.812
	c11.171-0.594,23.015-2,34.843-4.172c24.766-4.516,47.624-11.906,64.358-20.796C469.785,324.695,473.301,311.273,471.691,302.43z"/>
<path style="fill:#F4BE8E;" d="M358.52,204.307c-20.687-29.187-48.529-45.265-78.42-45.265c-29.881,0-57.725,16.078-78.404,45.265
	c-19.882,28.062-30.835,65.187-30.835,104.544c0,39.343,10.953,76.482,30.835,104.546c20.679,29.187,48.522,45.248,78.404,45.248
	c29.891,0,57.733-16.062,78.42-45.248c19.875-28.063,30.828-65.203,30.828-104.546C389.349,269.494,378.395,232.37,358.52,204.307z"
	/>
<path style="fill:#EAAD7A;" d="M269.445,457.958c3.516,0.453,7.077,0.688,10.655,0.688c3.594,0,7.156-0.234,10.672-0.688v-127.31
	h-21.327V457.958z"/>
<path style="fill:#FFD2A6;" d="M400.786,49.983C368.552,17.749,325.694,0,280.1,0c-45.576,0-88.435,17.749-120.668,49.983
	c-32.234,32.233-49.983,75.092-49.983,120.669c0,45.593,17.75,88.451,49.983,120.685S234.524,341.32,280.1,341.32
	c45.594,0,88.451-17.75,120.686-49.983c32.233-32.233,49.983-75.092,49.983-120.685C450.769,125.075,433.019,82.217,400.786,49.983z
	"/>
<path style="fill:#4A89DC;" d="M216.111,85.326c-14.242,0-27.64,5.547-37.71,15.625c-10.07,10.062-15.625,23.452-15.625,37.702
	c0,14.249,5.555,27.64,15.625,37.718c10.07,10.062,23.468,15.625,37.71,15.625c14.25,0,27.64-5.563,37.71-15.625
	c10.078-10.078,15.625-23.469,15.625-37.718c0-14.25-5.547-27.641-15.625-37.702C243.75,90.873,230.36,85.326,216.111,85.326z"/>
<path style="fill:#5D9CEC;" d="M216.111,202.651c-17.093,0-33.164-6.656-45.257-18.749c-12.085-12.078-18.742-28.156-18.742-45.249
	c0-17.094,6.656-33.171,18.75-45.249c12.086-12.094,28.156-18.75,45.25-18.75s33.163,6.656,45.256,18.75
	c12.078,12.094,18.733,28.155,18.733,45.249c0,17.093-6.655,33.171-18.733,45.249C249.282,195.995,233.204,202.651,216.111,202.651z
	 M216.111,95.998c-11.398,0-22.109,4.438-30.171,12.484c-8.055,8.062-12.492,18.78-12.492,30.171
	c0,11.405,4.438,22.108,12.492,30.171c8.062,8.062,18.773,12.5,30.171,12.5c11.398,0,22.108-4.438,30.171-12.5
	c8.055-8.062,12.492-18.766,12.492-30.171c0-11.391-4.437-22.109-12.492-30.171C238.219,100.435,227.509,95.998,216.111,95.998z"/>
<path style="fill:#4A89DC;" d="M381.817,100.951c-10.078-10.078-23.469-15.625-37.718-15.625c-14.233,0-27.64,5.547-37.702,15.625
	c-10.078,10.062-15.625,23.452-15.625,37.702c0,14.249,5.547,27.64,15.625,37.718c10.062,10.062,23.469,15.625,37.702,15.625
	c14.249,0,27.64-5.563,37.718-15.625C402.614,155.574,402.614,121.731,381.817,100.951z"/>
<path style="fill:#5D9CEC;" d="M344.099,202.651c-17.093,0-33.155-6.656-45.249-18.749c-12.094-12.078-18.75-28.156-18.75-45.249
	c0-17.094,6.656-33.155,18.75-45.249s28.156-18.75,45.249-18.75s33.171,6.656,45.265,18.75c24.953,24.952,24.953,65.545,0,90.498
	C377.27,195.995,361.192,202.651,344.099,202.651z M344.099,95.998c-11.391,0-22.108,4.438-30.171,12.484
	c-8.047,8.062-12.484,18.78-12.484,30.171c0,11.405,4.438,22.108,12.484,30.171c8.062,8.062,18.78,12.5,30.171,12.5
	c11.405,0,22.108-4.438,30.171-12.5c16.641-16.641,16.641-43.702,0-60.342C366.208,100.435,355.505,95.998,344.099,95.998z"/>
<g>
	<path style="fill:#434A54;" d="M224.024,145.825c-4.164-4.156-4.164-10.922,0-15.078c4.164-4.172,10.922-4.172,15.085,0
		c4.164,4.156,4.164,10.922,0,15.078C234.946,149.996,228.188,149.996,224.024,145.825z"/>
	<path style="fill:#434A54;" d="M208.939,160.918c-4.164-4.172-4.164-10.922,0-15.093c4.164-4.156,10.921-4.156,15.085,0
		c4.164,4.171,4.164,10.921,0,15.093C219.86,165.074,213.103,165.074,208.939,160.918z"/>
	<path style="fill:#434A54;" d="M208.939,130.747c-4.164-4.172-4.164-10.922,0-15.094c4.164-4.156,10.921-4.156,15.085,0
		c4.164,4.172,4.164,10.922,0,15.094C219.86,134.903,213.103,134.903,208.939,130.747z"/>
	<path style="fill:#434A54;" d="M193.853,145.825c-4.164-4.156-4.164-10.922,0-15.078c4.164-4.172,10.921-4.172,15.085,0
		c4.164,4.156,4.164,10.922,0,15.078C204.775,149.996,198.017,149.996,193.853,145.825z"/>
	<path style="fill:#434A54;" d="M351.27,130.747c-4.155,4.156-10.921,4.156-15.077,0c-4.172-4.172-4.172-10.922,0-15.094
		c4.156-4.156,10.922-4.156,15.077,0C355.442,119.825,355.442,126.575,351.27,130.747z"/>
	<path style="fill:#434A54;" d="M366.364,145.825c-4.172,4.171-10.922,4.171-15.094,0c-4.155-4.156-4.155-10.922,0-15.078
		c4.172-4.172,10.922-4.172,15.094,0C370.52,134.903,370.52,141.669,366.364,145.825z"/>
	<path style="fill:#434A54;" d="M336.193,145.825c-4.172,4.171-10.921,4.171-15.093,0c-4.156-4.156-4.156-10.922,0-15.078
		c4.172-4.172,10.921-4.172,15.093,0C340.349,134.903,340.349,141.669,336.193,145.825z"/>
	<path style="fill:#434A54;" d="M351.27,160.918c-4.155,4.156-10.921,4.156-15.077,0c-4.172-4.172-4.172-10.922,0-15.093
		c4.156-4.156,10.922-4.156,15.077,0C355.442,149.996,355.442,156.746,351.27,160.918z"/>
</g>
<path style="fill:#EAAD7A;" d="M361.833,237.682c-4.219-4.109-10.969-4.031-15.077,0.203c-0.172,0.171-18.952,18.109-66.015,18.109
	c-43.342,0-63.935-15.406-67.146-18.031c-1.938-2.031-4.672-3.312-7.703-3.312c-5.891,0-10.664,4.781-10.664,10.672
	c0,2.984,1.227,5.688,3.211,7.625l-0.039,0.031c1.023,1,25.788,24.343,82.341,24.343c56.733,0,80.326-23.562,81.295-24.562
	C366.145,248.541,366.067,241.791,361.833,237.682z"/>
<g>
	<path style="fill:#434A54;" d="M290.772,426.646h-21.327c-5.891,0-10.672-4.781-10.672-10.655c0-5.907,4.781-10.673,10.672-10.673
		h21.327c5.891,0,10.672,4.766,10.672,10.673C301.444,421.865,296.663,426.646,290.772,426.646z"/>
	<path style="fill:#434A54;" d="M290.772,383.99h-21.327c-5.891,0-10.672-4.78-10.672-10.671s4.781-10.672,10.672-10.672h21.327
		c5.891,0,10.672,4.781,10.672,10.672S296.663,383.99,290.772,383.99z"/>
	<path style="fill:#434A54;" d="M338.084,277.54c-4.031,0-7.874-2.281-9.687-6.171l-8.672-18.672
		c-2.469-5.344-0.156-11.688,5.188-14.156c5.344-2.484,11.687-0.172,14.171,5.172l8.656,18.672
		c2.484,5.344,0.172,11.687-5.172,14.171C341.115,277.227,339.584,277.54,338.084,277.54z"/>
	<path style="fill:#434A54;" d="M280.1,287.54c-5.89,0-10.655-4.781-10.655-10.672v-20.874c0-5.906,4.766-10.672,10.655-10.672
		c5.891,0,10.672,4.766,10.672,10.672v20.874C290.772,282.759,285.991,287.54,280.1,287.54z"/>
	<path style="fill:#434A54;" d="M233.407,280.884c-1.367,0-2.758-0.266-4.094-0.828c-5.445-2.266-8.016-8.516-5.75-13.952
		l7.781-18.672c2.266-5.438,8.507-8,13.945-5.734s8.016,8.516,5.75,13.953l-7.781,18.655
		C241.555,278.399,237.586,280.884,233.407,280.884z"/>
</g>
<path style="fill:#AC92EB;" d="M71.879,217.448c-17.648,0-32,14.359-32,31.999c0,17.656,14.352,31.999,32,31.999
	c17.64,0,32-14.343,32-31.999C103.879,231.807,89.519,217.448,71.879,217.448z"/>
<g>
</g>
<g>
</g>
<g>
</g>
<g>
</g>
<g>
</g>
<g>
</g>
<g>
</g>
<g>
</g>
<g>
</g>
<g>
</g>
<g>
</g>
<g>
</g>
<g>
</g>
<g>
</g>
<g>
</g>
</svg>
