<?xml version="1.0" encoding="utf-8"?>
<!-- Generator: Adobe Illustrator 16.0.0, SVG Export Plug-In . SVG Version: 6.00 Build 0)  -->
<!DOCTYPE svg PUBLIC "-//W3C//DTD SVG 1.1//EN" "http://www.w3.org/Graphics/SVG/1.1/DTD/svg11.dtd">
<svg version="1.1" id="Layer_1" xmlns="http://www.w3.org/2000/svg" xmlns:xlink="http://www.w3.org/1999/xlink" x="0px" y="0px"
	 width="612px" height="612px" viewBox="0 90 612 612" enable-background="new 0 90 612 612" xml:space="preserve">
<rect y="90" fill="#D80E1D" width="612" height="612"/>
<g transform="translate(1.4065934065934016 1.4065934065934016) scale(2.81 2.81)">
	<path fill="#FFFFFF" d="M67.639,196.854L51.515,180.73c-2.727-2.727-2.727-7.147,0-9.873l91.941-91.942
		c2.727-2.727,7.147-2.727,9.873,0l16.124,16.124c2.727,2.727,2.727,7.147,0,9.874l-91.941,91.942
		C74.786,199.581,70.366,199.581,67.639,196.854z"/>
	<path fill="#FFFFFF" d="M143.457,196.854l-91.941-91.942c-2.727-2.727-2.727-7.147,0-9.874l16.124-16.124
		c2.727-2.727,7.147-2.727,9.874,0l91.94,91.94c2.726,2.726,2.726,7.147,0,9.873l-16.123,16.125
		C150.604,199.581,146.184,199.581,143.457,196.854z"/>
</g>
</svg>
