<?xml version="1.0" encoding="utf-8"?>
<!-- Generator: Adobe Illustrator 16.0.0, SVG Export Plug-In . SVG Version: 6.00 Build 0)  -->
<!DOCTYPE svg PUBLIC "-//W3C//DTD SVG 1.1//EN" "http://www.w3.org/Graphics/SVG/1.1/DTD/svg11.dtd">
<svg version="1.1" id="Capa_1" xmlns="http://www.w3.org/2000/svg" xmlns:xlink="http://www.w3.org/1999/xlink" x="0px" y="0px"
	 width="512px" height="512px" viewBox="0 0 512 512" enable-background="new 0 0 512 512" xml:space="preserve">
<rect fill="#FABE2C" width="512" height="512"/>
<path fill="#FFFFFF" d="M255.788,347.971l-27.246-81.74c-1.873-5.621-6.983-9.365-12.942-9.365h-81.743
	c-5.791,0-11.07,3.744-12.942,9.365l-27.249,81.74c-2.897,8.686,3.748,17.881,12.943,17.881h136.236
	C252.041,365.852,258.682,356.657,255.788,347.971z"/>
<path fill="#FFFFFF" d="M419.272,347.971l-27.247-81.74c-1.873-5.621-6.982-9.365-12.941-9.365h-81.743
	c-5.789,0-11.068,3.744-12.941,9.365l-27.25,81.74c-2.896,8.686,3.747,17.881,12.943,17.881h136.239
	C415.525,365.852,422.166,356.657,419.272,347.971z"/>
<path fill="#FFFFFF" d="M337.53,238.986l-27.247-81.742c-1.872-5.621-6.982-9.368-12.942-9.368h-81.742
	c-5.791,0-11.068,3.747-12.942,9.368l-27.249,81.742c-2.897,8.684,3.747,17.879,12.942,17.879h136.238
	C333.783,256.865,340.424,247.669,337.53,238.986z"/>
</svg>
