<?xml version="1.0" encoding="utf-8"?>
<!-- Generator: Adobe Illustrator 16.0.0, SVG Export Plug-In . SVG Version: 6.00 Build 0)  -->
<!DOCTYPE svg PUBLIC "-//W3C//DTD SVG 1.1//EN" "http://www.w3.org/Graphics/SVG/1.1/DTD/svg11.dtd">
<svg version="1.1" id="Capa_1" xmlns="http://www.w3.org/2000/svg" xmlns:xlink="http://www.w3.org/1999/xlink" x="0px" y="0px"
	 width="512px" height="512px" viewBox="0 0 512 512" enable-background="new 0 0 512 512" xml:space="preserve">
<rect fill="#74B20E" width="512" height="512"/>
<path fill="#FFFFFF" d="M190.22,364.188h-52.417c-4.128,0-7.494-3.364-7.494-7.491V236.335c0-4.126,3.365-7.494,7.494-7.494h52.417
	c4.128,0,7.492,3.367,7.492,7.494v120.36C197.711,360.821,194.348,364.188,190.22,364.188z M216.029,335.899V249.67
	c0-21.048,6.001-42.194,17.177-60.067c6.826-10.92,22.129-28.416,30.699-37.465c1.906-2.032,8.827-7.999,8.827-11.27
	c0-4.192,0.478-10.952,0.636-23.556c0.096-8,6.6-14.573,14.603-14.51h0.351c14,0.317,18.507,13.239,18.507,13.239
	s11.971,23.624,0.796,52.515c-9.427,24.413-11.333,26.383-11.333,26.383s-3.049,4.413,6.604,4.223c0,0,58.924-0.255,60.955-0.255
	c4.353,0,18.224,3.968,17.426,21.655c-0.567,13.081-8.694,17.653-12.851,19.144c-0.825,0.285-0.923,1.427-0.159,1.874
	c4.251,2.473,12.951,8.73,12.762,18.319c-0.256,11.621-4.922,15.905-14.641,18.571c-0.886,0.255-1.044,1.429-0.251,1.875
	c3.685,2.094,10,7.205,9.624,17.556c-0.381,10.54-8.004,14.255-12.163,15.526c-0.824,0.254-0.98,1.332-0.251,1.84
	c2.636,1.81,6.537,5.906,6.351,14.318c-0.098,4.445-1.59,7.684-3.465,10c-2.951,3.654-7.587,5.559-12.285,5.586l-130.742,0.256
	C223.142,345.424,216.029,345.424,216.029,335.899L216.029,335.899z"/>
</svg>
