<?xml version="1.0" encoding="utf-8"?>
<!-- Generator: Adobe Illustrator 16.0.0, SVG Export Plug-In . SVG Version: 6.00 Build 0)  -->
<!DOCTYPE svg PUBLIC "-//W3C//DTD SVG 1.1//EN" "http://www.w3.org/Graphics/SVG/1.1/DTD/svg11.dtd">
<svg version="1.1" id="Capa_1" xmlns="http://www.w3.org/2000/svg" xmlns:xlink="http://www.w3.org/1999/xlink" x="0px" y="0px"
	 width="512px" height="512px" viewBox="0 0 512 512" enable-background="new 0 0 512 512" xml:space="preserve">
<rect fill="#E8A103" width="512" height="512"/>
<path fill="#FFFFFF" d="M270.74,134.413c-2.686-5.575-8.36-9.121-14.593-9.121c-6.233,0-11.858,3.546-14.594,9.121l-32.581,67.039
	l-72.766,10.744c-6.082,0.913-11.147,5.168-13.023,10.996c-1.874,5.827-0.354,12.263,4.004,16.57l52.801,52.243l-12.467,73.829
	c-1.013,6.081,1.521,12.263,6.538,15.86c5.016,3.599,11.653,4.055,17.126,1.166l65.013-34.712l65.013,34.712
	c5.472,2.889,12.11,2.481,17.127-1.166c5.016-3.648,7.551-9.779,6.537-15.86l-12.516-73.829l52.799-52.243
	c4.358-4.307,5.93-10.744,4.006-16.57c-1.928-5.827-6.942-10.083-13.023-10.996l-72.816-10.744L270.74,134.413z"/>
</svg>
