<?xml version="1.0" encoding="utf-8"?>
<!-- Generator: Adobe Illustrator 16.0.0, SVG Export Plug-In . SVG Version: 6.00 Build 0)  -->
<!DOCTYPE svg PUBLIC "-//W3C//DTD SVG 1.1//EN" "http://www.w3.org/Graphics/SVG/1.1/DTD/svg11.dtd">
<svg version="1.1" id="Capa_1" xmlns="http://www.w3.org/2000/svg" xmlns:xlink="http://www.w3.org/1999/xlink" x="0px" y="0px"
	 width="512px" height="512px" viewBox="0 0 512 512" enable-background="new 0 0 512 512" xml:space="preserve">
<rect fill="#6D94A3" width="512" height="512"/>
<g enable-background="new    ">
	<path fill="#FFFFFF" d="M218.205,233.073c-0.618,0.618-2.882,3.294-2.882,4.323c0,1.44,2.058,3.499,2.882,4.528l38.492,48.373
		c10.497,13.174,22.025,7.616,22.025,19.761c0,6.175-0.618,16.673-51.048,16.673c-8.646,0-38.904,1.029-38.904-12.557
		c0-7.821,8.439-7.821,8.439-12.144c0-5.353-8.439-16.468-11.527-20.585c-1.029-1.029-1.853-2.882-3.499-2.882
		c-2.676,0-15.232,18.732-15.232,21.613c0,4.734,8.646,4.323,8.646,13.586c0,5.764-5.146,12.968-34.375,12.968
		c-29.435,0-34.375-6.999-34.375-13.998c0-5.352,3.5-10.085,11.938-10.085c8.028,0,13.38-3.911,24.701-18.114l18.938-23.671
		c0.617-0.824,2.881-3.294,2.881-4.322c0-1.442-2.059-3.706-2.881-4.529l-29.229-37.874c-10.498-13.586-22.848-7.205-22.848-19.143
		c0-4.734,0.411-17.085,50.842-17.085c29.229,0,35.815,4.117,35.815,12.968c0,9.057-7.41,8.234-7.41,12.145
		c0,3.087,7.204,12.556,9.675,12.556c2.676,0,10.703-10.498,10.703-12.556c0-4.734-7.822-4.117-7.822-12.556
		c0-6.998,5.146-12.556,35.405-12.556c8.645,0,30.052,0,30.052,12.968c0,9.469-7.615,9.674-14.82,10.292
		c-8.027,0.618-15.644,7.822-20.378,13.791L218.205,233.073z"/>
	<path fill="#FFFFFF" d="M300.739,211.46c0-15.438-19.144-8.645-19.144-21.613c0-8.234,9.058-10.086,15.438-10.086
		c5.146,0,10.087,0.412,15.232,0.412c29.848,0,47.961-2.882,56.605-2.882c27.994,0,54.959,16.261,54.959,47.137
		c0,30.67-25.935,47.137-54.548,47.137c-6.175,0-12.35-1.029-17.907-1.029c-2.47,0-3.294,1.029-3.294,3.293v11.938
		c0.618,25.73,15.644,15.026,15.644,26.965c0,13.381-29.64,13.998-38.903,13.998c-8.645,0-39.109-0.206-39.109-13.586
		c0-11.321,15.027-4.322,15.027-21.201V211.46z M355.904,201.581c-8.028,0-7.823,2.47-7.823,6.586v30.875
		c0,4.323-1.853,9.057,9.264,9.057c13.586,0,18.937-10.292,18.937-22.848C376.281,212.284,369.695,201.581,355.904,201.581z"/>
</g>
</svg>
