<?xml version="1.0" encoding="utf-8"?>
<!-- Generator: Adobe Illustrator 16.0.0, SVG Export Plug-In . SVG Version: 6.00 Build 0)  -->
<!DOCTYPE svg PUBLIC "-//W3C//DTD SVG 1.1//EN" "http://www.w3.org/Graphics/SVG/1.1/DTD/svg11.dtd">
<svg version="1.1" id="Capa_1" xmlns="http://www.w3.org/2000/svg" xmlns:xlink="http://www.w3.org/1999/xlink" x="0px" y="0px"
	 width="512px" height="512px" viewBox="0 0 512 512" enable-background="new 0 0 512 512" xml:space="preserve">
<rect fill="#D605AF" width="512" height="512"/>
<g>
	<path fill="#FFFFFF" d="M313.271,128.844c7.398-4.95,16.567-3.782,21.16,0.211c1.988,1.733,3.932,4.685,1.883,8.916
		c-4.302,8.927-13.468,14.692-23.335,14.692h-28.256c1.329,3.434,2.066,7.16,2.066,11.06c0,3.471-0.587,6.812-1.649,9.93h66.449
		c4.431-8.418,4.752-18.081,0.802-26.936l-8.096-18.175c-0.946-2.104-2.397-4.065-4.369-5.782c-6.879-5.97-20.169-8.295-31.3-0.853
		l-30.516,20.429c1.939,2.005,3.612,4.264,4.951,6.728L313.271,128.844z"/>
	<path fill="#FFFFFF" d="M226.869,173.645c-1.063-3.117-1.65-6.457-1.65-9.93c0-3.898,0.737-7.626,2.065-11.059h-28.237
		c-9.869,0-19.034-5.771-23.359-14.697c-2.048-4.226-0.105-7.178,1.888-8.904c2.47-2.149,6.264-3.478,10.396-3.478
		c3.55,0,7.343,0.98,10.759,3.267l30.203,20.219c1.34-2.469,3.019-4.729,4.951-6.728l-30.514-20.429
		c-11.13-7.443-24.421-5.117-31.283,0.853c-2.198,1.911-3.76,4.12-4.679,6.501l-7.792,17.45c-3.955,8.854-3.633,18.518,0.803,26.936
		L226.869,173.645L226.869,173.645z"/>
	<path fill="#FFFFFF" d="M235.879,173.645h40.232c1.484-2.997,2.326-6.368,2.326-9.93c0-12.366-10.08-22.445-22.445-22.445
		c-12.367,0-22.446,10.079-22.446,22.445C233.553,167.282,234.395,170.649,235.879,173.645L235.879,173.645z"/>
	<path fill="#FFFFFF" d="M123.2,199.551v27.439c0,8.246,5.715,15.18,13.384,17.057h103.94v-62.063h-99.763
		C131.081,181.986,123.2,189.866,123.2,199.551z"/>
	<path fill="#FFFFFF" d="M136.59,377.461c0,12.854,10.456,23.308,23.309,23.308h80.631V252.382H136.59V377.461z"/>
	<path fill="#FFFFFF" d="M371.235,181.986h-99.753v62.057h103.923c7.676-1.877,13.385-8.81,13.385-17.057v-27.439
		C388.795,189.866,380.915,181.986,371.235,181.986z"/>
	<path fill="#FFFFFF" d="M271.482,400.769h80.614c12.854,0,23.309-10.453,23.309-23.307v-125.08H271.482V400.769z"/>
</g>
</svg>
