<?xml version="1.0" encoding="utf-8"?>
<!-- Generator: Adobe Illustrator 16.0.0, SVG Export Plug-In . SVG Version: 6.00 Build 0)  -->
<!DOCTYPE svg PUBLIC "-//W3C//DTD SVG 1.1//EN" "http://www.w3.org/Graphics/SVG/1.1/DTD/svg11.dtd">
<svg version="1.1" id="Layer_1" xmlns="http://www.w3.org/2000/svg" xmlns:xlink="http://www.w3.org/1999/xlink" x="0px" y="0px"
	 width="612px" height="612px" viewBox="0 0 612 612" enable-background="new 0 0 612 612" xml:space="preserve">
<rect fill="#8E8E8E" width="612" height="612"/>
<path fill="#FFFFFF" d="M303.276,299.549c23.334,0,43.542-8.37,60.052-24.882c16.51-16.51,24.879-36.712,24.879-60.05
	c0-23.33-8.369-43.534-24.882-60.049c-16.514-16.508-36.718-24.877-60.049-24.877c-23.338,0-43.54,8.369-60.05,24.88
	c-16.51,16.51-24.882,36.714-24.882,60.046c0,23.338,8.372,43.542,24.885,60.052C259.742,291.176,279.946,299.549,303.276,299.549z"
	/>
<path fill="#FFFFFF" d="M451.884,400.837c-0.477-6.87-1.439-14.365-2.857-22.28c-1.432-7.974-3.274-15.513-5.48-22.402
	c-2.278-7.12-5.377-14.154-9.209-20.893c-3.976-6.994-8.646-13.086-13.887-18.097c-5.479-5.244-12.189-9.459-19.948-12.534
	c-7.732-3.059-16.3-4.608-25.466-4.608c-3.6,0-7.082,1.477-13.804,5.854c-4.138,2.699-8.978,5.819-14.38,9.271
	c-4.618,2.943-10.877,5.701-18.605,8.197c-7.541,2.44-15.198,3.678-22.754,3.678c-7.557,0-15.211-1.237-22.76-3.678
	c-7.721-2.493-13.978-5.251-18.592-8.194c-5.351-3.419-10.193-6.54-14.393-9.276c-6.715-4.377-10.199-5.854-13.798-5.854
	c-9.169,0-17.734,1.552-25.464,4.614c-7.753,3.07-14.465,7.286-19.951,12.535c-5.238,5.014-9.911,11.103-13.882,18.094
	c-3.829,6.738-6.928,13.77-9.209,20.896c-2.203,6.89-4.046,14.426-5.478,22.399c-1.417,7.903-2.381,15.401-2.857,22.289
	c-0.468,6.747-0.705,13.75-0.705,20.822c0,18.407,5.851,33.309,17.39,44.298c11.396,10.845,26.476,16.347,44.812,16.347h169.788
	c18.337,0,33.411-5.5,44.809-16.347c11.542-10.981,17.394-25.885,17.394-44.301C452.594,414.561,452.354,407.552,451.884,400.837z"
	/>
</svg>
