<?xml version="1.0" encoding="utf-8"?>
<!-- Generator: Adobe Illustrator 16.0.0, SVG Export Plug-In . SVG Version: 6.00 Build 0)  -->
<!DOCTYPE svg PUBLIC "-//W3C//DTD SVG 1.1//EN" "http://www.w3.org/Graphics/SVG/1.1/DTD/svg11.dtd">
<svg version="1.1" id="Layer_1" xmlns="http://www.w3.org/2000/svg" xmlns:xlink="http://www.w3.org/1999/xlink" x="0px" y="0px"
	 width="612px" height="612px" viewBox="0 0 612 612" enable-background="new 0 0 612 612" xml:space="preserve">
<rect fill="#BC0000" width="612" height="612"/>
<path fill="#FFFFFF" d="M416.382,308.661c-0.687-3.882-3.306-7.114-6.92-8.627L334.6,268.701l49.237-117.641
	c2.112-5.048,0.409-10.889-4.093-14.005c-4.578-3.173-10.581-2.644-14.56,1.095L199.057,294.844c-2.854,2.676-4.145,6.66-3.439,10.5
	c0.696,3.861,3.306,7.115,6.92,8.628l74.862,31.333l-49.238,117.641c-2.113,5.048-0.409,10.888,4.092,14.005
	c0.687,0.463,1.399,0.861,2.126,1.166c4.149,1.736,9.033,0.94,12.434-2.262l166.127-156.694
	C415.785,316.455,417.101,312.531,416.382,308.661z"/>
</svg>
