<?xml version="1.0" encoding="utf-8"?>
<!-- Generator: Adobe Illustrator 16.0.0, SVG Export Plug-In . SVG Version: 6.00 Build 0)  -->
<!DOCTYPE svg PUBLIC "-//W3C//DTD SVG 1.1//EN" "http://www.w3.org/Graphics/SVG/1.1/DTD/svg11.dtd">
<svg version="1.1" id="Layer_1" xmlns="http://www.w3.org/2000/svg" xmlns:xlink="http://www.w3.org/1999/xlink" x="0px" y="0px"
	 width="612px" height="612px" viewBox="0 0 612 612" enable-background="new 0 0 612 612" xml:space="preserve">
<rect fill="#96008F" width="612" height="612"/>
<g id="Line">
	<path fill="#FFFFFF" d="M246.303,247.31H164.22c-12.364,0-22.386,10.023-22.386,22.387v52.235
		c0,12.363,10.022,22.387,22.386,22.387h82.083V247.31z"/>
	<path fill="#FFFFFF" d="M430.543,169.107c-6.327-4.282-14.401-5.042-21.416-2.015l-147.9,75.516v106.485l147.825,75.965
		c7.147,2.196,14.876,1.471,21.491-2.016c6.119-4.171,9.779-11.1,9.775-18.506V187.613
		C440.322,180.207,436.662,173.279,430.543,169.107z"/>
	<path fill="#FFFFFF" d="M250.407,359.241h-60.294l20.894,73.279c2.739,9.638,11.547,16.28,21.565,16.268h13.73
		c12.764-0.555,22.662-11.352,22.107-24.115c-0.064-1.479-0.27-2.949-0.616-4.391L250.407,359.241z"/>
	<path fill="#FFFFFF" d="M455.243,271.04v49.548c8.922-3.154,14.897-11.579,14.924-21.043v-7.462
		C470.141,282.619,464.165,274.194,455.243,271.04z"/>
</g>
</svg>
