<?xml version="1.0" encoding="utf-8"?>
<!-- Generator: Adobe Illustrator 16.0.0, SVG Export Plug-In . SVG Version: 6.00 Build 0)  -->
<!DOCTYPE svg PUBLIC "-//W3C//DTD SVG 1.1//EN" "http://www.w3.org/Graphics/SVG/1.1/DTD/svg11.dtd">
<svg version="1.1" id="Layer_1" xmlns="http://www.w3.org/2000/svg" xmlns:xlink="http://www.w3.org/1999/xlink" x="0px" y="0px"
	 width="612px" height="612px" viewBox="0 0 612 612" enable-background="new 0 0 612 612" xml:space="preserve">
<rect fill="#666666" width="612" height="612"/>
<path fill="#FFFFFF" d="M342.781,196.607V305.77c0,20.313-16.467,36.781-36.781,36.781c-20.314,0-36.781-16.468-36.781-36.781
	V196.607c0-20.313,16.467-36.781,36.781-36.781C326.314,159.826,342.781,176.293,342.781,196.607z"/>
<path fill="#FFFFFF" d="M306,370.947c-20.314,0-36.781,16.468-36.781,36.781v7.666c0,20.314,16.467,36.781,36.781,36.781
	c20.314,0,36.781-16.467,36.781-36.781v-7.666C342.781,387.415,326.314,370.947,306,370.947z"/>
</svg>
