<?xml version="1.0" encoding="utf-8"?>
<!-- Generator: Adobe Illustrator 16.0.0, SVG Export Plug-In . SVG Version: 6.00 Build 0)  -->
<!DOCTYPE svg PUBLIC "-//W3C//DTD SVG 1.1//EN" "http://www.w3.org/Graphics/SVG/1.1/DTD/svg11.dtd">
<svg version="1.1" id="Layer_1" xmlns="http://www.w3.org/2000/svg" xmlns:xlink="http://www.w3.org/1999/xlink" x="0px" y="0px"
	 width="400px" height="400px" viewBox="0 0 400 400" enable-background="new 0 0 400 400" xml:space="preserve">
<rect fill="#BA2C2A" width="400" height="400"/>
<path fill="#FFFFFF" d="M151.441,108.944V209.54c0,3.448-2.812,6.262-6.262,6.262h-43.81c-3.45,0-6.262-2.813-6.262-6.262V108.944
	c0-3.448,2.813-6.262,6.262-6.262h43.81C148.629,102.682,151.441,105.496,151.441,108.944z M166.751,126.326
	c0-7.961,5.944-7.961,5.998-7.961l109.272,0.213c3.926,0.025,7.799,1.617,10.268,4.671c1.564,1.937,2.813,4.644,2.895,8.358
	c0.156,7.03-3.104,10.454-5.31,11.966c-0.608,0.426-0.478,1.326,0.212,1.538c3.477,1.063,9.848,4.168,10.165,12.977
	c0.317,8.65-4.962,12.922-8.043,14.673c-0.663,0.372-0.53,1.354,0.212,1.567c8.122,2.228,12.021,5.81,12.234,15.522
	c0.158,8.014-7.112,13.242-10.665,15.311c-0.64,0.371-0.56,1.328,0.131,1.565c3.476,1.246,10.269,5.066,10.744,16
	c0.665,14.779-10.931,18.099-14.565,18.099c-1.697,0-50.945-0.214-50.945-0.214c-8.068-0.159-5.52,3.527-5.52,3.527
	s1.591,1.646,9.473,22.051c9.338,24.146-0.666,43.892-0.666,43.892s-3.768,10.799-15.468,11.063h-0.294
	c-6.688,0.054-12.124-5.438-12.206-12.127c-0.13-10.535-0.53-16.184-0.53-19.688c0-2.734-5.783-7.723-7.377-9.42
	c-7.163-7.563-19.953-22.186-25.658-31.313c-9.341-14.938-14.356-32.611-14.356-50.204L166.751,126.326L166.751,126.326z"/>
</svg>
