<?xml version="1.0" encoding="utf-8"?>
<!-- Generator: Adobe Illustrator 16.0.0, SVG Export Plug-In . SVG Version: 6.00 Build 0)  -->
<!DOCTYPE svg PUBLIC "-//W3C//DTD SVG 1.1//EN" "http://www.w3.org/Graphics/SVG/1.1/DTD/svg11.dtd">
<svg version="1.1" id="Layer_1" xmlns="http://www.w3.org/2000/svg" xmlns:xlink="http://www.w3.org/1999/xlink" x="0px" y="0px"
	 width="612px" height="612px" viewBox="0 0 612 612" enable-background="new 0 0 612 612" xml:space="preserve">
<rect fill="#BA7300" width="612" height="612"/>
<g>
	<g>
		<path fill="#FFFFFF" d="M444.212,185.426c-2.102-2.089-4.569-3.14-7.437-3.14c-1.424,0-4.428,1.169-8.979,3.476
			c-4.57,2.313-9.433,4.887-14.531,7.76c-5.118,2.854-11.175,5.44-18.17,7.754c-6.982,2.307-13.443,3.476-19.395,3.476
			c-5.503,0-10.342-1.044-14.526-3.14c-13.86-6.492-25.923-11.336-36.152-14.532c-10.234-3.19-21.241-4.794-33.025-4.794
			c-20.346,0-43.521,6.616-69.501,19.824c-5.36,2.674-9.203,4.745-11.69,6.262l-2.469-18.102c5.578-4.844,9.178-11.901,9.178-19.867
			c0-14.594-11.827-26.421-26.421-26.421s-26.427,11.827-26.427,26.421c0,9.52,5.086,17.796,12.635,22.448l35.692,261.724
			c1.063,7.792,7.729,13.444,15.384,13.444c0.696,0,1.405-0.056,2.121-0.13c8.506-1.17,14.463-8.998,13.301-17.505l-14.346-105.188
			c26.029-12.915,48.545-19.426,67.486-19.426c8.041,0,15.88,1.188,23.524,3.625c7.648,2.433,14.015,5.056,19.07,7.91
			c5.05,2.867,11.026,5.515,17.909,7.922c6.884,2.425,13.681,3.638,20.39,3.638c16.95,0,37.24-6.386,60.913-19.152
			c2.973-1.542,5.144-3.059,6.523-4.539c1.381-1.486,2.064-3.607,2.064-6.349V192.857
			C447.334,190.002,446.296,187.521,444.212,185.426L444.212,185.426z"/>
	</g>
</g>
</svg>
