<?xml version="1.0" encoding="utf-8"?>
<!-- Generator: Adobe Illustrator 16.0.0, SVG Export Plug-In . SVG Version: 6.00 Build 0)  -->
<!DOCTYPE svg PUBLIC "-//W3C//DTD SVG 1.1//EN" "http://www.w3.org/Graphics/SVG/1.1/DTD/svg11.dtd">
<svg version="1.1" id="Layer_1" xmlns="http://www.w3.org/2000/svg" xmlns:xlink="http://www.w3.org/1999/xlink" x="0px" y="0px"
	 width="612px" height="612px" viewBox="0 0 612 612" enable-background="new 0 0 612 612" xml:space="preserve">
<rect fill="#105FAF" width="612" height="612"/>
<path fill="#FFFFFF" d="M431.131,298.266c-16.424,13.537-37.454,21.679-60.35,21.679c-7.925,0-15.626-0.977-22.99-2.812
	c13.167,20.049,20.84,44.016,20.84,69.742v37.786c0,14.133-5.16,27.077-13.682,37.072h86.01c20.441,0,37.069-16.63,37.069-37.072
	v-37.786C478.028,350.102,459.421,317.594,431.131,298.266z"/>
<path fill="#FFFFFF" d="M241.222,299.786c41.277,0,74.858-33.581,74.858-74.858c0-41.28-33.581-74.861-74.858-74.861
	c-41.278,0-74.859,33.581-74.859,74.861C166.363,266.205,199.944,299.786,241.222,299.786z"/>
<path fill="#FFFFFF" d="M370.779,299.786c41.277,0,74.86-33.581,74.86-74.858c0-41.28-33.583-74.861-74.86-74.861
	c-19.968,0-38.134,7.859-51.571,20.645c10.729,15.388,17.031,34.077,17.031,54.216c0,20.136-6.303,38.826-17.031,54.213
	C332.646,291.927,350.812,299.786,370.779,299.786z"/>
<path fill="#FFFFFF" d="M301.571,298.266c-16.421,13.537-37.452,21.679-60.35,21.679s-43.929-8.141-60.354-21.679
	c-28.289,19.328-46.897,51.835-46.897,88.61v37.786c0,20.442,16.629,37.072,37.072,37.072h140.353
	c20.443,0,37.073-16.63,37.073-37.072v-37.786C348.47,350.102,329.862,317.594,301.571,298.266z"/>
</svg>
