<?xml version="1.0" encoding="utf-8"?>
<!-- Generator: Adobe Illustrator 16.0.0, SVG Export Plug-In . SVG Version: 6.00 Build 0)  -->
<!DOCTYPE svg PUBLIC "-//W3C//DTD SVG 1.1//EN" "http://www.w3.org/Graphics/SVG/1.1/DTD/svg11.dtd">
<svg version="1.1" id="Layer_1" xmlns="http://www.w3.org/2000/svg" xmlns:xlink="http://www.w3.org/1999/xlink" x="0px" y="0px"
	 width="612px" height="612px" viewBox="0 0 612 612" enable-background="new 0 0 612 612" xml:space="preserve">
<rect fill="#1094E5" width="612" height="612"/>
<g>
	<g>
		<path fill="#FFFFFF" d="M461.468,199.859H435.44c3.433-5.433,5.697-11.532,6.345-17.982c2.063-20.614-8.794-39.093-27.275-47.287
			c-16.991-7.53-36.082-4.452-49.83,8.017l-32.863,29.787c-6.4-7.002-15.603-11.402-25.814-11.402
			c-10.23,0-19.445,4.415-25.847,11.437l-32.909-29.826c-13.77-12.469-32.854-15.536-49.835-8.01
			c-18.478,8.194-29.336,26.679-27.267,47.292c0.648,6.446,2.912,12.542,6.343,17.972h-25.954c-12.88,0-23.32,10.441-23.32,23.319
			v34.98c0,6.438,5.22,11.661,11.662,11.661H473.13c6.438,0,11.659-5.22,11.659-11.661V223.18
			C484.789,210.3,474.348,199.859,461.468,199.859z M271.021,195.972v3.887h-54.854c-14.494,0-25.899-13.512-22.28-28.6
			c1.595-6.646,6.391-12.311,12.596-15.178c8.518-3.937,17.955-2.673,25.11,3.803l39.438,35.746
			C271.028,195.744,271.021,195.858,271.021,195.972z M418.646,178.78c-0.867,12.119-11.815,21.081-23.967,21.081H340.98v-3.887
			c0-0.137-0.01-0.273-0.012-0.411c8.936-8.099,28.314-25.665,38.827-35.192c5.976-5.415,14.332-7.942,22.061-5.637
			C412.946,158.042,419.458,167.47,418.646,178.78z"/>
	</g>
</g>
<g>
	<g>
		<path fill="#FFFFFF" d="M150.532,293.14v171.017c0,12.879,10.441,23.317,23.319,23.317h108.828V293.14H150.532z"/>
	</g>
</g>
<g>
	<g>
		<path fill="#FFFFFF" d="M329.321,293.14v194.334h108.827c12.879,0,23.318-10.438,23.318-23.317V293.14H329.321z"/>
	</g>
</g>
</svg>
