<?xml version="1.0" encoding="utf-8"?>
<!-- Generator: Adobe Illustrator 16.0.0, SVG Export Plug-In . SVG Version: 6.00 Build 0)  -->
<!DOCTYPE svg PUBLIC "-//W3C//DTD SVG 1.1//EN" "http://www.w3.org/Graphics/SVG/1.1/DTD/svg11.dtd">
<svg version="1.1" id="Capa_1" xmlns="http://www.w3.org/2000/svg" xmlns:xlink="http://www.w3.org/1999/xlink" x="0px" y="0px"
	 width="512px" height="512px" viewBox="0 0 512 512" enable-background="new 0 0 512 512" xml:space="preserve">
<rect x="0.234" y="0.432" fill="#FABE2C" stroke="#000000" stroke-miterlimit="10" width="512" height="512"/>
<g>
	<path fill="#FFFFFF" d="M255.512,353.076l-28.902-86.708c-1.987-5.963-7.407-9.935-13.729-9.935H126.17
		c-6.142,0-11.742,3.972-13.729,9.935l-28.904,86.708c-3.073,9.214,3.975,18.968,13.729,18.968h144.517
		C251.537,372.044,258.582,362.292,255.512,353.076z"/>
	<path fill="#FFFFFF" d="M428.933,353.076l-28.902-86.708c-1.987-5.963-7.407-9.935-13.729-9.935h-86.711
		c-6.142,0-11.741,3.972-13.729,9.935l-28.906,86.708c-3.071,9.214,3.977,18.968,13.73,18.968h144.52
		C424.958,372.044,432.002,362.292,428.933,353.076z"/>
	<path fill="#FFFFFF" d="M342.223,237.467l-28.903-86.709c-1.986-5.963-7.406-9.938-13.729-9.938h-86.71
		c-6.143,0-11.741,3.975-13.728,9.938l-28.906,86.709c-3.073,9.212,3.975,18.967,13.729,18.967h144.518
		C338.248,256.434,345.292,246.679,342.223,237.467z"/>
</g>
</svg>
