<?xml version="1.0" encoding="utf-8"?>
<!-- Generator: Adobe Illustrator 16.0.0, SVG Export Plug-In . SVG Version: 6.00 Build 0)  -->
<!DOCTYPE svg PUBLIC "-//W3C//DTD SVG 1.1//EN" "http://www.w3.org/Graphics/SVG/1.1/DTD/svg11.dtd">
<svg version="1.1" id="Layer_1" xmlns="http://www.w3.org/2000/svg" xmlns:xlink="http://www.w3.org/1999/xlink" x="0px" y="0px"
	 width="400px" height="400px" viewBox="0 0 400 400" enable-background="new 0 0 400 400" xml:space="preserve">
<rect fill="#FABE2C" width="400" height="400"/>
<path fill="#FFFFFF" d="M332.903,167.255c-1.922-5.816-6.93-10.064-12.997-10.975l-72.676-10.722l-32.521-66.91
	c-2.681-5.563-8.345-9.103-14.565-9.103s-11.834,3.54-14.565,9.103l-32.52,66.91L80.435,156.28
	c-6.069,0.911-11.126,5.159-12.997,10.975c-1.872,5.816-0.354,12.239,3.995,16.538l52.698,52.143l-12.441,73.688
	c-1.011,6.068,1.518,12.238,6.524,15.829c5.006,3.591,11.632,4.046,17.094,1.163l64.887-34.645l64.886,34.645
	c5.463,2.883,12.087,2.479,17.095-1.163s7.536-9.761,6.524-15.829l-12.492-73.688l52.697-52.143
	C333.257,179.495,334.825,173.072,332.903,167.255z"/>
</svg>
