<?xml version="1.0" encoding="utf-8"?>
<!-- Generator: Adobe Illustrator 16.0.0, SVG Export Plug-In . SVG Version: 6.00 Build 0)  -->
<!DOCTYPE svg PUBLIC "-//W3C//DTD SVG 1.1//EN" "http://www.w3.org/Graphics/SVG/1.1/DTD/svg11.dtd">
<svg version="1.1" id="Layer_1" xmlns="http://www.w3.org/2000/svg" xmlns:xlink="http://www.w3.org/1999/xlink" x="0px" y="0px"
	 width="400px" height="400px" viewBox="0 0 400 400" enable-background="new 0 0 400 400" xml:space="preserve">
<rect fill="#6A89C5" width="400" height="400"/>
<path fill="#FFFFFF" d="M144.991,286.727h-43.81c-3.45,0-6.262-2.813-6.262-6.262V179.869c0-3.448,2.813-6.262,6.262-6.262h43.81
	c3.45,0,6.262,2.814,6.262,6.262v100.596C151.253,283.913,148.441,286.727,144.991,286.727z M166.563,263.083v-72.069
	c0-17.592,5.016-35.265,14.356-50.204c5.705-9.127,18.495-23.749,25.658-31.312c1.594-1.698,7.377-6.686,7.377-9.42
	c0-3.503,0.399-9.153,0.53-19.688c0.082-6.686,5.519-12.179,12.205-12.126h0.295c11.699,0.265,15.468,11.064,15.468,11.064
	s10.003,19.744,0.665,43.891c-7.881,20.404-9.473,22.05-9.473,22.05s-2.549,3.688,5.52,3.529c0,0,49.248-0.213,50.945-0.213
	c3.637,0,15.23,3.318,14.565,18.098c-0.477,10.933-7.269,14.754-10.743,16c-0.689,0.238-0.771,1.194-0.132,1.566
	c3.554,2.068,10.823,7.296,10.665,15.31c-0.213,9.712-4.111,13.294-12.234,15.522c-0.742,0.213-0.875,1.194-0.211,1.567
	c3.08,1.75,8.359,6.021,8.043,14.673c-0.318,8.809-6.688,11.913-10.166,12.977c-0.688,0.212-0.82,1.112-0.211,1.538
	c2.203,1.512,5.465,4.936,5.309,11.966c-0.081,3.716-1.328,6.423-2.895,8.358c-2.468,3.054-6.342,4.646-10.268,4.671l-109.272,0.213
	C172.507,271.044,166.563,271.044,166.563,263.083L166.563,263.083z"/>
</svg>
