<?xml version="1.0" encoding="utf-8"?>
<!-- Generator: Adobe Illustrator 16.0.0, SVG Export Plug-In . SVG Version: 6.00 Build 0)  -->
<!DOCTYPE svg PUBLIC "-//W3C//DTD SVG 1.1//EN" "http://www.w3.org/Graphics/SVG/1.1/DTD/svg11.dtd">
<svg version="1.1" id="Layer_1" xmlns="http://www.w3.org/2000/svg" xmlns:xlink="http://www.w3.org/1999/xlink" x="0px" y="0px"
	 width="612px" height="612px" viewBox="0 0 612 612" enable-background="new 0 0 612 612" xml:space="preserve">
<rect fill="#74B20E" width="612" height="612"/>
<g>
	<path fill="#FFFFFF" d="M423.517,174.382H188.483c-15.512,0-28.204,12.691-28.204,28.204s12.692,28.204,28.204,28.204h235.033
		c15.511,0,28.204-12.692,28.204-28.204S439.027,174.382,423.517,174.382z"/>
	<path fill="#FFFFFF" d="M423.517,277.796H188.483c-15.512,0-28.204,12.692-28.204,28.204c0,15.512,12.692,28.204,28.204,28.204
		h235.033c15.511,0,28.204-12.692,28.204-28.204C451.721,290.488,439.027,277.796,423.517,277.796z"/>
	<path fill="#FFFFFF" d="M353.769,381.211H181.011c-11.402,0-20.731,12.692-20.731,28.203c0,15.512,9.329,28.204,20.731,28.204
		h172.758c11.401,0,20.731-12.692,20.731-28.204C374.5,393.903,365.17,381.211,353.769,381.211z"/>
</g>
</svg>
