<?xml version="1.0" encoding="utf-8"?>
<!-- Generator: Adobe Illustrator 16.0.0, SVG Export Plug-In . SVG Version: 6.00 Build 0)  -->
<!DOCTYPE svg PUBLIC "-//W3C//DTD SVG 1.1//EN" "http://www.w3.org/Graphics/SVG/1.1/DTD/svg11.dtd">
<svg version="1.1" id="Layer_1" xmlns="http://www.w3.org/2000/svg" xmlns:xlink="http://www.w3.org/1999/xlink" x="0px" y="0px"
	 width="612px" height="612px" viewBox="0 90 612 612" enable-background="new 0 90 612 612" xml:space="preserve">
<rect y="90" fill="#74B20E" width="612" height="612"/>
<path fill="#FFFFFF" d="M229.389,553.727H163.52c-5.188,0-9.416-4.229-9.416-9.414V393.064c0-5.187,4.229-9.416,9.416-9.416h65.869
	c5.187,0,9.415,4.229,9.415,9.416v151.246C238.803,549.496,234.575,553.727,229.389,553.727z M261.822,518.178V409.82
	c0-26.449,7.542-53.021,21.584-75.481c8.578-13.723,27.808-35.708,38.578-47.079c2.396-2.553,11.091-10.052,11.091-14.162
	c0-5.268,0.601-13.763,0.798-29.601c0.123-10.054,8.297-18.313,18.351-18.233h0.443c17.59,0.399,23.256,16.636,23.256,16.636
	s15.04,29.686,1,65.991c-11.849,30.678-14.242,33.152-14.242,33.152s-3.832,5.545,8.301,5.307c0,0,74.045-0.32,76.597-0.32
	c5.468,0,22.897,4.986,21.897,27.213c-0.716,16.438-10.928,22.183-16.15,24.056c-1.036,0.357-1.158,1.794-0.198,2.354
	c5.343,3.106,16.273,10.97,16.035,23.019c-0.32,14.604-6.184,19.989-18.396,23.338c-1.114,0.32-1.313,1.796-0.315,2.357
	c4.631,2.631,12.566,9.053,12.093,22.061c-0.479,13.244-10.056,17.911-15.284,19.512c-1.035,0.317-1.231,1.673-0.315,2.313
	c3.313,2.271,8.216,7.42,7.979,17.99c-0.122,5.587-1.997,9.655-4.353,12.565c-3.71,4.593-9.534,6.986-15.438,7.022l-164.292,0.319
	C270.759,530.146,261.822,530.146,261.822,518.178L261.822,518.178z"/>
</svg>
