<?xml version="1.0" encoding="utf-8"?>
<!-- Generator: Adobe Illustrator 16.0.0, SVG Export Plug-In . SVG Version: 6.00 Build 0)  -->
<!DOCTYPE svg PUBLIC "-//W3C//DTD SVG 1.1//EN" "http://www.w3.org/Graphics/SVG/1.1/DTD/svg11.dtd">
<svg version="1.1" id="Capa_1" xmlns="http://www.w3.org/2000/svg" xmlns:xlink="http://www.w3.org/1999/xlink" x="0px" y="0px"
	 width="512px" height="512px" viewBox="2.037 0 512 512" enable-background="new 2.037 0 512 512" xml:space="preserve">
<rect x="2.037" fill="#990452" width="512" height="512"/>
<g>
	<path fill="#FFFFFF" d="M324.595,256.298c-0.002,11.487,0.158,22.981-0.155,34.46c-0.053,1.982-1.616,4.739-3.313,5.739
		c-19.909,11.761-39.943,23.317-60.074,34.693c-1.596,0.9-4.603,0.85-6.216-0.062c-20.132-11.379-40.169-22.927-60.081-34.687
		c-1.699-1.004-3.279-3.821-3.299-5.813c-0.225-22.974-0.225-45.952,0.018-68.927c0.021-1.951,1.741-4.678,3.467-5.697
		c19.912-11.755,39.943-23.311,60.072-34.694c1.564-0.885,4.516-0.842,6.095,0.053c20.118,11.403,40.145,22.969,60.048,34.743
		c1.686,0.997,3.235,3.749,3.288,5.727C324.755,233.316,324.597,244.809,324.595,256.298z"/>
	<path fill="#FFFFFF" d="M142.107,179.937c36.04-20.801,71.392-41.203,107.843-62.242c0,8.749,0.001,16.221,0,23.691
		c0,6.291-0.186,12.589,0.072,18.872c0.142,3.451-0.857,5.473-4.011,7.256c-19.684,11.135-39.208,22.555-58.863,33.748
		c-1.666,0.949-4.438,1.938-5.758,1.208C168.391,195.285,155.591,187.741,142.107,179.937z"/>
	<path fill="#FFFFFF" d="M134.473,194.338c13.206,7.614,25.816,14.798,38.287,22.219c1.17,0.695,2.055,2.877,2.062,4.374
		c0.128,23.554,0.121,47.109,0.021,70.665c-0.009,1.408-0.652,3.496-1.69,4.112c-12.617,7.5-25.365,14.78-38.68,22.463
		C134.473,276.682,134.473,235.967,134.473,194.338z"/>
	<path fill="#FFFFFF" d="M381.603,194.284c0,41.578,0,82.258,0,123.855c-6.623-3.769-12.651-7.174-18.652-10.624
		c-6.231-3.581-12.573-7.003-18.567-10.947c-1.68-1.104-3.256-3.797-3.274-5.776c-0.226-23.029-0.173-46.062-0.078-69.094
		c0.006-1.594,0.434-4.009,1.499-4.647C355.264,209.421,368.158,202.057,381.603,194.284z"/>
	<path fill="#FFFFFF" d="M266.249,117.809c36.25,20.929,71.622,41.351,107.637,62.144c-13.469,7.773-26.308,15.274-39.288,22.522
		c-1.158,0.646-3.492,0.125-4.833-0.641c-20.119-11.47-40.178-23.043-60.185-34.705c-1.373-0.8-3.17-2.469-3.189-3.758
		C266.167,148.526,266.249,133.676,266.249,117.809z"/>
	<path fill="#FFFFFF" d="M142.57,332.314c13.399-7.766,25.793-15.029,38.309-22.074c1.217-0.685,3.527-0.604,4.771,0.103
		c20.45,11.659,40.827,23.445,61.146,35.325c1.345,0.785,2.996,2.539,3.017,3.862c0.217,14.518,0.136,29.037,0.136,44.775
		C213.808,373.439,178.603,353.116,142.57,332.314z"/>
	<path fill="#FFFFFF" d="M373.412,332.312c-36.028,20.803-71.131,41.069-107.208,61.901c0-10.468,1.03-20.059-0.246-29.333
		c-1.828-13.3,3.044-20.718,15.048-26.542c16.613-8.066,32.204-18.232,48.327-27.334c1.576-0.889,4.297-1.506,5.656-0.752
		C347.553,317.216,359.934,324.509,373.412,332.312z"/>
</g>
</svg>
