<?xml version="1.0" encoding="utf-8"?>
<!-- Generator: Adobe Illustrator 16.0.0, SVG Export Plug-In . SVG Version: 6.00 Build 0)  -->
<!DOCTYPE svg PUBLIC "-//W3C//DTD SVG 1.1//EN" "http://www.w3.org/Graphics/SVG/1.1/DTD/svg11.dtd">
<svg version="1.1" id="Layer_1" xmlns="http://www.w3.org/2000/svg" xmlns:xlink="http://www.w3.org/1999/xlink" x="0px" y="0px"
	 width="612px" height="612px" viewBox="0 0 612 612" enable-background="new 0 0 612 612" xml:space="preserve">
<rect fill="#666666" width="612" height="612"/>
<g id="Layer_2">
	<path fill="#FFFFFF" d="M461.317,258.119c-25.191-3.659-42.646-27.046-38.985-52.236c0.5-3.449,1.392-6.83,2.653-10.078
		c3.274-8.661,0.676-18.445-6.465-24.338c-15.379-12.914-32.884-23.059-51.734-29.981c-8.804-3.271-18.714-0.521-24.574,6.819
		c-15.639,20-44.532,23.533-64.532,7.893c-2.942-2.3-5.593-4.951-7.893-7.893c-5.86-7.34-15.769-10.09-24.574-6.819
		c-17.405,6.392-33.678,15.521-48.206,27.042c-7.516,5.951-10.281,16.104-6.819,25.043c9.588,23.44-1.64,50.214-25.079,59.802
		c-4.194,1.716-8.62,2.8-13.133,3.218c-9.51,1.017-17.24,8.126-19.046,17.519c-2.19,10.837-3.293,21.865-3.293,32.921
		c-0.016,9.256,0.731,18.496,2.234,27.629c1.538,9.707,9.393,17.179,19.165,18.226c25.214,2.365,43.736,24.724,41.37,49.938
		c-0.482,5.137-1.828,10.156-3.98,14.846c-4.115,8.907-1.643,19.473,5.996,25.632c15.286,12.679,32.622,22.659,51.263,29.511
		c2.384,0.825,4.885,1.262,7.407,1.294c7.018-0.017,13.593-3.435,17.636-9.172c8.507-12.396,22.59-19.788,37.624-19.752
		c14.548,0.018,28.234,6.905,36.919,18.576c5.858,7.876,16.283,10.819,25.396,7.173c17.045-6.86,32.913-16.342,47.03-28.101
		c7.275-6.016,9.841-16.037,6.349-24.808c-9.854-23.329,1.07-50.229,24.398-60.083c3.959-1.673,8.135-2.78,12.402-3.291
		c9.391-1.298,16.858-8.528,18.459-17.87c1.89-9.807,2.912-19.762,3.058-29.747c0.002-10.533-0.981-21.043-2.939-31.393
		C477.795,266.505,470.497,259.445,461.317,258.119L461.317,258.119z M364.787,307.03c0,32.468-26.319,58.787-58.787,58.787
		c-32.467,0-58.788-26.319-58.788-58.787s26.32-58.788,58.788-58.788C338.468,248.243,364.787,274.563,364.787,307.03z"/>
</g>
</svg>
