<?xml version="1.0" encoding="utf-8"?>
<!-- Generator: Adobe Illustrator 16.0.0, SVG Export Plug-In . SVG Version: 6.00 Build 0)  -->
<!DOCTYPE svg PUBLIC "-//W3C//DTD SVG 1.1//EN" "http://www.w3.org/Graphics/SVG/1.1/DTD/svg11.dtd">
<svg version="1.1" id="Layer_1" xmlns="http://www.w3.org/2000/svg" xmlns:xlink="http://www.w3.org/1999/xlink" x="0px" y="0px"
	 width="612px" height="612px" viewBox="0 0 612 612" enable-background="new 0 0 612 612" xml:space="preserve">
<rect fill="#D17C00" width="612" height="612"/>
<g>
	<g>
		<path fill="#FFFFFF" d="M458.625,244.792l-82.798-19.168L332.24,153.16l0.126,0.042c-2.505-4.355-6.092-7.99-10.414-10.552
			c-13.858-8.214-31.751-3.639-39.965,10.219l-43.92,72.797l-82.797,19.168c-4.729,1.064-9.118,3.289-12.771,6.474
			c-12.141,10.587-13.402,29.014-2.813,41.155l55.838,64.296l-7.376,84.84c-0.422,4.771,0.336,9.571,2.208,13.979
			c6.299,14.828,23.426,21.739,38.253,15.44l78.38-33.336l75.965,32.21c5.107,2.776,10.929,3.962,16.715,3.406
			c16.036-1.541,27.787-15.789,26.246-31.824l-7.375-84.84l54.837-63.171c3.704-3.861,6.272-8.667,7.429-13.89
			C484.284,263.844,474.354,248.272,458.625,244.792z"/>
	</g>
</g>
</svg>
