<?xml version="1.0" encoding="utf-8"?>
<!-- Generator: Adobe Illustrator 16.0.0, SVG Export Plug-In . SVG Version: 6.00 Build 0)  -->
<!DOCTYPE svg PUBLIC "-//W3C//DTD SVG 1.1//EN" "http://www.w3.org/Graphics/SVG/1.1/DTD/svg11.dtd">
<svg version="1.1" id="Layer_1" xmlns="http://www.w3.org/2000/svg" xmlns:xlink="http://www.w3.org/1999/xlink" x="0px" y="0px"
	 width="400px" height="400px" viewBox="0 0 400 400" enable-background="new 0 0 400 400" xml:space="preserve">
<rect x="0.834" fill="#BC0000" width="400" height="400"/>
<g>
	<path fill="#FFFFFF" d="M114.825,311.574c2.025-11.898,4.267-25.188,6.557-38.471c2.092-12.136,4.384-24.236,6.213-36.41
		c0.305-2.028-0.667-4.983-2.123-6.43c-16.546-16.434-33.303-32.653-49.998-48.935c-1.549-1.512-3.158-2.978-4.57-4.61
		c-5.678-6.567-3.952-11.921,4.618-13.479c9.001-1.636,18.087-2.808,27.144-4.136c16.3-2.39,32.625-4.622,48.881-7.279
		c1.921-0.313,4.138-2.54,5.098-4.445c11.004-21.839,21.781-43.793,32.654-65.698c0.882-1.776,1.797-3.627,3.096-5.089
		c3.098-3.484,7.421-3.392,10.354,0.221c1.344,1.655,2.31,3.649,3.271,5.579c10.666,21.452,21.352,42.896,31.883,64.414
		c1.591,3.248,3.354,4.964,7.279,5.503c24.067,3.303,48.084,6.992,72.112,10.591c1.798,0.269,3.633,0.626,5.313,1.29
		c4.772,1.884,6.058,5.69,3.266,9.98c-1.254,1.926-2.94,3.605-4.597,5.229c-16.999,16.686-33.966,33.407-51.122,49.93
		c-2.77,2.667-3.317,5.105-2.66,8.762c4.242,23.583,8.246,47.21,12.305,70.825c0.225,1.31,0.305,2.649,0.32,3.979
		c0.102,8.114-4.268,11.055-11.542,7.342c-16.001-8.163-31.869-16.588-47.787-24.913c-6.485-3.392-13.039-6.663-19.402-10.271
		c-2.8-1.59-5.013-1.443-7.795,0.031c-20.568,10.919-41.214,21.689-61.838,32.504c-1.915,1.006-3.811,2.061-5.782,2.938
		C118.867,323.688,114.531,320.748,114.825,311.574z"/>
</g>
</svg>
