<?xml version="1.0" encoding="utf-8"?>
<!-- Generator: Adobe Illustrator 16.0.0, SVG Export Plug-In . SVG Version: 6.00 Build 0)  -->
<!DOCTYPE svg PUBLIC "-//W3C//DTD SVG 1.1//EN" "http://www.w3.org/Graphics/SVG/1.1/DTD/svg11.dtd">
<svg version="1.1" id="Layer_1" xmlns="http://www.w3.org/2000/svg" xmlns:xlink="http://www.w3.org/1999/xlink" x="0px" y="0px"
	 width="400px" height="400px" viewBox="0 0 400 400" enable-background="new 0 0 400 400" xml:space="preserve">
<rect x="0.834" fill="#004854" width="400" height="400"/>
<g>
	<path fill="#FFFFFF" d="M200.893,315.936c-20.164,0-40.356-0.709-60.481,0.187c-24.439,1.082-36.689-16.724-38.416-33.392
		c-2.533-24.441,0.192-48.657,11.011-71.215c6.576-13.71,17.417-22.496,32.717-25.135c3.501-0.604,6.503-0.318,9.583,2.393
		c26.285,23.143,64.656,23.217,91.307,0.172c3.046-2.633,5.943-3.212,9.521-2.609c15.104,2.548,25.8,11.125,32.62,24.533
		c8.161,16.046,11.038,33.435,11.813,51.198c0.474,10.949,1.174,21.949-3.854,32.359c-6.684,13.834-16.82,21.776-32.82,21.57
		C242.893,315.73,221.891,315.936,200.893,315.936z"/>
	<path fill="#FFFFFF" d="M141.192,135.719c0.126-33.164,26.833-59.857,59.705-59.674c33.699,0.188,60.002,26.465,59.982,59.924
		c-0.021,33.512-26.82,60.065-60.51,59.953C167.532,195.813,141.065,168.887,141.192,135.719z"/>
</g>
</svg>
