<?xml version="1.0" encoding="utf-8"?>
<!-- Generator: Adobe Illustrator 16.0.0, SVG Export Plug-In . SVG Version: 6.00 Build 0)  -->
<!DOCTYPE svg PUBLIC "-//W3C//DTD SVG 1.1//EN" "http://www.w3.org/Graphics/SVG/1.1/DTD/svg11.dtd">
<svg version="1.1" id="Layer_1" xmlns="http://www.w3.org/2000/svg" xmlns:xlink="http://www.w3.org/1999/xlink" x="0px" y="0px"
	 width="400px" height="400px" viewBox="0 0 400 400" enable-background="new 0 0 400 400" xml:space="preserve">
<rect x="0.834" fill="#74B20E" width="400" height="400"/>
<path fill="#FFFFFF" d="M167.432,219.133c-12.47-12.411-24.59-24.459-36.694-36.523c-7.235-7.212-6.851-10.664,1.777-16.356
	c9.645-6.363,23.1-6.11,32.51,0.617c0.813,0.582,1.605,1.194,2.66,1.979c0.848-0.692,1.701-1.36,2.523-2.067
	c21.442-18.419,42.862-36.867,64.359-55.224c1.968-1.681,2.418-2.944,1.492-5.557c-2.877-8.116-1.415-15.638,4.419-22.117
	c3.075-3.416,6.684-3.61,9.937-0.361c21.909,21.871,43.776,43.779,65.617,65.72c3.311,3.327,3.093,7.025-0.511,10.167
	c-6.654,5.807-14.206,7.068-22.498,4.133c-0.823-0.291-1.627-0.643-2.592-1.028c-19.89,23.209-39.721,46.343-59.64,69.587
	c4.012,4.805,6.475,10.094,7.109,16.159c0.985,9.382-1.987,17.398-8.558,24.053c-2.96,2.997-6.339,2.684-9.677-0.652
	c-11.387-11.375-22.758-22.759-34.101-34.174c-0.854-0.861-1.437-1.992-2.147-3.002c-0.521-0.113-1.041-0.226-1.562-0.341
	c-0.697,1.156-1.185,2.527-2.12,3.437c-20.25,19.715-40.376,39.568-60.93,58.965c-8.187,7.726-17.339,14.433-26.069,21.583
	c-2.515,2.058-7.381,2.225-9.248,0.383c-2.324-2.297-2.185-5.946,0.29-9.097c18.241-23.23,37.849-45.232,59.041-65.818
	C150.996,235.657,158.988,227.535,167.432,219.133z"/>
</svg>
