<?xml version="1.0" encoding="utf-8"?>
<!-- Generator: Adobe Illustrator 16.0.0, SVG Export Plug-In . SVG Version: 6.00 Build 0)  -->
<!DOCTYPE svg PUBLIC "-//W3C//DTD SVG 1.1//EN" "http://www.w3.org/Graphics/SVG/1.1/DTD/svg11.dtd">
<svg version="1.1" id="Layer_1" xmlns="http://www.w3.org/2000/svg" xmlns:xlink="http://www.w3.org/1999/xlink" x="0px" y="0px"
	 width="400px" height="400px" viewBox="0 0 400 400" enable-background="new 0 0 400 400" xml:space="preserve">
<rect x="0.834" fill="#919191" width="400" height="400"/>
<path fill="#FFFFFF" d="M198.065,195.837c15.056,0,28.095-5.4,38.747-16.055c10.653-10.652,16.054-23.688,16.054-38.747
	c0-15.053-5.4-28.089-16.054-38.746c-10.657-10.652-23.692-16.052-38.747-16.052c-15.06,0-28.094,5.399-38.748,16.053
	c-10.653,10.653-16.055,23.689-16.055,38.745c0,15.059,5.402,28.096,16.057,38.749S183.011,195.837,198.065,195.837z"/>
<path fill="#FFFFFF" d="M293.954,261.194c-0.308-4.434-0.929-9.27-1.844-14.377c-0.924-5.146-2.112-10.009-3.536-14.454
	c-1.47-4.596-3.471-9.132-5.942-13.481c-2.565-4.514-5.578-8.443-8.961-11.678c-3.535-3.383-7.864-6.104-12.87-8.087
	c-4.989-1.974-10.519-2.974-16.434-2.974c-2.321,0-4.568,0.954-8.906,3.777c-2.669,1.742-5.792,3.755-9.278,5.982
	c-2.98,1.898-7.019,3.68-12.004,5.289c-4.867,1.574-9.808,2.374-14.684,2.374s-9.815-0.8-14.686-2.374
	c-4.982-1.608-9.02-3.388-11.997-5.287c-3.453-2.207-6.577-4.221-9.287-5.985c-4.333-2.824-6.582-3.777-8.904-3.777
	c-5.917,0-11.443,1.001-16.43,2.977c-5.003,1.981-9.334,4.702-12.873,8.087c-3.38,3.235-6.396,7.165-8.958,11.676
	c-2.47,4.35-4.469,8.884-5.941,13.481c-1.422,4.446-2.611,9.309-3.535,14.454c-0.915,5.101-1.535,9.938-1.843,14.382
	c-0.302,4.354-0.455,8.872-0.455,13.436c0,11.878,3.775,21.492,11.222,28.583c7.353,6.997,17.082,10.548,28.914,10.548h109.556
	c11.832,0,21.558-3.549,28.913-10.548c7.446-7.085,11.223-16.702,11.223-28.584C294.412,270.05,294.257,265.527,293.954,261.194z"/>
</svg>
